Monoto-CondensedBold.ufo
<glyph name="exclam" format="2">
  <advance width="300"/>
  <unicode hex="0021"/>
  <outline>
    <contour>
      <point x="95" y="219" type="line"/>
      <point x="178" y="219" type="line"/>
      <point x="194" y="714" type="line"/>
      <point x="77" y="714" type="line"/>
    </contour>
    <contour>
      <point x="138" y="-12" type="curve" smooth="yes"/>
      <point x="166" y="-12"/>
      <point x="192" y="14"/>
      <point x="192" y="63" type="curve" smooth="yes"/>
      <point x="192" y="114"/>
      <point x="168" y="138"/>
      <point x="138" y="138" type="curve" smooth="yes"/>
      <point x="102" y="138"/>
      <point x="81" y="113"/>
      <point x="81" y="63" type="curve" smooth="yes"/>
      <point x="81" y="14"/>
      <point x="105" y="-12"/>
    </contour>
  </outline>
</glyph>
<glyph name="quotedbl" format="2">
  <advance width="300"/>
  <unicode hex="0022"/>
  <outline>
    <contour>
      <point x="157" y="456" type="line"/>
      <point x="237" y="456" type="line"/>
      <point x="252" y="714" type="line"/>
      <point x="141" y="714" type="line"/>
    </contour>
    <contour>
      <point x="32" y="456" type="line"/>
      <point x="112" y="456" type="line"/>
      <point x="127" y="714" type="line"/>
      <point x="17" y="714" type="line"/>
    </contour>
  </outline>
</glyph>
<glyph name="numbersign" format="2">
  <advance width="300"/>
  <unicode hex="0023"/>
  <outline>
    <contour>
      <point x="34" y="0" type="line"/>
      <point x="103" y="0" type="line"/>
      <point x="112" y="208" type="line"/>
      <point x="134" y="208" type="line"/>
      <point x="123" y="0" type="line"/>
      <point x="191" y="0" type="line"/>
      <point x="203" y="208" type="line"/>
      <point x="246" y="208" type="line"/>
      <point x="246" y="287" type="line"/>
      <point x="210" y="287" type="line"/>
      <point x="215" y="437" type="line"/>
      <point x="254" y="437" type="line"/>
      <point x="254" y="517" type="line"/>
      <point x="224" y="517" type="line"/>
      <point x="235" y="714" type="line"/>
      <point x="167" y="714" type="line"/>
      <point x="157" y="517" type="line"/>
      <point x="135" y="517" type="line"/>
      <point x="147" y="714" type="line"/>
      <point x="78" y="714" type="line"/>
      <point x="68" y="517" type="line"/>
      <point x="24" y="517" type="line"/>
      <point x="24" y="437" type="line"/>
      <point x="57" y="437" type="line"/>
      <point x="54" y="287" type="line"/>
      <point x="14" y="287" type="line"/>
      <point x="14" y="208" type="line"/>
      <point x="45" y="208" type="line"/>
    </contour>
    <contour>
      <point x="123" y="287" type="line"/>
      <point x="125" y="437" type="line"/>
      <point x="147" y="437" type="line"/>
      <point x="142" y="287" type="line"/>
    </contour>
  </outline>
</glyph>
<glyph name="dollar" format="2">
  <advance width="300"/>
  <unicode hex="0024"/>
  <outline>
    <contour>
      <point x="119" y="-58" type="line"/>
      <point x="157" y="-58" type="line"/>
      <point x="157" y="41" type="line"/>
      <point x="209" y="57"/>
      <point x="239" y="125"/>
      <point x="239" y="217" type="curve" smooth="yes"/>
      <point x="239" y="309"/>
      <point x="213" y="355"/>
      <point x="157" y="399" type="curve"/>
      <point x="157" y="607" type="line"/>
      <point x="176" y="603"/>
      <point x="196" y="593"/>
      <point x="214" y="574" type="curve"/>
      <point x="232" y="650" type="line"/>
      <point x="208" y="672"/>
      <point x="182" y="685"/>
      <point x="157" y="688" type="curve"/>
      <point x="157" y="760" type="line"/>
      <point x="119" y="760" type="line"/>
      <point x="119" y="687" type="line"/>
      <point x="67" y="677"/>
      <point x="33" y="615"/>
      <point x="33" y="520" type="curve" smooth="yes"/>
      <point x="33" y="424"/>
      <point x="57" y="374"/>
      <point x="119" y="330" type="curve"/>
      <point x="119" y="116" type="line"/>
      <point x="92" y="118"/>
      <point x="60" y="139"/>
      <point x="37" y="164" type="curve"/>
      <point x="37" y="72" type="line"/>
      <point x="61" y="52"/>
      <point x="92" y="38"/>
      <point x="119" y="37" type="curve"/>
    </contour>
    <contour>
      <point x="157" y="122" type="curve"/>
      <point x="157" y="308" type="line"/>
      <point x="167" y="283"/>
      <point x="172" y="257"/>
      <point x="172" y="211" type="curve" smooth="yes"/>
      <point x="172" y="167"/>
      <point x="170" y="133"/>
    </contour>
    <contour>
      <point x="119" y="421" type="line"/>
      <point x="102" y="448"/>
      <point x="101" y="470"/>
      <point x="101" y="519" type="curve" smooth="yes"/>
      <point x="101" y="565"/>
      <point x="102" y="599"/>
      <point x="119" y="606" type="curve"/>
    </contour>
  </outline>
</glyph>
<glyph name="percent" format="2">
  <advance width="300"/>
  <unicode hex="0025"/>
  <outline>
    <contour>
      <point x="2" y="168" type="line"/>
      <point x="71" y="168" type="line"/>
      <point x="268" y="545" type="line"/>
      <point x="199" y="545" type="line"/>
    </contour>
    <contour>
      <point x="191" y="-10" type="curve" smooth="yes"/>
      <point x="237" y="-10"/>
      <point x="264" y="54"/>
      <point x="264" y="161" type="curve" smooth="yes"/>
      <point x="264" y="268"/>
      <point x="236" y="330"/>
      <point x="191" y="330" type="curve" smooth="yes"/>
      <point x="148" y="330"/>
      <point x="122" y="267"/>
      <point x="122" y="161" type="curve" smooth="yes"/>
      <point x="122" y="54"/>
      <point x="149" y="-10"/>
    </contour>
    <contour>
      <point x="193" y="56" type="curve" smooth="yes"/>
      <point x="187" y="56"/>
      <point x="185" y="92"/>
      <point x="185" y="161" type="curve" smooth="yes"/>
      <point x="185" y="230"/>
      <point x="187" y="265"/>
      <point x="193" y="265" type="curve" smooth="yes"/>
      <point x="199" y="265"/>
      <point x="200" y="230"/>
      <point x="200" y="161" type="curve" smooth="yes"/>
      <point x="200" y="91"/>
      <point x="199" y="56"/>
    </contour>
    <contour>
      <point x="76" y="384" type="curve" smooth="yes"/>
      <point x="121" y="384"/>
      <point x="149" y="447"/>
      <point x="149" y="554" type="curve" smooth="yes"/>
      <point x="149" y="661"/>
      <point x="120" y="723"/>
      <point x="76" y="723" type="curve" smooth="yes"/>
      <point x="32" y="723"/>
      <point x="6" y="661"/>
      <point x="6" y="554" type="curve" smooth="yes"/>
      <point x="6" y="447"/>
      <point x="34" y="384"/>
    </contour>
    <contour>
      <point x="77" y="448" type="curve" smooth="yes"/>
      <point x="71" y="448"/>
      <point x="70" y="484"/>
      <point x="70" y="554" type="curve" smooth="yes"/>
      <point x="70" y="623"/>
      <point x="71" y="658"/>
      <point x="77" y="658" type="curve" smooth="yes"/>
      <point x="84" y="658"/>
      <point x="84" y="623"/>
      <point x="84" y="554" type="curve" smooth="yes"/>
      <point x="84" y="484"/>
      <point x="84" y="448"/>
    </contour>
  </outline>
</glyph>
<glyph name="ampersand" format="2">
  <advance width="300"/>
  <unicode hex="0026"/>
  <outline>
    <contour>
      <point x="110" y="-10" type="curve" smooth="yes"/>
      <point x="216" y="-10"/>
      <point x="249" y="182"/>
      <point x="261" y="349" type="curve"/>
      <point x="195" y="349" type="line"/>
      <point x="190" y="240"/>
      <point x="166" y="74"/>
      <point x="120" y="74" type="curve" smooth="yes"/>
      <point x="103" y="74"/>
      <point x="89" y="109"/>
      <point x="89" y="174" type="curve" smooth="yes"/>
      <point x="89" y="250"/>
      <point x="109" y="299"/>
      <point x="136" y="347" type="curve" smooth="yes"/>
      <point x="170" y="408"/>
      <point x="203" y="480"/>
      <point x="203" y="576" type="curve" smooth="yes"/>
      <point x="203" y="665"/>
      <point x="181" y="724"/>
      <point x="125" y="724" type="curve" smooth="yes"/>
      <point x="73" y="724"/>
      <point x="44" y="668"/>
      <point x="44" y="576" type="curve" smooth="yes"/>
      <point x="44" y="497"/>
      <point x="63" y="427"/>
      <point x="82" y="358" type="curve" smooth="yes"/>
      <point x="179" y="0" type="line"/>
      <point x="256" y="0" type="line"/>
      <point x="137" y="419" type="line" smooth="yes"/>
      <point x="126" y="457"/>
      <point x="112" y="518"/>
      <point x="112" y="578" type="curve" smooth="yes"/>
      <point x="112" y="624"/>
      <point x="117" y="649"/>
      <point x="125" y="649" type="curve" smooth="yes"/>
      <point x="134" y="649"/>
      <point x="139" y="626"/>
      <point x="139" y="578" type="curve" smooth="yes"/>
      <point x="139" y="492"/>
      <point x="107" y="439"/>
      <point x="95" y="414" type="curve" smooth="yes"/>
      <point x="60" y="340"/>
      <point x="17" y="277"/>
      <point x="17" y="170" type="curve" smooth="yes"/>
      <point x="17" y="69"/>
      <point x="42" y="-10"/>
    </contour>
  </outline>
</glyph>
<glyph name="quotesingle" format="2">
  <advance width="300"/>
  <unicode hex="0027"/>
  <outline>
    <contour>
      <point x="95" y="456" type="line"/>
      <point x="175" y="456" type="line"/>
      <point x="190" y="714" type="line"/>
      <point x="80" y="714" type="line"/>
    </contour>
  </outline>
</glyph>
<glyph name="parenleft" format="2">
  <advance width="300"/>
  <unicode hex="0028"/>
  <outline>
    <contour>
      <point x="139" y="-169" type="curve"/>
      <point x="225" y="-169" type="line"/>
      <point x="190" y="-39"/>
      <point x="165" y="109"/>
      <point x="165" y="269" type="curve" smooth="yes"/>
      <point x="165" y="434"/>
      <point x="188" y="584"/>
      <point x="226" y="714" type="curve"/>
      <point x="139" y="714" type="line"/>
      <point x="99" y="600"/>
      <point x="71" y="445"/>
      <point x="71" y="268" type="curve" smooth="yes"/>
      <point x="71" y="94"/>
      <point x="96" y="-54"/>
    </contour>
  </outline>
</glyph>
<glyph name="asterisk" format="2">
  <advance width="300"/>
  <unicode hex="002A"/>
  <outline>
    <contour>
      <point x="159" y="386" type="line"/>
      <point x="236" y="443" type="line"/>
      <point x="190" y="554" type="line"/>
      <point x="247" y="569" type="line"/>
      <point x="227" y="667" type="line"/>
      <point x="170" y="623" type="line"/>
      <point x="183" y="762" type="line"/>
      <point x="89" y="762" type="line"/>
      <point x="103" y="623" type="line"/>
      <point x="46" y="666" type="line"/>
      <point x="26" y="568" type="line"/>
      <point x="82" y="554" type="line"/>
      <point x="37" y="443" type="line"/>
      <point x="113" y="386" type="line"/>
      <point x="137" y="513" type="line"/>
    </contour>
  </outline>
</glyph>
<glyph name="plus" format="2">
  <advance width="300"/>
  <unicode hex="002B"/>
  <outline>
    <contour>
      <point x="97" y="117" type="line"/>
      <point x="178" y="117" type="line"/>
      <point x="178" y="309" type="line"/>
      <point x="241" y="309" type="line"/>
      <point x="241" y="397" type="line"/>
      <point x="178" y="397" type="line"/>
      <point x="178" y="591" type="line"/>
      <point x="97" y="591" type="line"/>
      <point x="97" y="397" type="line"/>
      <point x="34" y="397" type="line"/>
      <point x="34" y="309" type="line"/>
      <point x="97" y="309" type="line"/>
    </contour>
  </outline>
</glyph>
<glyph name="comma" format="2">
  <advance width="300"/>
  <unicode hex="002C"/>
  <outline>
    <contour>
      <point x="68" y="-134" type="curve"/>
      <point x="149" y="-134" type="line"/>
      <point x="164" y="-62"/>
      <point x="179" y="25"/>
      <point x="188" y="115" type="curve"/>
      <point x="184" y="126" type="line"/>
      <point x="84" y="126" type="line"/>
      <point x="83" y="54"/>
      <point x="72" y="-55"/>
    </contour>
  </outline>
</glyph>
<glyph name="period" format="2">
  <advance width="300"/>
  <unicode hex="002E"/>
  <outline>
    <contour>
      <point x="135" y="-12" type="curve" smooth="yes"/>
      <point x="167" y="-12"/>
      <point x="190" y="14"/>
      <point x="190" y="63" type="curve" smooth="yes"/>
      <point x="190" y="114"/>
      <point x="168" y="138"/>
      <point x="135" y="138" type="curve" smooth="yes"/>
      <point x="102" y="138"/>
      <point x="79" y="113"/>
      <point x="79" y="63" type="curve" smooth="yes"/>
      <point x="79" y="14"/>
      <point x="103" y="-12"/>
    </contour>
  </outline>
</glyph>
<glyph name="slash" format="2">
  <advance width="300"/>
  <unicode hex="002F"/>
  <outline>
    <contour>
      <point x="1" y="-6" type="line"/>
      <point x="87" y="-6" type="line"/>
      <point x="229" y="720" type="line"/>
      <point x="142" y="720" type="line"/>
    </contour>
  </outline>
</glyph>
<glyph name="zero" format="2">
  <advance width="300"/>
  <unicode hex="0030"/>
  <outline>
    <contour>
      <point x="135" y="-10" type="curve" smooth="yes"/>
      <point x="237" y="-10"/>
      <point x="262" y="136"/>
      <point x="262" y="357" type="curve" smooth="yes"/>
      <point x="262" y="592"/>
      <point x="218" y="725"/>
      <point x="134" y="725" type="curve" smooth="yes"/>
      <point x="49" y="725"/>
      <point x="8" y="595"/>
      <point x="8" y="357" type="curve" smooth="yes"/>
      <point x="8" y="123"/>
      <point x="48" y="-10"/>
    </contour>
    <contour>
      <point x="98" y="117" type="line"/>
      <point x="231" y="568" type="line"/>
      <point x="170" y="602" type="line"/>
      <point x="40" y="149" type="line"/>
    </contour>
    <contour>
      <point x="134" y="86" type="curve" smooth="yes"/>
      <point x="105" y="86"/>
      <point x="101" y="186"/>
      <point x="101" y="357" type="curve" smooth="yes"/>
      <point x="101" y="536"/>
      <point x="111" y="629"/>
      <point x="134" y="629" type="curve" smooth="yes"/>
      <point x="163" y="629"/>
      <point x="169" y="533"/>
      <point x="169" y="357" type="curve" smooth="yes"/>
      <point x="169" y="175"/>
      <point x="163" y="86"/>
    </contour>
  </outline>
</glyph>
<glyph name="one" format="2">
  <advance width="300"/>
  <unicode hex="0031"/>
  <outline>
    <contour>
      <point x="93" y="0" type="line"/>
      <point x="202" y="0" type="line"/>
      <point x="202" y="714" type="line"/>
      <point x="112" y="714" type="line"/>
      <point x="4" y="594" type="line"/>
      <point x="55" y="504" type="line"/>
      <point x="70" y="542" type="line" smooth="yes"/>
      <point x="77" y="559"/>
      <point x="87" y="568"/>
      <point x="97" y="584" type="curve"/>
      <point x="95" y="540"/>
      <point x="93" y="470"/>
      <point x="93" y="421" type="curve" smooth="yes"/>
    </contour>
    <contour>
      <point x="25" y="0" type="line"/>
      <point x="261" y="0" type="line"/>
      <point x="261" y="84" type="line"/>
      <point x="202" y="96" type="line"/>
      <point x="94" y="96" type="line"/>
      <point x="25" y="84" type="line"/>
    </contour>
  </outline>
</glyph>
<glyph name="two" format="2">
  <advance width="300"/>
  <unicode hex="0032"/>
  <outline>
    <contour>
      <point x="21" y="0" type="line"/>
      <point x="244" y="0" type="line"/>
      <point x="244" y="108" type="line"/>
      <point x="155" y="108" type="line"/>
      <point x="154" y="114" type="line"/>
      <point x="183" y="236" type="line" smooth="yes"/>
      <point x="212" y="356"/>
      <point x="240" y="429"/>
      <point x="240" y="527" type="curve" smooth="yes"/>
      <point x="240" y="652"/>
      <point x="195" y="724"/>
      <point x="127" y="724" type="curve" smooth="yes"/>
      <point x="75" y="724"/>
      <point x="39" y="692"/>
      <point x="3" y="629" type="curve"/>
      <point x="58" y="550" type="line"/>
      <point x="79" y="593"/>
      <point x="96" y="620"/>
      <point x="115" y="620" type="curve" smooth="yes"/>
      <point x="126" y="620"/>
      <point x="128" y="584"/>
      <point x="128" y="520" type="curve" smooth="yes"/>
      <point x="128" y="444"/>
      <point x="109" y="385"/>
      <point x="76" y="279" type="curve" smooth="yes"/>
      <point x="19" y="94" type="line"/>
    </contour>
  </outline>
</glyph>
<glyph name="three" format="2">
  <advance width="300"/>
  <unicode hex="0033"/>
  <outline>
    <contour>
      <point x="103" y="-10" type="curve" smooth="yes"/>
      <point x="194" y="-10"/>
      <point x="246" y="74"/>
      <point x="246" y="202" type="curve" smooth="yes"/>
      <point x="246" y="298"/>
      <point x="224" y="356"/>
      <point x="175" y="373" type="curve"/>
      <point x="175" y="376" type="line"/>
      <point x="221" y="398"/>
      <point x="237" y="459"/>
      <point x="237" y="546" type="curve" smooth="yes"/>
      <point x="237" y="656"/>
      <point x="198" y="724"/>
      <point x="125" y="724" type="curve" smooth="yes"/>
      <point x="85" y="724"/>
      <point x="49" y="701"/>
      <point x="22" y="659" type="curve"/>
      <point x="64" y="572" type="line"/>
      <point x="81" y="605"/>
      <point x="97" y="621"/>
      <point x="110" y="621" type="curve" smooth="yes"/>
      <point x="124" y="621"/>
      <point x="125" y="589"/>
      <point x="125" y="532" type="curve" smooth="yes"/>
      <point x="125" y="461"/>
      <point x="119" y="418"/>
      <point x="79" y="418" type="curve" smooth="yes"/>
      <point x="64" y="418" type="line"/>
      <point x="64" y="318" type="line"/>
      <point x="78" y="318" type="line" smooth="yes"/>
      <point x="120" y="318"/>
      <point x="126" y="285"/>
      <point x="126" y="207" type="curve" smooth="yes"/>
      <point x="126" y="136"/>
      <point x="119" y="94"/>
      <point x="96" y="94" type="curve" smooth="yes"/>
      <point x="73" y="94"/>
      <point x="48" y="110"/>
      <point x="20" y="141" type="curve"/>
      <point x="20" y="28" type="line"/>
      <point x="54" y="-1"/>
      <point x="81" y="-10"/>
    </contour>
  </outline>
</glyph>
<glyph name="four" format="2">
  <advance width="300"/>
  <unicode hex="0034"/>
  <outline>
    <contour>
      <point x="126" y="0" type="line"/>
      <point x="218" y="0" type="line"/>
      <point x="218" y="155" type="line"/>
      <point x="256" y="155" type="line"/>
      <point x="256" y="251" type="line"/>
      <point x="218" y="251" type="line"/>
      <point x="218" y="716" type="line"/>
      <point x="126" y="716" type="line"/>
      <point x="14" y="248" type="line"/>
      <point x="14" y="155" type="line"/>
      <point x="126" y="155" type="line"/>
    </contour>
    <contour>
      <point x="92" y="251" type="line"/>
      <point x="112" y="474" type="line" smooth="yes"/>
      <point x="115" y="503"/>
      <point x="123" y="544"/>
      <point x="125" y="578" type="curve"/>
      <point x="129" y="578" type="line"/>
      <point x="128" y="534"/>
      <point x="126" y="456"/>
      <point x="126" y="406" type="curve" smooth="yes"/>
      <point x="126" y="251" type="line"/>
    </contour>
  </outline>
</glyph>
<glyph name="five" format="2">
  <advance width="300"/>
  <unicode hex="0035"/>
  <outline>
    <contour>
      <point x="110" y="-10" type="curve" smooth="yes"/>
      <point x="198" y="-10"/>
      <point x="239" y="81"/>
      <point x="239" y="230" type="curve" smooth="yes"/>
      <point x="239" y="371"/>
      <point x="198" y="451"/>
      <point x="150" y="451" type="curve" smooth="yes"/>
      <point x="155" y="451"/>
      <point x="149" y="447"/>
      <point x="135" y="441" type="curve"/>
      <point x="136" y="606" type="line"/>
      <point x="220" y="606" type="line"/>
      <point x="220" y="714" type="line"/>
      <point x="40" y="714" type="line"/>
      <point x="31" y="364" type="line"/>
      <point x="68" y="334" type="line"/>
      <point x="77" y="342"/>
      <point x="88" y="349"/>
      <point x="94" y="349" type="curve" smooth="yes"/>
      <point x="110" y="349"/>
      <point x="124" y="304"/>
      <point x="124" y="224" type="curve" smooth="yes"/>
      <point x="124" y="137"/>
      <point x="116" y="94"/>
      <point x="103" y="94" type="curve" smooth="yes"/>
      <point x="85" y="94"/>
      <point x="53" y="112"/>
      <point x="28" y="140" type="curve"/>
      <point x="28" y="28" type="line"/>
      <point x="52" y="3"/>
      <point x="79" y="-10"/>
    </contour>
  </outline>
</glyph>
<glyph name="six" format="2">
  <advance width="300"/>
  <unicode hex="0036"/>
  <outline>
    <contour>
      <point x="138" y="-10" type="curve" smooth="yes"/>
      <point x="207" y="-10"/>
      <point x="249" y="85"/>
      <point x="249" y="233" type="curve" smooth="yes"/>
      <point x="249" y="373"/>
      <point x="217" y="457"/>
      <point x="168" y="457" type="curve" smooth="yes"/>
      <point x="147" y="457"/>
      <point x="132" y="422"/>
      <point x="117" y="372" type="curve"/>
      <point x="114" y="372" type="line"/>
      <point x="116" y="527"/>
      <point x="133" y="631"/>
      <point x="189" y="631" type="curve" smooth="yes"/>
      <point x="203" y="631"/>
      <point x="217" y="627"/>
      <point x="230" y="620" type="curve"/>
      <point x="230" y="716" type="line"/>
      <point x="214" y="721"/>
      <point x="196" y="724"/>
      <point x="180" y="724" type="curve" smooth="yes"/>
      <point x="45" y="724"/>
      <point x="22" y="530"/>
      <point x="22" y="307" type="curve" smooth="yes"/>
      <point x="22" y="96"/>
      <point x="71" y="-10"/>
    </contour>
    <contour>
      <point x="137" y="85" type="curve" smooth="yes"/>
      <point x="131" y="85"/>
      <point x="120" y="170"/>
      <point x="120" y="243" type="curve" smooth="yes"/>
      <point x="120" y="312"/>
      <point x="129" y="365"/>
      <point x="137" y="365" type="curve" smooth="yes"/>
      <point x="146" y="365"/>
      <point x="152" y="316"/>
      <point x="152" y="231" type="curve" smooth="yes"/>
      <point x="152" y="134"/>
      <point x="144" y="85"/>
    </contour>
  </outline>
</glyph>
<glyph name="seven" format="2">
  <advance width="300"/>
  <unicode hex="0037"/>
  <outline>
    <contour>
      <point x="41" y="0" type="line"/>
      <point x="160" y="0" type="line"/>
      <point x="250" y="625" type="line"/>
      <point x="250" y="714" type="line"/>
      <point x="22" y="714" type="line"/>
      <point x="22" y="606" type="line"/>
      <point x="135" y="606" type="line"/>
    </contour>
  </outline>
</glyph>
<glyph name="eight" format="2">
  <advance width="300"/>
  <unicode hex="0038"/>
  <outline>
    <contour>
      <point x="133" y="-10" type="curve" smooth="yes"/>
      <point x="205" y="-10"/>
      <point x="248" y="65"/>
      <point x="248" y="187" type="curve" smooth="yes"/>
      <point x="248" y="273"/>
      <point x="236" y="329"/>
      <point x="196" y="377" type="curve"/>
      <point x="228" y="416"/>
      <point x="239" y="470"/>
      <point x="239" y="550" type="curve" smooth="yes"/>
      <point x="239" y="666"/>
      <point x="198" y="725"/>
      <point x="136" y="725" type="curve" smooth="yes"/>
      <point x="73" y="725"/>
      <point x="31" y="666"/>
      <point x="31" y="550" type="curve" smooth="yes"/>
      <point x="31" y="473"/>
      <point x="40" y="417"/>
      <point x="68" y="374" type="curve"/>
      <point x="32" y="333"/>
      <point x="22" y="274"/>
      <point x="22" y="184" type="curve" smooth="yes"/>
      <point x="22" y="57"/>
      <point x="63" y="-10"/>
    </contour>
    <contour>
      <point x="135" y="81" type="curve" smooth="yes"/>
      <point x="118" y="81"/>
      <point x="115" y="121"/>
      <point x="115" y="184" type="curve" smooth="yes"/>
      <point x="115" y="246"/>
      <point x="116" y="288"/>
      <point x="132" y="325" type="curve"/>
      <point x="149" y="279"/>
      <point x="155" y="247"/>
      <point x="155" y="188" type="curve" smooth="yes"/>
      <point x="155" y="121"/>
      <point x="151" y="81"/>
    </contour>
    <contour>
      <point x="135" y="428" type="curve"/>
      <point x="128" y="458"/>
      <point x="123" y="488"/>
      <point x="123" y="545" type="curve" smooth="yes"/>
      <point x="123" y="602"/>
      <point x="127" y="634"/>
      <point x="135" y="634" type="curve" smooth="yes"/>
      <point x="140" y="634"/>
      <point x="147" y="603"/>
      <point x="147" y="544" type="curve" smooth="yes"/>
      <point x="147" y="491"/>
      <point x="148" y="457"/>
    </contour>
  </outline>
</glyph>
<glyph name="nine" format="2">
  <advance width="300"/>
  <unicode hex="0039"/>
  <outline>
    <contour>
      <point x="87" y="-10" type="curve" smooth="yes"/>
      <point x="216" y="-10"/>
      <point x="245" y="191"/>
      <point x="245" y="407" type="curve" smooth="yes"/>
      <point x="245" y="616"/>
      <point x="197" y="724"/>
      <point x="128" y="724" type="curve" smooth="yes"/>
      <point x="61" y="724"/>
      <point x="19" y="630"/>
      <point x="19" y="480" type="curve" smooth="yes"/>
      <point x="19" y="340"/>
      <point x="50" y="258"/>
      <point x="100" y="258" type="curve" smooth="yes"/>
      <point x="120" y="258"/>
      <point x="136" y="290"/>
      <point x="150" y="342" type="curve"/>
      <point x="154" y="342" type="line"/>
      <point x="151" y="188"/>
      <point x="132" y="83"/>
      <point x="78" y="83" type="curve" smooth="yes"/>
      <point x="65" y="83"/>
      <point x="52" y="87"/>
      <point x="39" y="95" type="curve"/>
      <point x="39" y="-1" type="line"/>
      <point x="55" y="-7"/>
      <point x="71" y="-10"/>
    </contour>
    <contour>
      <point x="129" y="349" type="curve" smooth="yes"/>
      <point x="120" y="349"/>
      <point x="115" y="398"/>
      <point x="115" y="483" type="curve" smooth="yes"/>
      <point x="115" y="579"/>
      <point x="121" y="629"/>
      <point x="130" y="629" type="curve" smooth="yes"/>
      <point x="135" y="629"/>
      <point x="148" y="549"/>
      <point x="148" y="474" type="curve" smooth="yes"/>
      <point x="148" y="400"/>
      <point x="140" y="349"/>
    </contour>
  </outline>
</glyph>
<glyph name="colon" format="2">
  <advance width="300"/>
  <unicode hex="003A"/>
  <outline>
    <contour>
      <point x="136" y="400" type="curve" smooth="yes"/>
      <point x="167" y="400"/>
      <point x="190" y="426"/>
      <point x="190" y="475" type="curve" smooth="yes"/>
      <point x="190" y="525"/>
      <point x="169" y="551"/>
      <point x="136" y="551" type="curve" smooth="yes"/>
      <point x="102" y="551"/>
      <point x="79" y="525"/>
      <point x="79" y="475" type="curve" smooth="yes"/>
      <point x="79" y="427"/>
      <point x="103" y="400"/>
    </contour>
    <contour>
      <point x="136" y="-12" type="curve" smooth="yes"/>
      <point x="167" y="-12"/>
      <point x="190" y="14"/>
      <point x="190" y="63" type="curve" smooth="yes"/>
      <point x="190" y="114"/>
      <point x="168" y="138"/>
      <point x="136" y="138" type="curve" smooth="yes"/>
      <point x="102" y="138"/>
      <point x="79" y="113"/>
      <point x="79" y="63" type="curve" smooth="yes"/>
      <point x="79" y="14"/>
      <point x="103" y="-12"/>
    </contour>
  </outline>
</glyph>
<glyph name="semicolon" format="2">
  <advance width="300"/>
  <unicode hex="003B"/>
  <outline>
    <contour>
      <point x="73" y="-134" type="curve" smooth="yes"/>
      <point x="154" y="-134" type="line"/>
      <point x="170" y="-62"/>
      <point x="184" y="25"/>
      <point x="195" y="114" type="curve"/>
      <point x="191" y="125" type="line"/>
      <point x="91" y="125" type="line"/>
      <point x="88" y="53"/>
      <point x="77" y="-134"/>
    </contour>
    <contour>
      <point x="138" y="400" type="curve" smooth="yes"/>
      <point x="170" y="400"/>
      <point x="193" y="426"/>
      <point x="193" y="475" type="curve" smooth="yes"/>
      <point x="193" y="525"/>
      <point x="171" y="551"/>
      <point x="138" y="551" type="curve" smooth="yes"/>
      <point x="102" y="551"/>
      <point x="79" y="525"/>
      <point x="79" y="475" type="curve" smooth="yes"/>
      <point x="79" y="427"/>
      <point x="104" y="400"/>
    </contour>
  </outline>
</glyph>
<glyph name="equal" format="2">
  <advance width="300"/>
  <unicode hex="003D"/>
  <outline>
    <contour>
      <point x="32" y="406" type="line"/>
      <point x="239" y="406" type="line"/>
      <point x="239" y="506" type="line"/>
      <point x="32" y="506" type="line"/>
    </contour>
    <contour>
      <point x="32" y="193" type="line"/>
      <point x="239" y="193" type="line"/>
      <point x="239" y="293" type="line"/>
      <point x="32" y="293" type="line"/>
    </contour>
  </outline>
</glyph>
<glyph name="greater" format="2">
  <advance width="300"/>
  <unicode hex="003E"/>
  <outline>
    <contour>
      <point x="30" y="125" type="line"/>
      <point x="241" y="328" type="line"/>
      <point x="241" y="388" type="line"/>
      <point x="30" y="589" type="line"/>
      <point x="30" y="489" type="line"/>
      <point x="126" y="358" type="line"/>
      <point x="30" y="225" type="line"/>
    </contour>
  </outline>
</glyph>
<glyph name="question" format="2">
  <advance width="300"/>
  <unicode hex="003F"/>
  <outline>
    <contour>
      <point x="88" y="219" type="line"/>
      <point x="170" y="219" type="line"/>
      <point x="170" y="241" type="line" smooth="yes"/>
      <point x="170" y="286"/>
      <point x="172" y="310"/>
      <point x="197" y="359" type="curve" smooth="yes"/>
      <point x="229" y="422"/>
      <point x="242" y="465"/>
      <point x="242" y="553" type="curve" smooth="yes"/>
      <point x="242" y="660"/>
      <point x="208" y="724"/>
      <point x="135" y="724" type="curve" smooth="yes"/>
      <point x="98" y="724"/>
      <point x="62" y="705"/>
      <point x="27" y="670" type="curve"/>
      <point x="60" y="583" type="line"/>
      <point x="84" y="609"/>
      <point x="104" y="626"/>
      <point x="127" y="626" type="curve" smooth="yes"/>
      <point x="140" y="626"/>
      <point x="144" y="597"/>
      <point x="144" y="544" type="curve" smooth="yes"/>
      <point x="144" y="492"/>
      <point x="144" y="464"/>
      <point x="121" y="412" type="curve" smooth="yes"/>
      <point x="98" y="361"/>
      <point x="88" y="322"/>
      <point x="88" y="251" type="curve" smooth="yes"/>
    </contour>
    <contour>
      <point x="132" y="-12" type="curve" smooth="yes"/>
      <point x="161" y="-12"/>
      <point x="185" y="14"/>
      <point x="185" y="63" type="curve" smooth="yes"/>
      <point x="185" y="114"/>
      <point x="162" y="138"/>
      <point x="132" y="138" type="curve" smooth="yes"/>
      <point x="96" y="138"/>
      <point x="75" y="113"/>
      <point x="75" y="63" type="curve" smooth="yes"/>
      <point x="75" y="14"/>
      <point x="99" y="-12"/>
    </contour>
  </outline>
</glyph>
<glyph name="at" format="2">
  <advance width="300"/>
  <unicode hex="0040"/>
  <outline>
    <contour>
      <point x="139" y="-86" type="curve" smooth="yes"/>
      <point x="161" y="-86"/>
      <point x="185" y="-73"/>
      <point x="211" y="-46" type="curve"/>
      <point x="211" y="26" type="line"/>
      <point x="184" y="-4"/>
      <point x="160" y="-18"/>
      <point x="142" y="-18" type="curve" smooth="yes"/>
      <point x="78" y="-18"/>
      <point x="64" y="107"/>
      <point x="64" y="294" type="curve" smooth="yes"/>
      <point x="64" y="517"/>
      <point x="97" y="644"/>
      <point x="143" y="644" type="curve" smooth="yes"/>
      <point x="182" y="644"/>
      <point x="206" y="544"/>
      <point x="206" y="360" type="curve" smooth="yes"/>
      <point x="206" y="246"/>
      <point x="205" y="174"/>
      <point x="202" y="174" type="curve" smooth="yes"/>
      <point x="203" y="174"/>
      <point x="204" y="203"/>
      <point x="204" y="257" type="curve" smooth="yes"/>
      <point x="204" y="267"/>
      <point x="202" y="285"/>
      <point x="203" y="298" type="curve" smooth="yes"/>
      <point x="210" y="500" type="line"/>
      <point x="196" y="512"/>
      <point x="174" y="523"/>
      <point x="152" y="523" type="curve" smooth="yes"/>
      <point x="99" y="523"/>
      <point x="63" y="435"/>
      <point x="63" y="298" type="curve" smooth="yes"/>
      <point x="63" y="180"/>
      <point x="87" y="107"/>
      <point x="122" y="107" type="curve" smooth="yes"/>
      <point x="137" y="107"/>
      <point x="150" y="133"/>
      <point x="158" y="173" type="curve"/>
      <point x="159" y="173" type="line"/>
      <point x="168" y="132"/>
      <point x="180" y="107"/>
      <point x="198" y="107" type="curve" smooth="yes"/>
      <point x="245" y="107"/>
      <point x="264" y="224"/>
      <point x="264" y="363" type="curve" smooth="yes"/>
      <point x="264" y="584"/>
      <point x="218" y="714"/>
      <point x="142" y="714" type="curve" smooth="yes"/>
      <point x="59" y="714"/>
      <point x="5" y="558"/>
      <point x="5" y="291" type="curve" smooth="yes"/>
      <point x="5" y="55"/>
      <point x="44" y="-86"/>
    </contour>
    <contour>
      <point x="138" y="174" type="curve" smooth="yes"/>
      <point x="133" y="174"/>
      <point x="128" y="218"/>
      <point x="128" y="296" type="curve" smooth="yes"/>
      <point x="128" y="395"/>
      <point x="137" y="456"/>
      <point x="147" y="456" type="curve" smooth="yes"/>
      <point x="148" y="456"/>
      <point x="146" y="454"/>
      <point x="144" y="449" type="curve"/>
      <point x="142" y="332" type="line" smooth="yes"/>
      <point x="140" y="219"/>
      <point x="142" y="174"/>
    </contour>
  </outline>
</glyph>
<glyph name="A" format="2">
  <advance width="300"/>
  <unicode hex="0041"/>
  <anchor x="135" y="0" name="bottom"/>
  <anchor x="240" y="10" name="ogonek"/>
  <anchor x="135" y="715" name="top"/>
  <anchor x="255" y="714" name="topright"/>
  <outline>
    <contour>
      <point x="8" y="0" type="line"/>
      <point x="111" y="0" type="line"/>
      <point x="125" y="494" type="line" smooth="yes"/>
      <point x="126" y="533"/>
      <point x="133" y="587"/>
      <point x="135" y="624" type="curve"/>
      <point x="136" y="587"/>
      <point x="144" y="534"/>
      <point x="145" y="494" type="curve" smooth="yes"/>
      <point x="161" y="0" type="line"/>
      <point x="263" y="0" type="line"/>
      <point x="209" y="715" type="line"/>
      <point x="59" y="715" type="line"/>
    </contour>
    <contour>
      <point x="74" y="196" type="line"/>
      <point x="205" y="196" type="line"/>
      <point x="209" y="296" type="line"/>
      <point x="71" y="296" type="line"/>
    </contour>
  </outline>
</glyph>
<glyph name="B" format="2">
  <advance width="300"/>
  <unicode hex="0042"/>
  <anchor x="135" y="0" name="bottom"/>
  <anchor x="135" y="714" name="top"/>
  <anchor x="254" y="714" name="topright"/>
  <outline>
    <contour>
      <point x="21" y="0" type="line"/>
      <point x="135" y="0" type="line" smooth="yes"/>
      <point x="206" y="0"/>
      <point x="251" y="77"/>
      <point x="251" y="209" type="curve" smooth="yes"/>
      <point x="251" y="305"/>
      <point x="232" y="355"/>
      <point x="202" y="374" type="curve"/>
      <point x="202" y="379" type="line"/>
      <point x="226" y="395"/>
      <point x="245" y="454"/>
      <point x="245" y="540" type="curve" smooth="yes"/>
      <point x="245" y="660"/>
      <point x="201" y="714"/>
      <point x="127" y="714" type="curve" smooth="yes"/>
      <point x="21" y="714" type="line"/>
    </contour>
    <contour>
      <point x="113" y="96" type="line"/>
      <point x="113" y="327" type="line"/>
      <point x="127" y="327" type="line" smooth="yes"/>
      <point x="154" y="327"/>
      <point x="161" y="286"/>
      <point x="161" y="212" type="curve" smooth="yes"/>
      <point x="161" y="137"/>
      <point x="154" y="96"/>
      <point x="129" y="96" type="curve" smooth="yes"/>
    </contour>
    <contour>
      <point x="113" y="416" type="line"/>
      <point x="113" y="619" type="line"/>
      <point x="122" y="619" type="line" smooth="yes"/>
      <point x="140" y="619"/>
      <point x="155" y="588"/>
      <point x="155" y="520" type="curve" smooth="yes"/>
      <point x="155" y="451"/>
      <point x="142" y="416"/>
      <point x="122" y="416" type="curve" smooth="yes"/>
    </contour>
  </outline>
</glyph>
<glyph name="C" format="2">
  <advance width="300"/>
  <unicode hex="0043"/>
  <anchor x="159" y="0" name="bottom"/>
  <anchor x="158" y="714" name="top"/>
  <anchor x="254" y="714" name="topright"/>
  <outline>
    <contour>
      <point x="155" y="-10" type="curve" smooth="yes"/>
      <point x="186" y="-10"/>
      <point x="214" y="0"/>
      <point x="241" y="23" type="curve"/>
      <point x="241" y="128" type="line"/>
      <point x="216" y="108"/>
      <point x="195" y="93"/>
      <point x="175" y="93" type="curve" smooth="yes"/>
      <point x="137" y="93"/>
      <point x="119" y="190"/>
      <point x="119" y="354" type="curve" smooth="yes"/>
      <point x="119" y="511"/>
      <point x="137" y="623"/>
      <point x="174" y="623" type="curve" smooth="yes"/>
      <point x="193" y="623"/>
      <point x="212" y="611"/>
      <point x="228" y="587" type="curve"/>
      <point x="260" y="681" type="line"/>
      <point x="231" y="710"/>
      <point x="204" y="726"/>
      <point x="160" y="726" type="curve" smooth="yes"/>
      <point x="69" y="726"/>
      <point x="13" y="570"/>
      <point x="13" y="351" type="curve" smooth="yes"/>
      <point x="13" y="125"/>
      <point x="62" y="-10"/>
    </contour>
  </outline>
</glyph>
<glyph name="D" format="2">
  <advance width="300"/>
  <unicode hex="0044"/>
  <anchor x="136" y="0" name="bottom"/>
  <anchor x="139" y="357" name="center"/>
  <anchor x="132" y="714" name="top"/>
  <anchor x="265" y="714" name="topright"/>
  <outline>
    <contour>
      <point x="11" y="0" type="line"/>
      <point x="136" y="0" type="line" smooth="yes"/>
      <point x="204" y="0"/>
      <point x="267" y="132"/>
      <point x="267" y="368" type="curve" smooth="yes"/>
      <point x="267" y="587"/>
      <point x="215" y="714"/>
      <point x="140" y="714" type="curve" smooth="yes"/>
      <point x="11" y="714" type="line"/>
    </contour>
    <contour>
      <point x="114" y="105" type="line"/>
      <point x="114" y="609" type="line"/>
      <point x="128" y="609" type="line" smooth="yes"/>
      <point x="145" y="609"/>
      <point x="160" y="535"/>
      <point x="160" y="362" type="curve" smooth="yes"/>
      <point x="160" y="198"/>
      <point x="148" y="105"/>
      <point x="125" y="105" type="curve" smooth="yes"/>
    </contour>
  </outline>
</glyph>
<glyph name="E" format="2">
  <advance width="300"/>
  <unicode hex="0045"/>
  <anchor x="137" y="0" name="bottom"/>
  <anchor x="221" y="10" name="ogonek"/>
  <anchor x="138" y="714" name="top"/>
  <anchor x="16" y="714" name="topleft"/>
  <anchor x="255" y="714" name="topright"/>
  <outline>
    <contour>
      <point x="17" y="0" type="line"/>
      <point x="258" y="0" type="line"/>
      <point x="258" y="105" type="line"/>
      <point x="122" y="105" type="line"/>
      <point x="122" y="314" type="line"/>
      <point x="249" y="314" type="line"/>
      <point x="249" y="419" type="line"/>
      <point x="122" y="419" type="line"/>
      <point x="122" y="609" type="line"/>
      <point x="258" y="609" type="line"/>
      <point x="258" y="714" type="line"/>
      <point x="17" y="714" type="line"/>
    </contour>
  </outline>
</glyph>
<glyph name="F" format="2">
  <advance width="300"/>
  <unicode hex="0046"/>
  <anchor x="138" y="0" name="bottom"/>
  <anchor x="139" y="714" name="top"/>
  <anchor x="255" y="714" name="topright"/>
  <outline>
    <contour>
      <point x="17" y="0" type="line"/>
      <point x="122" y="0" type="line"/>
      <point x="122" y="287" type="line"/>
      <point x="250" y="287" type="line"/>
      <point x="250" y="392" type="line"/>
      <point x="122" y="392" type="line"/>
      <point x="122" y="609" type="line"/>
      <point x="258" y="609" type="line"/>
      <point x="258" y="714" type="line"/>
      <point x="17" y="714" type="line"/>
    </contour>
  </outline>
</glyph>
<glyph name="G" format="2">
  <advance width="300"/>
  <unicode hex="0047"/>
  <anchor x="156" y="0" name="bottom"/>
  <anchor x="159" y="714" name="top"/>
  <anchor x="255" y="714" name="topright"/>
  <outline>
    <contour>
      <point x="161" y="-10" type="curve" smooth="yes"/>
      <point x="194" y="-10"/>
      <point x="222" y="1"/>
      <point x="260" y="28" type="curve"/>
      <point x="260" y="393" type="line"/>
      <point x="147" y="393" type="line"/>
      <point x="147" y="291" type="line"/>
      <point x="162" y="291" type="line"/>
      <point x="162" y="104" type="line"/>
      <point x="154" y="98"/>
      <point x="150" y="93"/>
      <point x="147" y="93" type="curve" smooth="yes"/>
      <point x="124" y="93"/>
      <point x="109" y="205"/>
      <point x="109" y="350" type="curve" smooth="yes"/>
      <point x="109" y="527"/>
      <point x="136" y="623"/>
      <point x="177" y="623" type="curve" smooth="yes"/>
      <point x="200" y="623"/>
      <point x="212" y="614"/>
      <point x="235" y="588" type="curve"/>
      <point x="265" y="681" type="line"/>
      <point x="242" y="709"/>
      <point x="214" y="726"/>
      <point x="170" y="726" type="curve" smooth="yes"/>
      <point x="70" y="726"/>
      <point x="4" y="581"/>
      <point x="4" y="349" type="curve" smooth="yes"/>
      <point x="4" y="129"/>
      <point x="55" y="-10"/>
    </contour>
  </outline>
</glyph>
<glyph name="H" format="2">
  <advance width="300"/>
  <unicode hex="0048"/>
  <anchor x="136" y="0" name="bottom"/>
  <anchor x="136" y="370" name="center"/>
  <anchor x="136" y="714" name="top"/>
  <anchor x="16" y="714" name="topleft"/>
  <anchor x="265" y="714" name="topright"/>
  <outline>
    <contour>
      <point x="11" y="0" type="line"/>
      <point x="115" y="0" type="line"/>
      <point x="115" y="316" type="line"/>
      <point x="157" y="316" type="line"/>
      <point x="157" y="0" type="line"/>
      <point x="261" y="0" type="line"/>
      <point x="261" y="714" type="line"/>
      <point x="157" y="714" type="line"/>
      <point x="157" y="421" type="line"/>
      <point x="115" y="421" type="line"/>
      <point x="115" y="714" type="line"/>
      <point x="11" y="714" type="line"/>
    </contour>
  </outline>
</glyph>
<glyph name="I" format="2">
  <advance width="300"/>
  <unicode hex="0049"/>
  <anchor x="135" y="0" name="bottom"/>
  <anchor x="197" y="10" name="ogonek"/>
  <anchor x="135" y="714" name="top"/>
  <anchor x="16" y="714" name="topleft"/>
  <anchor x="255" y="714" name="topright"/>
  <outline>
    <contour>
      <point x="17" y="0" type="line"/>
      <point x="254" y="0" type="line"/>
      <point x="254" y="83" type="line"/>
      <point x="188" y="96" type="line"/>
      <point x="188" y="619" type="line"/>
      <point x="254" y="631" type="line"/>
      <point x="254" y="714" type="line"/>
      <point x="17" y="714" type="line"/>
      <point x="17" y="631" type="line"/>
      <point x="85" y="619" type="line"/>
      <point x="85" y="96" type="line"/>
      <point x="17" y="83" type="line"/>
    </contour>
  </outline>
</glyph>
<glyph name="J" format="2">
  <advance width="300"/>
  <unicode hex="004A"/>
  <anchor x="135" y="0" name="bottom"/>
  <anchor x="188" y="714" name="top"/>
  <anchor x="254" y="714" name="topright"/>
  <outline>
    <contour>
      <point x="77" y="-10" type="curve" smooth="yes"/>
      <point x="180" y="-10"/>
      <point x="241" y="88"/>
      <point x="241" y="224" type="curve" smooth="yes"/>
      <point x="241" y="714" type="line"/>
      <point x="138" y="714" type="line"/>
      <point x="138" y="248" type="line" smooth="yes"/>
      <point x="138" y="142"/>
      <point x="102" y="92"/>
      <point x="64" y="92" type="curve" smooth="yes"/>
      <point x="61" y="92"/>
      <point x="43" y="99"/>
      <point x="22" y="115" type="curve"/>
      <point x="22" y="16" type="line"/>
      <point x="37" y="-1"/>
      <point x="57" y="-10"/>
    </contour>
  </outline>
</glyph>
<glyph name="K" format="2">
  <advance width="300"/>
  <unicode hex="004B"/>
  <anchor x="138" y="0" name="bottom"/>
  <anchor x="136" y="714" name="top"/>
  <anchor x="255" y="714" name="topright"/>
  <outline>
    <contour>
      <point x="14" y="0" type="line"/>
      <point x="107" y="0" type="line"/>
      <point x="107" y="249" type="line"/>
      <point x="128" y="311" type="line"/>
      <point x="163" y="0" type="line"/>
      <point x="270" y="0" type="line"/>
      <point x="199" y="394" type="line"/>
      <point x="269" y="714" type="line"/>
      <point x="167" y="714" type="line"/>
      <point x="137" y="477" type="line" smooth="yes"/>
      <point x="131" y="432"/>
      <point x="116" y="396"/>
      <point x="107" y="362" type="curve"/>
      <point x="107" y="714" type="line"/>
      <point x="14" y="714" type="line"/>
    </contour>
  </outline>
</glyph>
<glyph name="L" format="2">
  <advance width="300"/>
  <unicode hex="004C"/>
  <anchor x="148" y="0" name="bottom"/>
  <anchor x="135" y="357" name="center"/>
  <anchor x="79" y="714" name="top"/>
  <anchor x="201" y="714" name="topright"/>
  <outline>
    <contour>
      <point x="26" y="0" type="line"/>
      <point x="257" y="0" type="line"/>
      <point x="257" y="106" type="line"/>
      <point x="132" y="106" type="line"/>
      <point x="132" y="714" type="line"/>
      <point x="26" y="714" type="line"/>
    </contour>
  </outline>
</glyph>
<glyph name="M" format="2">
  <advance width="300"/>
  <unicode hex="004D"/>
  <anchor x="134" y="0" name="bottom"/>
  <anchor x="136" y="714" name="top"/>
  <anchor x="264" y="714" name="topright"/>
  <outline>
    <contour>
      <point x="10" y="0" type="line"/>
      <point x="84" y="0" type="line"/>
      <point x="82" y="334" type="line" smooth="yes"/>
      <point x="81" y="415"/>
      <point x="69" y="585"/>
      <point x="68" y="635" type="curve"/>
      <point x="73" y="635" type="line"/>
      <point x="94" y="194" type="line"/>
      <point x="177" y="194" type="line"/>
      <point x="199" y="635" type="line"/>
      <point x="203" y="635" type="line"/>
      <point x="203" y="576"/>
      <point x="189" y="409"/>
      <point x="189" y="336" type="curve" smooth="yes"/>
      <point x="187" y="0" type="line"/>
      <point x="259" y="0" type="line"/>
      <point x="259" y="714" type="line"/>
      <point x="146" y="714" type="line"/>
      <point x="137" y="287" type="line"/>
      <point x="136" y="287" type="line"/>
      <point x="124" y="714" type="line"/>
      <point x="10" y="714" type="line"/>
    </contour>
  </outline>
</glyph>
<glyph name="N" format="2">
  <advance width="300"/>
  <unicode hex="004E"/>
  <anchor x="135" y="0" name="bottom"/>
  <anchor x="138" y="714" name="top"/>
  <anchor x="265" y="714" name="topright"/>
  <outline>
    <contour>
      <point x="17" y="0" type="line"/>
      <point x="94" y="0" type="line"/>
      <point x="94" y="405" type="line" smooth="yes"/>
      <point x="94" y="479"/>
      <point x="86" y="544"/>
      <point x="85" y="618" type="curve"/>
      <point x="88" y="618" type="line"/>
      <point x="136" y="0" type="line"/>
      <point x="255" y="0" type="line"/>
      <point x="255" y="714" type="line"/>
      <point x="177" y="714" type="line"/>
      <point x="177" y="299" type="line" smooth="yes"/>
      <point x="177" y="234"/>
      <point x="183" y="142"/>
      <point x="186" y="100" type="curve"/>
      <point x="182" y="100" type="line"/>
      <point x="137" y="714" type="line"/>
      <point x="17" y="714" type="line"/>
    </contour>
  </outline>
</glyph>
<glyph name="O" format="2">
  <advance width="300"/>
  <unicode hex="004F"/>
  <anchor x="135" y="0" name="bottom"/>
  <anchor x="135" y="357" name="center"/>
  <anchor x="144" y="10" name="ogonek"/>
  <anchor x="135" y="714" name="top"/>
  <anchor x="16" y="714" name="topleft"/>
  <anchor x="265" y="714" name="topright"/>
  <outline>
    <contour>
      <point x="135" y="-9" type="curve" smooth="yes"/>
      <point x="223" y="-9"/>
      <point x="266" y="140"/>
      <point x="266" y="358" type="curve" smooth="yes"/>
      <point x="266" y="578"/>
      <point x="226" y="726"/>
      <point x="134" y="726" type="curve" smooth="yes"/>
      <point x="38" y="726"/>
      <point x="4" y="594"/>
      <point x="4" y="360" type="curve" smooth="yes"/>
      <point x="4" y="142"/>
      <point x="47" y="-9"/>
    </contour>
    <contour>
      <point x="136" y="95" type="curve" smooth="yes"/>
      <point x="113" y="95"/>
      <point x="110" y="193"/>
      <point x="110" y="359" type="curve" smooth="yes"/>
      <point x="110" y="526"/>
      <point x="113" y="622"/>
      <point x="135" y="622" type="curve" smooth="yes"/>
      <point x="158" y="622"/>
      <point x="161" y="531"/>
      <point x="161" y="358" type="curve" smooth="yes"/>
      <point x="161" y="192"/>
      <point x="160" y="95"/>
    </contour>
  </outline>
</glyph>
<glyph name="P" format="2">
  <advance width="300"/>
  <unicode hex="0050"/>
  <anchor x="135" y="0" name="bottom"/>
  <anchor x="138" y="714" name="top"/>
  <anchor x="265" y="714" name="topright"/>
  <outline>
    <contour>
      <point x="21" y="0" type="line"/>
      <point x="115" y="0" type="line"/>
      <point x="115" y="268" type="line"/>
      <point x="130" y="268" type="line" smooth="yes"/>
      <point x="221" y="268"/>
      <point x="251" y="363"/>
      <point x="251" y="498" type="curve" smooth="yes"/>
      <point x="251" y="638"/>
      <point x="217" y="714"/>
      <point x="136" y="714" type="curve" smooth="yes"/>
      <point x="21" y="714" type="line"/>
    </contour>
    <contour>
      <point x="115" y="362" type="line"/>
      <point x="115" y="620" type="line"/>
      <point x="134" y="620" type="line" smooth="yes"/>
      <point x="150" y="620"/>
      <point x="161" y="581"/>
      <point x="161" y="493" type="curve" smooth="yes"/>
      <point x="161" y="401"/>
      <point x="151" y="362"/>
      <point x="122" y="362" type="curve" smooth="yes"/>
    </contour>
  </outline>
</glyph>
<glyph name="Q" format="2">
  <advance width="300"/>
  <unicode hex="0051"/>
  <anchor x="128" y="-220" name="bottom"/>
  <anchor x="128" y="714" name="top"/>
  <anchor x="258" y="714" name="topright"/>
  <anchor x="15" y="714" name="topleft"/>
  <anchor x="143" y="10" name="ogonek"/>
  <anchor x="134" y="357" name="center"/>
  <outline>
    <contour>
      <point x="158" y="-180" type="line"/>
      <point x="266" y="-180" type="line"/>
      <point x="197" y="94" type="line"/>
      <point x="121" y="28" type="line"/>
    </contour>
    <component base="O" xOffset="-1"/>
  </outline>
</glyph>
<glyph name="R" format="2">
  <advance width="300"/>
  <unicode hex="0052"/>
  <anchor x="140" y="0" name="bottom"/>
  <anchor x="135" y="714" name="top"/>
  <anchor x="254" y="714" name="topright"/>
  <outline>
    <contour>
      <point x="23" y="0" type="line"/>
      <point x="114" y="0" type="line"/>
      <point x="114" y="285" type="line"/>
      <point x="126" y="285" type="line"/>
      <point x="164" y="0" type="line"/>
      <point x="264" y="0" type="line"/>
      <point x="205" y="312" type="line"/>
      <point x="235" y="344"/>
      <point x="247" y="405"/>
      <point x="247" y="509" type="curve" smooth="yes"/>
      <point x="247" y="647"/>
      <point x="206" y="714"/>
      <point x="122" y="714" type="curve" smooth="yes"/>
      <point x="23" y="714" type="line"/>
    </contour>
    <contour>
      <point x="114" y="378" type="line"/>
      <point x="114" y="621" type="line"/>
      <point x="121" y="621" type="line" smooth="yes"/>
      <point x="145" y="621"/>
      <point x="157" y="585"/>
      <point x="157" y="503" type="curve" smooth="yes"/>
      <point x="157" y="420"/>
      <point x="146" y="378"/>
      <point x="118" y="378" type="curve" smooth="yes"/>
    </contour>
  </outline>
</glyph>
<glyph name="S" format="2">
  <advance width="300"/>
  <unicode hex="0053"/>
  <anchor x="134" y="0" name="bottom"/>
  <anchor x="140" y="714" name="top"/>
  <anchor x="255" y="714" name="topright"/>
  <outline>
    <contour>
      <point x="118" y="-10" type="curve" smooth="yes"/>
      <point x="201" y="-10"/>
      <point x="252" y="58"/>
      <point x="252" y="197" type="curve" smooth="yes"/>
      <point x="252" y="312"/>
      <point x="224" y="350"/>
      <point x="166" y="413" type="curve" smooth="yes"/>
      <point x="131" y="452"/>
      <point x="123" y="476"/>
      <point x="123" y="535" type="curve" smooth="yes"/>
      <point x="123" y="587"/>
      <point x="125" y="623"/>
      <point x="148" y="623" type="curve" smooth="yes"/>
      <point x="173" y="623"/>
      <point x="193" y="611"/>
      <point x="220" y="584" type="curve"/>
      <point x="251" y="681" type="line"/>
      <point x="215" y="710"/>
      <point x="182" y="725"/>
      <point x="144" y="725" type="curve" smooth="yes"/>
      <point x="64" y="725"/>
      <point x="18" y="658"/>
      <point x="18" y="533" type="curve" smooth="yes"/>
      <point x="18" y="423"/>
      <point x="50" y="373"/>
      <point x="96" y="320" type="curve" smooth="yes"/>
      <point x="132" y="278"/>
      <point x="148" y="254"/>
      <point x="148" y="190" type="curve" smooth="yes"/>
      <point x="148" y="139"/>
      <point x="149" y="93"/>
      <point x="114" y="93" type="curve" smooth="yes"/>
      <point x="81" y="93"/>
      <point x="53" y="112"/>
      <point x="21" y="142" type="curve"/>
      <point x="21" y="29" type="line"/>
      <point x="51" y="2"/>
      <point x="84" y="-10"/>
    </contour>
  </outline>
</glyph>
<glyph name="U" format="2">
  <advance width="300"/>
  <unicode hex="0055"/>
  <anchor x="136" y="0" name="bottom"/>
  <anchor x="239" y="10" name="ogonek"/>
  <anchor x="136" y="714" name="top"/>
  <anchor x="256" y="714" name="topright"/>
  <outline>
    <contour>
      <point x="137" y="-10" type="curve" smooth="yes"/>
      <point x="234" y="-10"/>
      <point x="261" y="72"/>
      <point x="261" y="247" type="curve" smooth="yes"/>
      <point x="261" y="714" type="line"/>
      <point x="155" y="714" type="line"/>
      <point x="155" y="256" type="line" smooth="yes"/>
      <point x="155" y="142"/>
      <point x="163" y="94"/>
      <point x="136" y="94" type="curve" smooth="yes"/>
      <point x="112" y="94"/>
      <point x="116" y="141"/>
      <point x="116" y="255" type="curve" smooth="yes"/>
      <point x="116" y="714" type="line"/>
      <point x="11" y="714" type="line"/>
      <point x="11" y="247" type="line" smooth="yes"/>
      <point x="11" y="72"/>
      <point x="41" y="-10"/>
    </contour>
  </outline>
</glyph>
<glyph name="V" format="2">
  <advance width="300"/>
  <unicode hex="0056"/>
  <anchor x="135" y="0" name="bottom"/>
  <anchor x="135" y="714" name="top"/>
  <anchor x="255" y="714" name="topright"/>
  <outline>
    <contour>
      <point x="72" y="0" type="line"/>
      <point x="196" y="0" type="line"/>
      <point x="266" y="714" type="line"/>
      <point x="160" y="714" type="line"/>
      <point x="146" y="274" type="line" smooth="yes"/>
      <point x="144" y="221"/>
      <point x="137" y="151"/>
      <point x="136" y="105" type="curve"/>
      <point x="134" y="105" type="line"/>
      <point x="132" y="152"/>
      <point x="126" y="221"/>
      <point x="124" y="272" type="curve" smooth="yes"/>
      <point x="107" y="714" type="line"/>
      <point x="4" y="714" type="line"/>
    </contour>
  </outline>
</glyph>
<glyph name="W" format="2">
  <advance width="300"/>
  <unicode hex="0057"/>
  <anchor x="135" y="0" name="bottom"/>
  <anchor x="135" y="714" name="top"/>
  <anchor x="255" y="714" name="topright"/>
  <outline>
    <contour>
      <point x="8" y="0" type="line"/>
      <point x="129" y="0" type="line"/>
      <point x="130" y="267" type="line" smooth="yes"/>
      <point x="130" y="323"/>
      <point x="134" y="379"/>
      <point x="134" y="417" type="curve"/>
      <point x="138" y="417" type="line"/>
      <point x="138" y="379"/>
      <point x="142" y="323"/>
      <point x="143" y="267" type="curve" smooth="yes"/>
      <point x="144" y="0" type="line"/>
      <point x="264" y="0" type="line"/>
      <point x="266" y="714" type="line"/>
      <point x="181" y="714" type="line"/>
      <point x="187" y="611"/>
      <point x="191" y="508"/>
      <point x="195" y="406" type="curve" smooth="yes"/>
      <point x="197" y="350"/>
      <point x="194" y="186"/>
      <point x="194" y="106" type="curve"/>
      <point x="191" y="106" type="line"/>
      <point x="189" y="157"/>
      <point x="179" y="256"/>
      <point x="179" y="321" type="curve" smooth="yes"/>
      <point x="178" y="543" type="line"/>
      <point x="92" y="543" type="line"/>
      <point x="95" y="322" type="line" smooth="yes"/>
      <point x="96" y="267"/>
      <point x="85" y="158"/>
      <point x="82" y="106" type="curve"/>
      <point x="79" y="106" type="line"/>
      <point x="79" y="185"/>
      <point x="76" y="347"/>
      <point x="76" y="405" type="curve" smooth="yes"/>
      <point x="76" y="509"/>
      <point x="82" y="611"/>
      <point x="86" y="714" type="curve"/>
      <point x="4" y="714" type="line"/>
    </contour>
  </outline>
</glyph>
<glyph name="X" format="2">
  <advance width="300"/>
  <unicode hex="0058"/>
  <anchor x="133" y="0" name="bottom"/>
  <anchor x="133" y="714" name="top"/>
  <anchor x="256" y="714" name="topright"/>
  <outline>
    <contour>
      <point x="5" y="0" type="line"/>
      <point x="105" y="0" type="line"/>
      <point x="132" y="280" type="line"/>
      <point x="162" y="0" type="line"/>
      <point x="267" y="0" type="line"/>
      <point x="191" y="367" type="line"/>
      <point x="260" y="714" type="line"/>
      <point x="157" y="714" type="line"/>
      <point x="134" y="457" type="line"/>
      <point x="109" y="714" type="line"/>
      <point x="5" y="714" type="line"/>
      <point x="76" y="369" type="line"/>
    </contour>
  </outline>
</glyph>
<glyph name="Y" format="2">
  <advance width="300"/>
  <unicode hex="0059"/>
  <anchor x="134" y="0" name="bottom"/>
  <anchor x="134" y="714" name="top"/>
  <anchor x="14" y="714" name="topleft"/>
  <anchor x="252" y="714" name="topright"/>
  <outline>
    <contour>
      <point x="81" y="0" type="line"/>
      <point x="182" y="0" type="line"/>
      <point x="182" y="275" type="line"/>
      <point x="266" y="714" type="line"/>
      <point x="154" y="714" type="line"/>
      <point x="133" y="391" type="line"/>
      <point x="114" y="714" type="line"/>
      <point x="0" y="714" type="line"/>
      <point x="81" y="275" type="line"/>
    </contour>
  </outline>
</glyph>
<glyph name="Z" format="2">
  <advance width="300"/>
  <unicode hex="005A"/>
  <anchor x="143" y="0" name="bottom"/>
  <anchor x="138" y="714" name="top"/>
  <anchor x="256" y="714" name="topright"/>
  <outline>
    <contour>
      <point x="18" y="0" type="line"/>
      <point x="252" y="0" type="line"/>
      <point x="252" y="105" type="line"/>
      <point x="138" y="105" type="line"/>
      <point x="254" y="627" type="line"/>
      <point x="254" y="714" type="line"/>
      <point x="18" y="714" type="line"/>
      <point x="18" y="609" type="line"/>
      <point x="141" y="609" type="line"/>
      <point x="18" y="88" type="line"/>
    </contour>
  </outline>
</glyph>
<glyph name="bracketleft" format="2">
  <advance width="300"/>
  <unicode hex="005B"/>
  <outline>
    <contour>
      <point x="84" y="-164" type="line"/>
      <point x="215" y="-164" type="line"/>
      <point x="215" y="-77" type="line"/>
      <point x="177" y="-77" type="line"/>
      <point x="177" y="638" type="line"/>
      <point x="215" y="638" type="line"/>
      <point x="215" y="725" type="line"/>
      <point x="84" y="725" type="line"/>
    </contour>
  </outline>
</glyph>
<glyph name="asciicircum" format="2">
  <advance width="300"/>
  <unicode hex="005E"/>
  <outline>
    <contour>
      <point x="10" y="300" type="line"/>
      <point x="103" y="300" type="line"/>
      <point x="131" y="574" type="line"/>
      <point x="167" y="300" type="line"/>
      <point x="258" y="300" type="line"/>
      <point x="156" y="714" type="line"/>
      <point x="106" y="714" type="line"/>
    </contour>
  </outline>
</glyph>
<glyph name="grave" format="2">
  <advance width="300"/>
  <unicode hex="0060"/>
  <outline>
    <contour>
      <point x="114" y="606" type="curve"/>
      <point x="182" y="606" type="line"/>
      <point x="182" y="618" type="line"/>
      <point x="176" y="652"/>
      <point x="159" y="722"/>
      <point x="154" y="766" type="curve"/>
      <point x="43" y="766" type="line"/>
      <point x="43" y="757" type="line"/>
      <point x="54" y="717"/>
      <point x="98" y="639"/>
    </contour>
  </outline>
</glyph>
<glyph name="a" format="2">
  <advance width="300"/>
  <unicode hex="0061"/>
  <anchor x="140" y="0" name="bottom"/>
  <anchor x="239" y="10" name="ogonek"/>
  <anchor x="147" y="543" name="top"/>
  <anchor x="264" y="543" name="topright"/>
  <outline>
    <contour>
      <point x="98" y="-10" type="curve" smooth="yes"/>
      <point x="118" y="-10"/>
      <point x="142" y="20"/>
      <point x="164" y="76" type="curve"/>
      <point x="165" y="76" type="line"/>
      <point x="182" y="0" type="line"/>
      <point x="260" y="0" type="line"/>
      <point x="260" y="370" type="line" smooth="yes"/>
      <point x="260" y="493"/>
      <point x="214" y="554"/>
      <point x="138" y="554" type="curve" smooth="yes"/>
      <point x="94" y="554"/>
      <point x="62" y="536"/>
      <point x="30" y="506" type="curve"/>
      <point x="64" y="416" type="line"/>
      <point x="80" y="438"/>
      <point x="100" y="454"/>
      <point x="124" y="454" type="curve" smooth="yes"/>
      <point x="141" y="454"/>
      <point x="160" y="428"/>
      <point x="160" y="359" type="curve" smooth="yes"/>
      <point x="160" y="335" type="line"/>
      <point x="111" y="332" type="line" smooth="yes"/>
      <point x="53" y="329"/>
      <point x="18" y="274"/>
      <point x="18" y="155" type="curve" smooth="yes"/>
      <point x="18" y="49"/>
      <point x="52" y="-10"/>
    </contour>
    <contour>
      <point x="135" y="91" type="curve" smooth="yes"/>
      <point x="129" y="91"/>
      <point x="118" y="113"/>
      <point x="118" y="164" type="curve" smooth="yes"/>
      <point x="118" y="222"/>
      <point x="127" y="250"/>
      <point x="141" y="253" type="curve" smooth="yes"/>
      <point x="160" y="257" type="line"/>
      <point x="160" y="213" type="line" smooth="yes"/>
      <point x="160" y="131"/>
      <point x="138" y="91"/>
    </contour>
  </outline>
</glyph>
<glyph name="b" format="2">
  <advance width="300"/>
  <unicode hex="0062"/>
  <anchor x="135" y="0" name="bottom"/>
  <anchor x="135" y="760" name="top"/>
  <anchor x="255" y="760" name="topright"/>
  <outline>
    <contour>
      <point x="174" y="-10" type="curve" smooth="yes"/>
      <point x="220" y="-10"/>
      <point x="263" y="93"/>
      <point x="263" y="273" type="curve" smooth="yes"/>
      <point x="263" y="443"/>
      <point x="231" y="554"/>
      <point x="174" y="554" type="curve" smooth="yes"/>
      <point x="154" y="554"/>
      <point x="133" y="524"/>
      <point x="115" y="472" type="curve"/>
      <point x="110" y="472" type="line"/>
      <point x="113" y="508"/>
      <point x="116" y="536"/>
      <point x="116" y="572" type="curve" smooth="yes"/>
      <point x="116" y="760" type="line"/>
      <point x="14" y="760" type="line"/>
      <point x="14" y="0" type="line"/>
      <point x="96" y="0" type="line"/>
      <point x="108" y="64" type="line"/>
      <point x="115" y="64" type="line"/>
      <point x="137" y="15"/>
      <point x="158" y="-10"/>
    </contour>
    <contour>
      <point x="138" y="92" type="curve" smooth="yes"/>
      <point x="122" y="92"/>
      <point x="113" y="152"/>
      <point x="113" y="275" type="curve" smooth="yes"/>
      <point x="113" y="393"/>
      <point x="120" y="453"/>
      <point x="134" y="453" type="curve" smooth="yes"/>
      <point x="147" y="453"/>
      <point x="155" y="394"/>
      <point x="155" y="272" type="curve" smooth="yes"/>
      <point x="155" y="154"/>
      <point x="153" y="92"/>
    </contour>
  </outline>
</glyph>
<glyph name="c" format="2">
  <advance width="300"/>
  <unicode hex="0063"/>
  <anchor x="158" y="0" name="bottom"/>
  <anchor x="156" y="543" name="top"/>
  <anchor x="254" y="543" name="topright"/>
  <outline>
    <contour>
      <point x="161" y="-10" type="curve" smooth="yes"/>
      <point x="189" y="-10"/>
      <point x="219" y="1"/>
      <point x="244" y="23" type="curve"/>
      <point x="244" y="132" type="line"/>
      <point x="221" y="104"/>
      <point x="195" y="92"/>
      <point x="174" y="92" type="curve" smooth="yes"/>
      <point x="149" y="92"/>
      <point x="126" y="147"/>
      <point x="126" y="272" type="curve" smooth="yes"/>
      <point x="126" y="391"/>
      <point x="135" y="453"/>
      <point x="167" y="453" type="curve" smooth="yes"/>
      <point x="191" y="453"/>
      <point x="206" y="444"/>
      <point x="224" y="425" type="curve"/>
      <point x="257" y="519" type="line"/>
      <point x="228" y="543"/>
      <point x="193" y="554"/>
      <point x="157" y="554" type="curve" smooth="yes"/>
      <point x="61" y="554"/>
      <point x="18" y="452"/>
      <point x="18" y="269" type="curve" smooth="yes"/>
      <point x="18" y="75"/>
      <point x="87" y="-10"/>
    </contour>
  </outline>
</glyph>
<glyph name="d" format="2">
  <advance width="300"/>
  <unicode hex="0064"/>
  <anchor x="135" y="0" name="bottom"/>
  <anchor x="135" y="272" name="center"/>
  <anchor x="135" y="760" name="top"/>
  <anchor x="265" y="760" name="topright"/>
  <outline>
    <contour>
      <point x="102" y="-10" type="curve" smooth="yes"/>
      <point x="120" y="-10"/>
      <point x="142" y="23"/>
      <point x="157" y="75" type="curve"/>
      <point x="162" y="75" type="line"/>
      <point x="172" y="0" type="line"/>
      <point x="257" y="0" type="line"/>
      <point x="257" y="760" type="line"/>
      <point x="155" y="760" type="line"/>
      <point x="155" y="568" type="line" smooth="yes"/>
      <point x="155" y="536"/>
      <point x="159" y="501"/>
      <point x="160" y="473" type="curve"/>
      <point x="156" y="473" type="line"/>
      <point x="138" y="524"/>
      <point x="117" y="554"/>
      <point x="102" y="554" type="curve" smooth="yes"/>
      <point x="44" y="554"/>
      <point x="7" y="451"/>
      <point x="7" y="270" type="curve" smooth="yes"/>
      <point x="7" y="96"/>
      <point x="42" y="-10"/>
    </contour>
    <contour>
      <point x="137" y="92" type="curve" smooth="yes"/>
      <point x="118" y="92"/>
      <point x="112" y="150"/>
      <point x="112" y="267" type="curve" smooth="yes"/>
      <point x="112" y="388"/>
      <point x="116" y="453"/>
      <point x="138" y="453" type="curve" smooth="yes"/>
      <point x="156" y="453"/>
      <point x="157" y="394"/>
      <point x="157" y="272" type="curve" smooth="yes"/>
      <point x="157" y="253" type="line" smooth="yes"/>
      <point x="157" y="146"/>
      <point x="149" y="92"/>
    </contour>
  </outline>
</glyph>
<glyph name="e" format="2">
  <advance width="300"/>
  <unicode hex="0065"/>
  <anchor x="140" y="0" name="bottom"/>
  <anchor x="141" y="10" name="ogonek"/>
  <anchor x="138" y="543" name="top"/>
  <anchor x="264" y="543" name="topright"/>
  <outline>
    <contour>
      <point x="149" y="-10" type="curve" smooth="yes"/>
      <point x="192" y="-10"/>
      <point x="220" y="4"/>
      <point x="242" y="28" type="curve"/>
      <point x="242" y="131" type="line"/>
      <point x="223" y="106"/>
      <point x="197" y="90"/>
      <point x="162" y="90" type="curve" smooth="yes"/>
      <point x="138" y="90"/>
      <point x="114" y="137"/>
      <point x="112" y="237" type="curve"/>
      <point x="258" y="237" type="line"/>
      <point x="258" y="304" type="line" smooth="yes"/>
      <point x="258" y="463"/>
      <point x="205" y="554"/>
      <point x="138" y="554" type="curve" smooth="yes"/>
      <point x="54" y="554"/>
      <point x="6" y="443"/>
      <point x="6" y="268" type="curve" smooth="yes"/>
      <point x="6" y="89"/>
      <point x="61" y="-10"/>
    </contour>
    <contour>
      <point x="112" y="323" type="line"/>
      <point x="112" y="409"/>
      <point x="118" y="455"/>
      <point x="135" y="455" type="curve" smooth="yes"/>
      <point x="147" y="455"/>
      <point x="157" y="407"/>
      <point x="158" y="323" type="curve"/>
    </contour>
  </outline>
</glyph>
<glyph name="f" format="2">
  <advance width="300"/>
  <unicode hex="0066"/>
  <anchor x="135" y="0" name="bottom"/>
  <anchor x="157" y="765" name="top"/>
  <anchor x="256" y="766" name="topright"/>
  <outline>
    <contour>
      <point x="66" y="0" type="line"/>
      <point x="171" y="0" type="line"/>
      <point x="171" y="445" type="line"/>
      <point x="245" y="445" type="line"/>
      <point x="245" y="543" type="line"/>
      <point x="171" y="543" type="line"/>
      <point x="171" y="579" type="line" smooth="yes"/>
      <point x="171" y="645"/>
      <point x="181" y="665"/>
      <point x="192" y="665" type="curve" smooth="yes"/>
      <point x="203" y="665"/>
      <point x="215" y="661"/>
      <point x="231" y="651" type="curve"/>
      <point x="260" y="744" type="line"/>
      <point x="229" y="759"/>
      <point x="198" y="766"/>
      <point x="168" y="766" type="curve" smooth="yes"/>
      <point x="102" y="766"/>
      <point x="66" y="714"/>
      <point x="66" y="585" type="curve" smooth="yes"/>
      <point x="66" y="545" type="line"/>
      <point x="9" y="514" type="line"/>
      <point x="9" y="445" type="line"/>
      <point x="66" y="445" type="line"/>
    </contour>
  </outline>
</glyph>
<glyph name="g" format="2">
  <advance width="300"/>
  <unicode hex="0067"/>
  <anchor x="135" y="-245" name="bottom"/>
  <anchor x="135" y="543" name="top"/>
  <anchor x="264" y="543" name="topright"/>
  <outline>
    <contour>
      <point x="120" y="-245" type="curve" smooth="yes"/>
      <point x="212" y="-245"/>
      <point x="257" y="-160"/>
      <point x="257" y="0" type="curve" smooth="yes"/>
      <point x="257" y="543" type="line"/>
      <point x="169" y="543" type="line"/>
      <point x="160" y="474" type="line"/>
      <point x="154" y="474" type="line"/>
      <point x="132" y="529"/>
      <point x="114" y="554"/>
      <point x="99" y="554" type="curve" smooth="yes"/>
      <point x="45" y="554"/>
      <point x="7" y="445"/>
      <point x="7" y="269" type="curve" smooth="yes"/>
      <point x="7" y="95"/>
      <point x="42" y="-10"/>
      <point x="102" y="-10" type="curve" smooth="yes"/>
      <point x="115" y="-10"/>
      <point x="131" y="13"/>
      <point x="152" y="70" type="curve"/>
      <point x="154" y="70" type="line"/>
      <point x="154" y="53"/>
      <point x="153" y="26"/>
      <point x="153" y="6" type="curve" smooth="yes"/>
      <point x="153" y="-17" type="line" smooth="yes"/>
      <point x="153" y="-99"/>
      <point x="137" y="-144"/>
      <point x="113" y="-144" type="curve" smooth="yes"/>
      <point x="97" y="-144"/>
      <point x="64" y="-131"/>
      <point x="29" y="-103" type="curve"/>
      <point x="29" y="-208" type="line"/>
      <point x="59" y="-233"/>
      <point x="86" y="-245"/>
    </contour>
    <contour>
      <point x="141" y="92" type="curve" smooth="yes"/>
      <point x="122" y="92"/>
      <point x="119" y="153"/>
      <point x="119" y="268" type="curve" smooth="yes"/>
      <point x="119" y="387"/>
      <point x="124" y="453"/>
      <point x="140" y="453" type="curve" smooth="yes"/>
      <point x="151" y="453"/>
      <point x="156" y="399"/>
      <point x="156" y="272" type="curve" smooth="yes"/>
      <point x="156" y="252" type="line" smooth="yes"/>
      <point x="156" y="138"/>
      <point x="145" y="92"/>
    </contour>
  </outline>
</glyph>
<glyph name="h" format="2">
  <advance width="300"/>
  <unicode hex="0068"/>
  <anchor x="135" y="0" name="bottom"/>
  <anchor x="135" y="272" name="center"/>
  <anchor x="66" y="760" name="top"/>
  <anchor x="255" y="760" name="topright"/>
  <outline>
    <contour>
      <point x="14" y="0" type="line"/>
      <point x="118" y="0" type="line"/>
      <point x="118" y="280" type="line" smooth="yes"/>
      <point x="118" y="388"/>
      <point x="113" y="450"/>
      <point x="137" y="450" type="curve" smooth="yes"/>
      <point x="161" y="450"/>
      <point x="156" y="405"/>
      <point x="156" y="323" type="curve" smooth="yes"/>
      <point x="156" y="0" type="line"/>
      <point x="259" y="0" type="line"/>
      <point x="259" y="355" type="line" smooth="yes"/>
      <point x="259" y="488"/>
      <point x="225" y="554"/>
      <point x="174" y="554" type="curve" smooth="yes"/>
      <point x="151" y="554"/>
      <point x="131" y="521"/>
      <point x="116" y="471" type="curve"/>
      <point x="110" y="471" type="line"/>
      <point x="116" y="504"/>
      <point x="118" y="538"/>
      <point x="118" y="572" type="curve" smooth="yes"/>
      <point x="118" y="760" type="line"/>
      <point x="14" y="760" type="line"/>
    </contour>
  </outline>
</glyph>
<glyph name="i" format="2">
  <advance width="300"/>
  <unicode hex="0069"/>
  <anchor x="143" y="0" name="bottom"/>
  <anchor x="139" y="768" name="top"/>
  <anchor x="230" y="768" name="topright"/>
  <outline>
    <contour>
      <point x="20" y="0" type="line"/>
      <point x="245" y="0" type="line"/>
      <point x="245" y="83" type="line"/>
      <point x="191" y="97" type="line"/>
      <point x="191" y="543" type="line"/>
      <point x="32" y="543" type="line"/>
      <point x="32" y="456" type="line"/>
      <point x="88" y="445" type="line"/>
      <point x="88" y="97" type="line"/>
      <point x="20" y="83" type="line"/>
    </contour>
    <contour>
      <point x="139" y="623" type="curve" smooth="yes"/>
      <point x="175" y="623"/>
      <point x="195" y="649"/>
      <point x="195" y="695" type="curve" smooth="yes"/>
      <point x="195" y="743"/>
      <point x="175" y="768"/>
      <point x="139" y="768" type="curve" smooth="yes"/>
      <point x="105" y="768"/>
      <point x="82" y="743"/>
      <point x="82" y="695" type="curve" smooth="yes"/>
      <point x="82" y="647"/>
      <point x="105" y="623"/>
    </contour>
  </outline>
</glyph>
<glyph name="j" format="2">
  <advance width="300"/>
  <unicode hex="006A"/>
  <anchor x="91" y="-245" name="bottom"/>
  <anchor x="155" y="767" name="top"/>
  <anchor x="255" y="767" name="topright"/>
  <outline>
    <contour>
      <point x="96" y="-245" type="curve" smooth="yes"/>
      <point x="184" y="-245"/>
      <point x="214" y="-184"/>
      <point x="214" y="-53" type="curve" smooth="yes"/>
      <point x="214" y="543" type="line"/>
      <point x="34" y="543" type="line"/>
      <point x="34" y="456" type="line"/>
      <point x="110" y="444" type="line"/>
      <point x="110" y="-41" type="line" smooth="yes"/>
      <point x="110" y="-113"/>
      <point x="106" y="-144"/>
      <point x="81" y="-144" type="curve" smooth="yes"/>
      <point x="71" y="-144"/>
      <point x="43" y="-136"/>
      <point x="16" y="-125" type="curve"/>
      <point x="16" y="-225" type="line"/>
      <point x="47" y="-238"/>
      <point x="78" y="-245"/>
    </contour>
    <contour>
      <point x="155" y="622" type="curve" smooth="yes"/>
      <point x="192" y="622"/>
      <point x="214" y="648"/>
      <point x="214" y="694" type="curve" smooth="yes"/>
      <point x="214" y="743"/>
      <point x="192" y="767"/>
      <point x="155" y="767" type="curve" smooth="yes"/>
      <point x="120" y="767"/>
      <point x="98" y="743"/>
      <point x="98" y="694" type="curve" smooth="yes"/>
      <point x="98" y="647"/>
      <point x="120" y="622"/>
    </contour>
  </outline>
</glyph>
<glyph name="k" format="2">
  <advance width="300"/>
  <unicode hex="006B"/>
  <anchor x="133" y="0" name="bottom"/>
  <anchor x="152" y="760" name="top"/>
  <anchor x="256" y="760" name="topright"/>
  <outline>
    <contour>
      <point x="11" y="0" type="line"/>
      <point x="103" y="0" type="line"/>
      <point x="103" y="189" type="line"/>
      <point x="113" y="225" type="line"/>
      <point x="158" y="0" type="line"/>
      <point x="268" y="0" type="line"/>
      <point x="178" y="297" type="line"/>
      <point x="269" y="543" type="line"/>
      <point x="161" y="543" type="line"/>
      <point x="122" y="360" type="line" smooth="yes"/>
      <point x="117" y="334"/>
      <point x="105" y="311"/>
      <point x="97" y="287" type="curve"/>
      <point x="96" y="287" type="line"/>
      <point x="99" y="335"/>
      <point x="103" y="378"/>
      <point x="103" y="425" type="curve" smooth="yes"/>
      <point x="103" y="760" type="line"/>
      <point x="11" y="760" type="line"/>
    </contour>
  </outline>
</glyph>
<glyph name="l" format="2">
  <advance width="300"/>
  <unicode hex="006C"/>
  <anchor x="138" y="0" name="bottom"/>
  <anchor x="138" y="381" name="center"/>
  <anchor x="135" y="760" name="top"/>
  <anchor x="231" y="760" name="topright"/>
  <outline>
    <contour>
      <point x="20" y="0" type="line"/>
      <point x="245" y="0" type="line"/>
      <point x="245" y="83" type="line"/>
      <point x="187" y="97" type="line"/>
      <point x="187" y="760" type="line"/>
      <point x="30" y="760" type="line"/>
      <point x="30" y="677" type="line"/>
      <point x="84" y="667" type="line"/>
      <point x="84" y="97" type="line"/>
      <point x="20" y="83" type="line"/>
    </contour>
  </outline>
</glyph>
<glyph name="m" format="2">
  <advance width="300"/>
  <unicode hex="006D"/>
  <anchor x="140" y="0" name="bottom"/>
  <anchor x="142" y="542" name="top"/>
  <anchor x="264" y="542" name="topright"/>
  <outline>
    <contour>
      <point x="7" y="0" type="line"/>
      <point x="81" y="0" type="line"/>
      <point x="81" y="351" type="line" smooth="yes"/>
      <point x="81" y="408"/>
      <point x="79" y="466"/>
      <point x="91" y="466" type="curve" smooth="yes"/>
      <point x="102" y="466"/>
      <point x="99" y="442"/>
      <point x="99" y="388" type="curve" smooth="yes"/>
      <point x="99" y="0" type="line"/>
      <point x="172" y="0" type="line"/>
      <point x="172" y="359" type="line" smooth="yes"/>
      <point x="172" y="418"/>
      <point x="169" y="466"/>
      <point x="181" y="466" type="curve" smooth="yes"/>
      <point x="191" y="466"/>
      <point x="189" y="442"/>
      <point x="189" y="390" type="curve" smooth="yes"/>
      <point x="189" y="0" type="line"/>
      <point x="264" y="0" type="line"/>
      <point x="264" y="385" type="line" smooth="yes"/>
      <point x="264" y="498"/>
      <point x="261" y="552"/>
      <point x="219" y="552" type="curve" smooth="yes"/>
      <point x="196" y="552"/>
      <point x="182" y="526"/>
      <point x="171" y="478" type="curve"/>
      <point x="169" y="478" type="line"/>
      <point x="161" y="525"/>
      <point x="152" y="552"/>
      <point x="129" y="552" type="curve" smooth="yes"/>
      <point x="110" y="552"/>
      <point x="95" y="531"/>
      <point x="85" y="485" type="curve"/>
      <point x="82" y="485" type="line"/>
      <point x="70" y="542" type="line"/>
      <point x="7" y="542" type="line"/>
    </contour>
  </outline>
</glyph>
<glyph name="n" format="2">
  <advance width="300"/>
  <unicode hex="006E"/>
  <anchor x="136" y="0" name="bottom"/>
  <anchor x="144" y="543" name="top"/>
  <anchor x="266" y="543" name="topright"/>
  <outline>
    <contour>
      <point x="14" y="0" type="line"/>
      <point x="118" y="0" type="line"/>
      <point x="118" y="288" type="line" smooth="yes"/>
      <point x="118" y="402"/>
      <point x="119" y="456"/>
      <point x="141" y="456" type="curve" smooth="yes"/>
      <point x="153" y="456"/>
      <point x="156" y="420"/>
      <point x="156" y="340" type="curve" smooth="yes"/>
      <point x="156" y="0" type="line"/>
      <point x="259" y="0" type="line"/>
      <point x="259" y="355" type="line" smooth="yes"/>
      <point x="259" y="493"/>
      <point x="228" y="554"/>
      <point x="175" y="554" type="curve" smooth="yes"/>
      <point x="154" y="554"/>
      <point x="133" y="526"/>
      <point x="116" y="475" type="curve"/>
      <point x="112" y="475" type="line"/>
      <point x="100" y="543" type="line"/>
      <point x="14" y="543" type="line"/>
    </contour>
  </outline>
</glyph>
<glyph name="o" format="2">
  <advance width="300"/>
  <unicode hex="006F"/>
  <anchor x="135" y="0" name="bottom"/>
  <anchor x="135" y="272" name="center"/>
  <anchor x="136" y="10" name="ogonek"/>
  <anchor x="135" y="543" name="top"/>
  <anchor x="264" y="543" name="topright"/>
  <outline>
    <contour>
      <point x="135" y="-10" type="curve" smooth="yes"/>
      <point x="231" y="-10"/>
      <point x="262" y="111"/>
      <point x="262" y="273" type="curve" smooth="yes"/>
      <point x="262" y="452"/>
      <point x="203" y="554"/>
      <point x="133" y="554" type="curve" smooth="yes"/>
      <point x="48" y="554"/>
      <point x="7" y="442"/>
      <point x="7" y="274" type="curve" smooth="yes"/>
      <point x="7" y="111"/>
      <point x="43" y="-10"/>
    </contour>
    <contour>
      <point x="134" y="90" type="curve" smooth="yes"/>
      <point x="123" y="90"/>
      <point x="116" y="154"/>
      <point x="116" y="273" type="curve" smooth="yes"/>
      <point x="116" y="394"/>
      <point x="121" y="454"/>
      <point x="134" y="454" type="curve" smooth="yes"/>
      <point x="143" y="454"/>
      <point x="154" y="393"/>
      <point x="154" y="273" type="curve" smooth="yes"/>
      <point x="154" y="153"/>
      <point x="147" y="90"/>
    </contour>
  </outline>
</glyph>
<glyph name="p" format="2">
  <advance width="300"/>
  <unicode hex="0070"/>
  <anchor x="147" y="-240" name="bottom"/>
  <anchor x="147" y="543" name="top"/>
  <anchor x="255" y="543" name="topright"/>
  <outline>
    <contour>
      <point x="14" y="-240" type="line"/>
      <point x="116" y="-240" type="line"/>
      <point x="116" y="-38" type="line" smooth="yes"/>
      <point x="116" y="0"/>
      <point x="111" y="45"/>
      <point x="109" y="64" type="curve"/>
      <point x="116" y="64" type="line"/>
      <point x="135" y="21"/>
      <point x="155" y="-10"/>
      <point x="175" y="-10" type="curve" smooth="yes"/>
      <point x="220" y="-10"/>
      <point x="263" y="93"/>
      <point x="263" y="273" type="curve" smooth="yes"/>
      <point x="263" y="441"/>
      <point x="233" y="554"/>
      <point x="176" y="554" type="curve" smooth="yes"/>
      <point x="150" y="554"/>
      <point x="129" y="520"/>
      <point x="115" y="468" type="curve"/>
      <point x="109" y="468" type="line"/>
      <point x="94" y="543" type="line"/>
      <point x="14" y="543" type="line"/>
    </contour>
    <contour>
      <point x="141" y="92" type="curve" smooth="yes"/>
      <point x="119" y="92"/>
      <point x="116" y="148"/>
      <point x="116" y="272" type="curve" smooth="yes"/>
      <point x="116" y="290" type="line" smooth="yes"/>
      <point x="116" y="399"/>
      <point x="123" y="453"/>
      <point x="137" y="453" type="curve" smooth="yes"/>
      <point x="152" y="453"/>
      <point x="155" y="394"/>
      <point x="155" y="273" type="curve" smooth="yes"/>
      <point x="155" y="155"/>
      <point x="156" y="92"/>
    </contour>
  </outline>
</glyph>
<glyph name="q" format="2">
  <advance width="300"/>
  <unicode hex="0071"/>
  <anchor x="125" y="-240" name="bottom"/>
  <anchor x="125" y="543" name="top"/>
  <anchor x="254" y="543" name="topright"/>
  <outline>
    <contour>
      <point x="155" y="-240" type="line"/>
      <point x="257" y="-240" type="line"/>
      <point x="257" y="543" type="line"/>
      <point x="171" y="543" type="line"/>
      <point x="160" y="471" type="line"/>
      <point x="156" y="471" type="line"/>
      <point x="136" y="524"/>
      <point x="116" y="554"/>
      <point x="101" y="554" type="curve" smooth="yes"/>
      <point x="53" y="554"/>
      <point x="7" y="450"/>
      <point x="7" y="269" type="curve" smooth="yes"/>
      <point x="7" y="103"/>
      <point x="39" y="-10"/>
      <point x="100" y="-10" type="curve" smooth="yes"/>
      <point x="121" y="-10"/>
      <point x="143" y="23"/>
      <point x="157" y="75" type="curve"/>
      <point x="162" y="75" type="line"/>
      <point x="160" y="45"/>
      <point x="155" y="10"/>
      <point x="155" y="-28" type="curve" smooth="yes"/>
    </contour>
    <contour>
      <point x="141" y="92" type="curve" smooth="yes"/>
      <point x="122" y="92"/>
      <point x="118" y="149"/>
      <point x="118" y="270" type="curve" smooth="yes"/>
      <point x="118" y="388"/>
      <point x="122" y="453"/>
      <point x="139" y="453" type="curve" smooth="yes"/>
      <point x="158" y="453"/>
      <point x="158" y="388"/>
      <point x="158" y="272" type="curve" smooth="yes"/>
      <point x="158" y="253" type="line" smooth="yes"/>
      <point x="158" y="149"/>
      <point x="157" y="92"/>
    </contour>
  </outline>
</glyph>
<glyph name="r" format="2">
  <advance width="300"/>
  <unicode hex="0072"/>
  <anchor x="107" y="0" name="bottom"/>
  <anchor x="139" y="543" name="top"/>
  <anchor x="255" y="543" name="topright"/>
  <outline>
    <contour>
      <point x="8" y="0" type="line"/>
      <point x="210" y="0" type="line"/>
      <point x="210" y="83" type="line"/>
      <point x="152" y="97" type="line"/>
      <point x="152" y="273" type="line" smooth="yes"/>
      <point x="152" y="368"/>
      <point x="169" y="434"/>
      <point x="199" y="434" type="curve" smooth="yes"/>
      <point x="210" y="434"/>
      <point x="225" y="430"/>
      <point x="236" y="420" type="curve"/>
      <point x="264" y="536" type="line"/>
      <point x="242" y="549"/>
      <point x="226" y="554"/>
      <point x="216" y="554" type="curve" smooth="yes"/>
      <point x="180" y="554"/>
      <point x="156" y="511"/>
      <point x="144" y="450" type="curve"/>
      <point x="138" y="450" type="line"/>
      <point x="129" y="543" type="line"/>
      <point x="9" y="543" type="line"/>
      <point x="9" y="456" type="line"/>
      <point x="53" y="445" type="line"/>
      <point x="53" y="97" type="line"/>
      <point x="8" y="83" type="line"/>
    </contour>
  </outline>
</glyph>
<glyph name="s" format="2">
  <advance width="300"/>
  <unicode hex="0073"/>
  <anchor x="141" y="0" name="bottom"/>
  <anchor x="141" y="543" name="top"/>
  <anchor x="253" y="543" name="topright"/>
  <outline>
    <contour>
      <point x="117" y="-10" type="curve" smooth="yes"/>
      <point x="209" y="-10"/>
      <point x="252" y="47"/>
      <point x="252" y="154" type="curve" smooth="yes"/>
      <point x="252" y="241"/>
      <point x="239" y="270"/>
      <point x="183" y="318" type="curve" smooth="yes"/>
      <point x="141" y="353"/>
      <point x="130" y="370"/>
      <point x="130" y="405" type="curve" smooth="yes"/>
      <point x="130" y="436"/>
      <point x="132" y="456"/>
      <point x="151" y="456" type="curve" smooth="yes"/>
      <point x="168" y="456"/>
      <point x="187" y="448"/>
      <point x="221" y="425" type="curve"/>
      <point x="253" y="516" type="line"/>
      <point x="213" y="543"/>
      <point x="181" y="554"/>
      <point x="145" y="554" type="curve" smooth="yes"/>
      <point x="65" y="554"/>
      <point x="23" y="500"/>
      <point x="23" y="402" type="curve" smooth="yes"/>
      <point x="23" y="324"/>
      <point x="47" y="281"/>
      <point x="94" y="240" type="curve" smooth="yes"/>
      <point x="145" y="195"/>
      <point x="146" y="183"/>
      <point x="146" y="149" type="curve" smooth="yes"/>
      <point x="146" y="114"/>
      <point x="146" y="89"/>
      <point x="123" y="89" type="curve" smooth="yes"/>
      <point x="91" y="89"/>
      <point x="49" y="106"/>
      <point x="25" y="130" type="curve"/>
      <point x="25" y="23" type="line"/>
      <point x="53" y="2"/>
      <point x="82" y="-10"/>
    </contour>
  </outline>
</glyph>
<glyph name="t" format="2">
  <advance width="300"/>
  <unicode hex="0074"/>
  <anchor x="163" y="0" name="bottom"/>
  <anchor x="112" y="289" name="center"/>
  <anchor x="134" y="679" name="top"/>
  <anchor x="256" y="679" name="topright"/>
  <outline>
    <contour>
      <point x="167" y="-10" type="curve" smooth="yes"/>
      <point x="195" y="-10"/>
      <point x="236" y="-2"/>
      <point x="264" y="11" type="curve"/>
      <point x="264" y="110" type="line"/>
      <point x="234" y="97"/>
      <point x="211" y="93"/>
      <point x="200" y="93" type="curve" smooth="yes"/>
      <point x="189" y="93"/>
      <point x="164" y="115"/>
      <point x="164" y="187" type="curve" smooth="yes"/>
      <point x="164" y="444" type="line"/>
      <point x="266" y="444" type="line"/>
      <point x="266" y="543" type="line"/>
      <point x="165" y="543" type="line"/>
      <point x="165" y="679" type="line"/>
      <point x="101" y="679" type="line"/>
      <point x="67" y="545" type="line"/>
      <point x="-3" y="505" type="line"/>
      <point x="-3" y="444" type="line"/>
      <point x="60" y="444" type="line"/>
      <point x="60" y="166" type="line" smooth="yes"/>
      <point x="60" y="40"/>
      <point x="113" y="-10"/>
    </contour>
  </outline>
</glyph>
<glyph name="u" format="2">
  <advance width="300"/>
  <unicode hex="0075"/>
  <anchor x="135" y="0" name="bottom"/>
  <anchor x="240" y="10" name="ogonek"/>
  <anchor x="135" y="543" name="top"/>
  <anchor x="256" y="543" name="topright"/>
  <outline>
    <contour>
      <point x="93" y="-10" type="curve" smooth="yes"/>
      <point x="113" y="-10"/>
      <point x="135" y="18"/>
      <point x="152" y="72" type="curve"/>
      <point x="157" y="72" type="line"/>
      <point x="171" y="0" type="line"/>
      <point x="257" y="0" type="line"/>
      <point x="257" y="543" type="line"/>
      <point x="153" y="543" type="line"/>
      <point x="153" y="266" type="line" smooth="yes"/>
      <point x="153" y="147"/>
      <point x="156" y="91"/>
      <point x="136" y="91" type="curve" smooth="yes"/>
      <point x="117" y="91"/>
      <point x="116" y="126"/>
      <point x="116" y="213" type="curve" smooth="yes"/>
      <point x="116" y="543" type="line"/>
      <point x="11" y="543" type="line"/>
      <point x="11" y="183" type="line" smooth="yes"/>
      <point x="11" y="52"/>
      <point x="44" y="-10"/>
    </contour>
  </outline>
</glyph>
<glyph name="v" format="2">
  <advance width="300"/>
  <unicode hex="0076"/>
  <anchor x="135" y="0" name="bottom"/>
  <anchor x="135" y="543" name="top"/>
  <anchor x="255" y="543" name="topright"/>
  <outline>
    <contour>
      <point x="69" y="0" type="line"/>
      <point x="196" y="0" type="line"/>
      <point x="276" y="543" type="line"/>
      <point x="167" y="543" type="line"/>
      <point x="147" y="230" type="line" smooth="yes"/>
      <point x="145" y="186"/>
      <point x="139" y="141"/>
      <point x="136" y="100" type="curve"/>
      <point x="135" y="100" type="line"/>
      <point x="132" y="141"/>
      <point x="126" y="186"/>
      <point x="123" y="231" type="curve" smooth="yes"/>
      <point x="101" y="543" type="line"/>
      <point x="-6" y="543" type="line"/>
    </contour>
  </outline>
</glyph>
<glyph name="w" format="2">
  <advance width="300"/>
  <unicode hex="0077"/>
  <anchor x="134" y="0" name="bottom"/>
  <anchor x="134" y="542" name="top"/>
  <anchor x="267" y="542" name="topright"/>
  <outline>
    <contour>
      <point x="25" y="0" type="line"/>
      <point x="120" y="0" type="line"/>
      <point x="124" y="186" type="line" smooth="yes"/>
      <point x="125" y="236"/>
      <point x="130" y="294"/>
      <point x="132" y="343" type="curve"/>
      <point x="134" y="343" type="line"/>
      <point x="136" y="293"/>
      <point x="139" y="238"/>
      <point x="140" y="187" type="curve" smooth="yes"/>
      <point x="143" y="0" type="line"/>
      <point x="242" y="0" type="line"/>
      <point x="264" y="542" type="line"/>
      <point x="185" y="542" type="line"/>
      <point x="191" y="268" type="line" smooth="yes"/>
      <point x="192" y="217"/>
      <point x="191" y="143"/>
      <point x="192" y="107" type="curve"/>
      <point x="190" y="107" type="line"/>
      <point x="188" y="142"/>
      <point x="184" y="208"/>
      <point x="182" y="250" type="curve" smooth="yes"/>
      <point x="170" y="456" type="line"/>
      <point x="97" y="456" type="line"/>
      <point x="84" y="250" type="line" smooth="yes"/>
      <point x="81" y="209"/>
      <point x="79" y="142"/>
      <point x="78" y="108" type="curve"/>
      <point x="76" y="108" type="line"/>
      <point x="76" y="145"/>
      <point x="76" y="221"/>
      <point x="77" y="270" type="curve" smooth="yes"/>
      <point x="83" y="542" type="line"/>
      <point x="5" y="542" type="line"/>
    </contour>
  </outline>
</glyph>
<glyph name="x" format="2">
  <advance width="300"/>
  <unicode hex="0078"/>
  <anchor x="136" y="0" name="bottom"/>
  <anchor x="136" y="543" name="top"/>
  <anchor x="254" y="543" name="topright"/>
  <outline>
    <contour>
      <point x="-1" y="0" type="line"/>
      <point x="105" y="0" type="line"/>
      <point x="134" y="196" type="line"/>
      <point x="161" y="0" type="line"/>
      <point x="271" y="0" type="line"/>
      <point x="194" y="276" type="line"/>
      <point x="268" y="543" type="line"/>
      <point x="162" y="543" type="line"/>
      <point x="135" y="359" type="line"/>
      <point x="109" y="543" type="line"/>
      <point x="1" y="543" type="line"/>
      <point x="75" y="277" type="line"/>
    </contour>
  </outline>
</glyph>
<glyph name="y" format="2">
  <advance width="300"/>
  <unicode hex="0079"/>
  <anchor x="139" y="-245" name="bottom"/>
  <anchor x="139" y="543" name="top"/>
  <anchor x="259" y="543" name="topright"/>
  <outline>
    <contour>
      <point x="54" y="-245" type="curve" smooth="yes"/>
      <point x="126" y="-245"/>
      <point x="174" y="-184"/>
      <point x="192" y="-58" type="curve" smooth="yes"/>
      <point x="281" y="543" type="line"/>
      <point x="166" y="543" type="line"/>
      <point x="152" y="259" type="line" smooth="yes"/>
      <point x="150" y="217"/>
      <point x="144" y="171"/>
      <point x="144" y="138" type="curve"/>
      <point x="141" y="138" type="line"/>
      <point x="139" y="173"/>
      <point x="134" y="212"/>
      <point x="130" y="258" type="curve" smooth="yes"/>
      <point x="108" y="543" type="line"/>
      <point x="-6" y="543" type="line"/>
      <point x="96" y="-3" type="line"/>
      <point x="95" y="-48" type="line" smooth="yes"/>
      <point x="93" y="-131"/>
      <point x="59" y="-148"/>
      <point x="37" y="-148" type="curve" smooth="yes"/>
      <point x="29" y="-148"/>
      <point x="19" y="-146"/>
      <point x="11" y="-142" type="curve"/>
      <point x="11" y="-237" type="line"/>
      <point x="24" y="-242"/>
      <point x="40" y="-245"/>
    </contour>
  </outline>
</glyph>
<glyph name="z" format="2">
  <advance width="300"/>
  <unicode hex="007A"/>
  <anchor x="131" y="0" name="bottom"/>
  <anchor x="131" y="543" name="top"/>
  <anchor x="255" y="543" name="topright"/>
  <outline>
    <contour>
      <point x="17" y="0" type="line"/>
      <point x="254" y="0" type="line"/>
      <point x="254" y="100" type="line"/>
      <point x="145" y="100" type="line"/>
      <point x="244" y="455" type="line"/>
      <point x="244" y="543" type="line"/>
      <point x="18" y="543" type="line"/>
      <point x="18" y="445" type="line"/>
      <point x="125" y="445" type="line"/>
      <point x="17" y="77" type="line"/>
    </contour>
  </outline>
</glyph>
<glyph name="braceleft" format="2">
  <advance width="300"/>
  <unicode hex="007B"/>
  <outline>
    <contour>
      <point x="220" y="-164" type="curve" smooth="yes"/>
      <point x="220" y="-76" type="line" smooth="yes"/>
      <point x="220" y="-74"/>
      <point x="187" y="-52"/>
      <point x="187" y="5" type="curve"/>
      <point x="187" y="153" type="line"/>
      <point x="187" y="223"/>
      <point x="134" y="263"/>
      <point x="134" y="276" type="curve" smooth="yes"/>
      <point x="134" y="281" type="line" smooth="yes"/>
      <point x="134" y="292"/>
      <point x="187" y="331"/>
      <point x="187" y="405" type="curve"/>
      <point x="187" y="552" type="line"/>
      <point x="187" y="613"/>
      <point x="220" y="630"/>
      <point x="220" y="632" type="curve" smooth="yes"/>
      <point x="220" y="720" type="line" smooth="yes"/>
      <point x="220" y="718"/>
      <point x="93" y="670"/>
      <point x="93" y="559" type="curve"/>
      <point x="93" y="414" type="line"/>
      <point x="93" y="347"/>
      <point x="43" y="320"/>
      <point x="43" y="320" type="curve" smooth="yes"/>
      <point x="43" y="236" type="line" smooth="yes"/>
      <point x="43" y="236"/>
      <point x="93" y="204"/>
      <point x="93" y="142" type="curve"/>
      <point x="93" y="-2" type="line"/>
      <point x="93" y="-121"/>
      <point x="220" y="-162"/>
    </contour>
  </outline>
</glyph>
<glyph name="asciitilde" format="2">
  <advance width="300"/>
  <unicode hex="007E"/>
  <outline>
    <contour>
      <point x="27" y="278" type="line"/>
      <point x="44" y="316"/>
      <point x="61" y="337"/>
      <point x="75" y="337" type="curve" smooth="yes"/>
      <point x="84" y="337"/>
      <point x="105" y="327"/>
      <point x="123" y="310" type="curve" smooth="yes"/>
      <point x="144" y="290"/>
      <point x="164" y="280"/>
      <point x="186" y="280" type="curve" smooth="yes"/>
      <point x="207" y="280"/>
      <point x="225" y="298"/>
      <point x="243" y="331" type="curve"/>
      <point x="243" y="427" type="line"/>
      <point x="228" y="391"/>
      <point x="208" y="369"/>
      <point x="194" y="369" type="curve" smooth="yes"/>
      <point x="181" y="369"/>
      <point x="164" y="377"/>
      <point x="142" y="396" type="curve" smooth="yes"/>
      <point x="121" y="414"/>
      <point x="101" y="426"/>
      <point x="83" y="426" type="curve" smooth="yes"/>
      <point x="60" y="426"/>
      <point x="42" y="408"/>
      <point x="27" y="375" type="curve"/>
    </contour>
  </outline>
</glyph>
<glyph name="cent" format="2">
  <advance width="300"/>
  <unicode hex="00A2"/>
  <outline>
    <contour>
      <point x="127" y="-10" type="line"/>
      <point x="181" y="-10" type="line"/>
      <point x="181" y="86" type="line"/>
      <point x="198" y="90"/>
      <point x="218" y="103"/>
      <point x="232" y="119" type="curve"/>
      <point x="232" y="213" type="line"/>
      <point x="211" y="191"/>
      <point x="188" y="178"/>
      <point x="170" y="178" type="curve" smooth="yes"/>
      <point x="144" y="178"/>
      <point x="133" y="234"/>
      <point x="133" y="363" type="curve" smooth="yes"/>
      <point x="133" y="493"/>
      <point x="144" y="553"/>
      <point x="169" y="553" type="curve" smooth="yes"/>
      <point x="180" y="553"/>
      <point x="198" y="544"/>
      <point x="213" y="527" type="curve"/>
      <point x="240" y="616" type="line"/>
      <point x="224" y="632"/>
      <point x="200" y="642"/>
      <point x="181" y="645" type="curve"/>
      <point x="181" y="724" type="line"/>
      <point x="129" y="724" type="line"/>
      <point x="129" y="643" type="line"/>
      <point x="64" y="627"/>
      <point x="36" y="521"/>
      <point x="36" y="363" type="curve" smooth="yes"/>
      <point x="36" y="201"/>
      <point x="65" y="100"/>
      <point x="127" y="87" type="curve"/>
    </contour>
  </outline>
</glyph>
<glyph name="sterling" format="2">
  <advance width="300"/>
  <unicode hex="00A3"/>
  <outline>
    <contour>
      <point x="48" y="0" type="line"/>
      <point x="251" y="0" type="line"/>
      <point x="251" y="99" type="line"/>
      <point x="139" y="99" type="line"/>
      <point x="161" y="126"/>
      <point x="168" y="168"/>
      <point x="168" y="227" type="curve" smooth="yes"/>
      <point x="168" y="320" type="line"/>
      <point x="223" y="320" type="line"/>
      <point x="223" y="403" type="line"/>
      <point x="168" y="403" type="line"/>
      <point x="168" y="519" type="line" smooth="yes"/>
      <point x="168" y="594"/>
      <point x="181" y="625"/>
      <point x="187" y="625" type="curve" smooth="yes"/>
      <point x="197" y="625"/>
      <point x="213" y="616"/>
      <point x="231" y="594" type="curve"/>
      <point x="258" y="683" type="line"/>
      <point x="231" y="711"/>
      <point x="204" y="724"/>
      <point x="178" y="724" type="curve" smooth="yes"/>
      <point x="110" y="724"/>
      <point x="68" y="657"/>
      <point x="68" y="531" type="curve" smooth="yes"/>
      <point x="68" y="403" type="line"/>
      <point x="42" y="403" type="line"/>
      <point x="42" y="320" type="line"/>
      <point x="68" y="320" type="line"/>
      <point x="68" y="226" type="line" smooth="yes"/>
      <point x="68" y="155"/>
      <point x="62" y="120"/>
      <point x="48" y="94" type="curve"/>
    </contour>
  </outline>
</glyph>
<glyph name="currency" format="2">
  <advance width="300"/>
  <unicode hex="00A4"/>
  <outline>
    <contour>
      <point x="208" y="129" type="line"/>
      <point x="253" y="179" type="line"/>
      <point x="225" y="244" type="line"/>
      <point x="230" y="276"/>
      <point x="236" y="313"/>
      <point x="236" y="353" type="curve" smooth="yes"/>
      <point x="236" y="394"/>
      <point x="231" y="430"/>
      <point x="225" y="462" type="curve"/>
      <point x="255" y="528" type="line"/>
      <point x="208" y="577" type="line"/>
      <point x="179" y="513" type="line"/>
      <point x="166" y="536"/>
      <point x="152" y="547"/>
      <point x="135" y="547" type="curve" smooth="yes"/>
      <point x="119" y="547"/>
      <point x="104" y="536"/>
      <point x="90" y="513" type="curve"/>
      <point x="62" y="577" type="line"/>
      <point x="16" y="527" type="line"/>
      <point x="46" y="461" type="line"/>
      <point x="39" y="427"/>
      <point x="35" y="392"/>
      <point x="35" y="353" type="curve" smooth="yes"/>
      <point x="35" y="313"/>
      <point x="39" y="277"/>
      <point x="46" y="245" type="curve"/>
      <point x="17" y="181" type="line"/>
      <point x="62" y="130" type="line"/>
      <point x="89" y="192" type="line"/>
      <point x="101" y="170"/>
      <point x="116" y="160"/>
      <point x="134" y="160" type="curve" smooth="yes"/>
      <point x="151" y="160"/>
      <point x="164" y="170"/>
      <point x="179" y="192" type="curve"/>
    </contour>
    <contour>
      <point x="135" y="234" type="curve" smooth="yes"/>
      <point x="109" y="234"/>
      <point x="99" y="286"/>
      <point x="99" y="353" type="curve" smooth="yes"/>
      <point x="99" y="421"/>
      <point x="110" y="474"/>
      <point x="135" y="474" type="curve" smooth="yes"/>
      <point x="159" y="474"/>
      <point x="171" y="424"/>
      <point x="171" y="356" type="curve" smooth="yes"/>
      <point x="171" y="287"/>
      <point x="160" y="234"/>
    </contour>
  </outline>
</glyph>
<glyph name="yen" format="2">
  <advance width="300"/>
  <unicode hex="00A5"/>
  <outline>
    <contour>
      <point x="85" y="0" type="line"/>
      <point x="186" y="0" type="line"/>
      <point x="186" y="122" type="line"/>
      <point x="237" y="122" type="line"/>
      <point x="237" y="195" type="line"/>
      <point x="186" y="195" type="line"/>
      <point x="186" y="272" type="line"/>
      <point x="237" y="272" type="line"/>
      <point x="237" y="346" type="line"/>
      <point x="202" y="346" type="line"/>
      <point x="254" y="714" type="line"/>
      <point x="147" y="714" type="line"/>
      <point x="135" y="410" type="line"/>
      <point x="122" y="714" type="line"/>
      <point x="16" y="714" type="line"/>
      <point x="66" y="346" type="line"/>
      <point x="35" y="346" type="line"/>
      <point x="35" y="272" type="line"/>
      <point x="85" y="272" type="line"/>
      <point x="85" y="195" type="line"/>
      <point x="35" y="195" type="line"/>
      <point x="35" y="122" type="line"/>
      <point x="85" y="122" type="line"/>
    </contour>
  </outline>
</glyph>
<glyph name="brokenbar" format="2">
  <advance width="300"/>
  <unicode hex="00A6"/>
  <outline>
    <contour>
      <point x="100" y="367" type="line"/>
      <point x="187" y="367" type="line"/>
      <point x="187" y="759" type="line"/>
      <point x="100" y="759" type="line"/>
    </contour>
    <contour>
      <point x="100" y="-236" type="line"/>
      <point x="187" y="-236" type="line"/>
      <point x="187" y="159" type="line"/>
      <point x="100" y="159" type="line"/>
    </contour>
  </outline>
</glyph>
<glyph name="section" format="2">
  <advance width="300"/>
  <unicode hex="00A7"/>
  <outline>
    <contour>
      <point x="111" y="-9" type="curve" smooth="yes"/>
      <point x="175" y="-9"/>
      <point x="219" y="48"/>
      <point x="219" y="140" type="curve" smooth="yes"/>
      <point x="219" y="184"/>
      <point x="212" y="219"/>
      <point x="197" y="254" type="curve"/>
      <point x="221" y="281"/>
      <point x="231" y="327"/>
      <point x="231" y="385" type="curve" smooth="yes"/>
      <point x="231" y="471"/>
      <point x="204" y="502"/>
      <point x="167" y="545" type="curve" smooth="yes"/>
      <point x="153" y="561"/>
      <point x="137" y="589"/>
      <point x="137" y="632" type="curve" smooth="yes"/>
      <point x="137" y="669"/>
      <point x="142" y="690"/>
      <point x="153" y="690" type="curve" smooth="yes"/>
      <point x="167" y="690"/>
      <point x="181" y="679"/>
      <point x="205" y="657" type="curve"/>
      <point x="230" y="732" type="line"/>
      <point x="200" y="755"/>
      <point x="180" y="766"/>
      <point x="154" y="766" type="curve" smooth="yes"/>
      <point x="99" y="766"/>
      <point x="54" y="717"/>
      <point x="54" y="631" type="curve" smooth="yes"/>
      <point x="54" y="581"/>
      <point x="58" y="542"/>
      <point x="74" y="511" type="curve"/>
      <point x="45" y="484"/>
      <point x="38" y="445"/>
      <point x="38" y="386" type="curve" smooth="yes"/>
      <point x="38" y="314"/>
      <point x="61" y="280"/>
      <point x="108" y="228" type="curve" smooth="yes"/>
      <point x="130" y="203"/>
      <point x="136" y="181"/>
      <point x="136" y="138" type="curve" smooth="yes"/>
      <point x="136" y="90"/>
      <point x="119" y="67"/>
      <point x="113" y="67" type="curve" smooth="yes"/>
      <point x="87" y="67"/>
      <point x="57" y="87"/>
      <point x="37" y="113" type="curve"/>
      <point x="37" y="26" type="line"/>
      <point x="59" y="3"/>
      <point x="82" y="-9"/>
    </contour>
    <contour>
      <point x="150" y="292" type="curve"/>
      <point x="141" y="310" type="line" smooth="yes"/>
      <point x="128" y="336"/>
      <point x="115" y="357"/>
      <point x="115" y="402" type="curve" smooth="yes"/>
      <point x="115" y="436"/>
      <point x="111" y="463"/>
      <point x="120" y="475" type="curve"/>
      <point x="153" y="436"/>
      <point x="154" y="410"/>
      <point x="154" y="368" type="curve" smooth="yes"/>
      <point x="154" y="335"/>
      <point x="158" y="307"/>
    </contour>
  </outline>
</glyph>
<glyph name="dieresis" format="2">
  <advance width="300"/>
  <unicode hex="00A8"/>
  <anchor x="134" y="543" name="_top"/>
  <anchor x="134" y="653" name="top"/>
  <outline>
    <contour>
      <point x="187" y="621" type="curve" smooth="yes"/>
      <point x="213" y="621"/>
      <point x="231" y="643"/>
      <point x="231" y="686" type="curve" smooth="yes"/>
      <point x="231" y="726"/>
      <point x="213" y="748"/>
      <point x="187" y="748" type="curve" smooth="yes"/>
      <point x="163" y="748"/>
      <point x="145" y="727"/>
      <point x="145" y="686" type="curve" smooth="yes"/>
      <point x="145" y="644"/>
      <point x="163" y="621"/>
    </contour>
    <contour>
      <point x="81" y="621" type="curve" smooth="yes"/>
      <point x="105" y="621"/>
      <point x="124" y="643"/>
      <point x="124" y="686" type="curve" smooth="yes"/>
      <point x="124" y="726"/>
      <point x="105" y="748"/>
      <point x="81" y="748" type="curve" smooth="yes"/>
      <point x="57" y="748"/>
      <point x="38" y="727"/>
      <point x="38" y="686" type="curve" smooth="yes"/>
      <point x="38" y="643"/>
      <point x="57" y="621"/>
    </contour>
  </outline>
</glyph>
<glyph name="copyright" format="2">
  <advance width="300"/>
  <unicode hex="00A9"/>
  <outline>
    <contour>
      <point x="137" y="129" type="curve" smooth="yes"/>
      <point x="208" y="129"/>
      <point x="263" y="220"/>
      <point x="263" y="360" type="curve" smooth="yes"/>
      <point x="263" y="497"/>
      <point x="209" y="591"/>
      <point x="136" y="591" type="curve" smooth="yes"/>
      <point x="63" y="591"/>
      <point x="8" y="500"/>
      <point x="8" y="360" type="curve" smooth="yes"/>
      <point x="8" y="225"/>
      <point x="57" y="129"/>
    </contour>
    <contour>
      <point x="138" y="216" type="curve" smooth="yes"/>
      <point x="152" y="216"/>
      <point x="166" y="222"/>
      <point x="179" y="233" type="curve"/>
      <point x="179" y="287" type="line"/>
      <point x="168" y="277"/>
      <point x="153" y="270"/>
      <point x="138" y="270" type="curve" smooth="yes"/>
      <point x="125" y="270"/>
      <point x="122" y="301"/>
      <point x="122" y="358" type="curve" smooth="yes"/>
      <point x="122" y="416"/>
      <point x="129" y="447"/>
      <point x="137" y="447" type="curve" smooth="yes"/>
      <point x="146" y="447"/>
      <point x="157" y="443"/>
      <point x="167" y="432" type="curve"/>
      <point x="186" y="482" type="line"/>
      <point x="169" y="495"/>
      <point x="150" y="502"/>
      <point x="133" y="502" type="curve" smooth="yes"/>
      <point x="94" y="502"/>
      <point x="71" y="445"/>
      <point x="71" y="359" type="curve" smooth="yes"/>
      <point x="71" y="271"/>
      <point x="92" y="216"/>
    </contour>
    <contour>
      <point x="136" y="178" type="curve" smooth="yes"/>
      <point x="90" y="178"/>
      <point x="50" y="247"/>
      <point x="50" y="360" type="curve" smooth="yes"/>
      <point x="50" y="471"/>
      <point x="84" y="541"/>
      <point x="135" y="541" type="curve" smooth="yes"/>
      <point x="182" y="541"/>
      <point x="220" y="471"/>
      <point x="220" y="359" type="curve" smooth="yes"/>
      <point x="220" y="248"/>
      <point x="186" y="178"/>
    </contour>
  </outline>
</glyph>
<glyph name="ordfeminine" format="2">
  <advance width="300"/>
  <unicode hex="00AA"/>
  <outline>
    <contour>
      <point x="106" y="373" type="curve" smooth="yes"/>
      <point x="130" y="373"/>
      <point x="142" y="394"/>
      <point x="153" y="430" type="curve"/>
      <point x="166" y="379" type="line"/>
      <point x="213" y="379" type="line"/>
      <point x="213" y="600" type="line" smooth="yes"/>
      <point x="213" y="681"/>
      <point x="185" y="723"/>
      <point x="136" y="723" type="curve" smooth="yes"/>
      <point x="113" y="723"/>
      <point x="89" y="713"/>
      <point x="64" y="692" type="curve"/>
      <point x="84" y="634" type="line"/>
      <point x="100" y="649"/>
      <point x="115" y="659"/>
      <point x="128" y="659" type="curve" smooth="yes"/>
      <point x="141" y="659"/>
      <point x="142" y="643"/>
      <point x="144" y="607" type="curve" smooth="yes"/>
      <point x="145" y="591" type="line"/>
      <point x="128" y="589" type="line" smooth="yes"/>
      <point x="93" y="585"/>
      <point x="55" y="556"/>
      <point x="55" y="476" type="curve" smooth="yes"/>
      <point x="55" y="412"/>
      <point x="74" y="373"/>
    </contour>
    <contour>
      <point x="130" y="439" type="curve" smooth="yes"/>
      <point x="126" y="439"/>
      <point x="125" y="453"/>
      <point x="125" y="482" type="curve" smooth="yes"/>
      <point x="125" y="518"/>
      <point x="127" y="531"/>
      <point x="135" y="534" type="curve" smooth="yes"/>
      <point x="145" y="538" type="line"/>
      <point x="145" y="517" type="line" smooth="yes"/>
      <point x="145" y="470"/>
      <point x="139" y="439"/>
    </contour>
  </outline>
</glyph>
<glyph name="guillemotleft" format="2">
  <advance width="300"/>
  <unicode hex="00AB"/>
  <outline>
    <contour>
      <point x="203" y="50" type="line"/>
      <point x="274" y="91" type="line"/>
      <point x="231" y="264" type="line"/>
      <point x="274" y="438" type="line"/>
      <point x="203" y="478" type="line"/>
      <point x="125" y="271" type="line"/>
      <point x="125" y="257" type="line"/>
    </contour>
    <contour>
      <point x="75" y="50" type="line"/>
      <point x="146" y="91" type="line"/>
      <point x="103" y="264" type="line"/>
      <point x="147" y="438" type="line"/>
      <point x="75" y="478" type="line"/>
      <point x="-3" y="271" type="line"/>
      <point x="-3" y="257" type="line"/>
    </contour>
  </outline>
</glyph>
<glyph name="logicalnot" format="2">
  <advance width="300"/>
  <unicode hex="00AC"/>
  <outline>
    <contour>
      <point x="165" y="119" type="line"/>
      <point x="245" y="119" type="line"/>
      <point x="245" y="397" type="line"/>
      <point x="37" y="397" type="line"/>
      <point x="37" y="309" type="line"/>
      <point x="165" y="309" type="line"/>
    </contour>
  </outline>
</glyph>
<glyph name="registered" format="2">
  <advance width="300"/>
  <unicode hex="00AE"/>
  <outline>
    <contour>
      <point x="136" y="129" type="curve" smooth="yes"/>
      <point x="208" y="129"/>
      <point x="262" y="219"/>
      <point x="262" y="359" type="curve" smooth="yes"/>
      <point x="262" y="496"/>
      <point x="209" y="589"/>
      <point x="136" y="589" type="curve" smooth="yes"/>
      <point x="65" y="589"/>
      <point x="10" y="499"/>
      <point x="10" y="359" type="curve" smooth="yes"/>
      <point x="10" y="225"/>
      <point x="59" y="129"/>
    </contour>
    <contour>
      <point x="136" y="178" type="curve" smooth="yes"/>
      <point x="91" y="178"/>
      <point x="53" y="247"/>
      <point x="53" y="359" type="curve" smooth="yes"/>
      <point x="53" y="469"/>
      <point x="85" y="539"/>
      <point x="134" y="539" type="curve" smooth="yes"/>
      <point x="182" y="539"/>
      <point x="219" y="469"/>
      <point x="219" y="359" type="curve" smooth="yes"/>
      <point x="219" y="248"/>
      <point x="186" y="178"/>
    </contour>
    <contour>
      <point x="80" y="227" type="line"/>
      <point x="123" y="227" type="line"/>
      <point x="123" y="326" type="line"/>
      <point x="126" y="326" type="line"/>
      <point x="147" y="227" type="line"/>
      <point x="195" y="227" type="line"/>
      <point x="163" y="337" type="line"/>
      <point x="174" y="350"/>
      <point x="180" y="374"/>
      <point x="180" y="414" type="curve" smooth="yes"/>
      <point x="180" y="467"/>
      <point x="165" y="495"/>
      <point x="123" y="495" type="curve" smooth="yes"/>
      <point x="80" y="495" type="line"/>
    </contour>
    <contour>
      <point x="124" y="370" type="line"/>
      <point x="124" y="449" type="line"/>
      <point x="121" y="449" type="line" smooth="yes"/>
      <point x="134" y="449"/>
      <point x="137" y="437"/>
      <point x="137" y="412" type="curve" smooth="yes"/>
      <point x="137" y="383"/>
      <point x="132" y="370"/>
      <point x="122" y="370" type="curve" smooth="yes"/>
    </contour>
  </outline>
</glyph>
<glyph name="overscore" format="2">
  <advance width="300"/>
  <unicode hex="00AF"/>
  <outline>
    <contour>
      <point x="52" y="636" type="line"/>
      <point x="206" y="636" type="line"/>
      <point x="206" y="715" type="line"/>
      <point x="52" y="715" type="line"/>
    </contour>
  </outline>
</glyph>
<glyph name="degree" format="2">
  <advance width="300"/>
  <unicode hex="00B0"/>
  <outline>
    <contour>
      <point x="134" y="442" type="curve" smooth="yes"/>
      <point x="176" y="442"/>
      <point x="214" y="495"/>
      <point x="214" y="581" type="curve" smooth="yes"/>
      <point x="214" y="669"/>
      <point x="179" y="724"/>
      <point x="135" y="724" type="curve" smooth="yes"/>
      <point x="91" y="724"/>
      <point x="56" y="670"/>
      <point x="56" y="582" type="curve" smooth="yes"/>
      <point x="56" y="496"/>
      <point x="89" y="442"/>
    </contour>
    <contour>
      <point x="135" y="506" type="curve" smooth="yes"/>
      <point x="122" y="506"/>
      <point x="113" y="535"/>
      <point x="113" y="582" type="curve" smooth="yes"/>
      <point x="113" y="628"/>
      <point x="121" y="658"/>
      <point x="135" y="658" type="curve" smooth="yes"/>
      <point x="145" y="658"/>
      <point x="157" y="629"/>
      <point x="157" y="582" type="curve" smooth="yes"/>
      <point x="157" y="536"/>
      <point x="146" y="506"/>
    </contour>
  </outline>
</glyph>
<glyph name="plusminus" format="2">
  <advance width="300"/>
  <unicode hex="00B1"/>
  <outline>
    <contour>
      <point x="97" y="149" type="line"/>
      <point x="178" y="149" type="line"/>
      <point x="178" y="340" type="line"/>
      <point x="241" y="340" type="line"/>
      <point x="241" y="430" type="line"/>
      <point x="178" y="430" type="line"/>
      <point x="178" y="624" type="line"/>
      <point x="97" y="624" type="line"/>
      <point x="97" y="430" type="line"/>
      <point x="34" y="430" type="line"/>
      <point x="34" y="340" type="line"/>
      <point x="97" y="340" type="line"/>
    </contour>
    <contour>
      <point x="34" y="0" type="line"/>
      <point x="244" y="0" type="line"/>
      <point x="244" y="89" type="line"/>
      <point x="34" y="89" type="line"/>
    </contour>
  </outline>
</glyph>
<glyph name="twosuperior" format="2">
  <advance width="300"/>
  <unicode hex="00B2"/>
  <outline>
    <contour>
      <point x="69" y="415" type="line"/>
      <point x="220" y="415" type="line"/>
      <point x="220" y="487" type="line"/>
      <point x="147" y="487" type="line"/>
      <point x="150" y="524" type="line" smooth="yes"/>
      <point x="159" y="629"/>
      <point x="216" y="666"/>
      <point x="216" y="737" type="curve" smooth="yes"/>
      <point x="216" y="808"/>
      <point x="187" y="854"/>
      <point x="141" y="854" type="curve" smooth="yes"/>
      <point x="101" y="854"/>
      <point x="72" y="828"/>
      <point x="62" y="795" type="curve"/>
      <point x="95" y="739" type="line"/>
      <point x="107" y="769"/>
      <point x="118" y="782"/>
      <point x="130" y="782" type="curve" smooth="yes"/>
      <point x="137" y="782"/>
      <point x="142" y="761"/>
      <point x="142" y="731" type="curve" smooth="yes"/>
      <point x="142" y="689"/>
      <point x="137" y="657"/>
      <point x="110" y="590" type="curve" smooth="yes"/>
      <point x="68" y="486" type="line"/>
    </contour>
  </outline>
</glyph>
<glyph name="threesuperior" format="2">
  <advance width="300"/>
  <unicode hex="00B3"/>
  <outline>
    <contour>
      <point x="134" y="407" type="curve" smooth="yes"/>
      <point x="183" y="407"/>
      <point x="221" y="453"/>
      <point x="221" y="532" type="curve" smooth="yes"/>
      <point x="221" y="589"/>
      <point x="203" y="623"/>
      <point x="177" y="638" type="curve"/>
      <point x="177" y="642" type="line"/>
      <point x="204" y="660"/>
      <point x="214" y="697"/>
      <point x="214" y="744" type="curve" smooth="yes"/>
      <point x="214" y="813"/>
      <point x="182" y="853"/>
      <point x="140" y="853" type="curve" smooth="yes"/>
      <point x="112" y="853"/>
      <point x="89" y="836"/>
      <point x="65" y="802" type="curve"/>
      <point x="97" y="745" type="line"/>
      <point x="110" y="771"/>
      <point x="119" y="781"/>
      <point x="129" y="781" type="curve" smooth="yes"/>
      <point x="142" y="781"/>
      <point x="147" y="762"/>
      <point x="147" y="728" type="curve" smooth="yes"/>
      <point x="147" y="691"/>
      <point x="138" y="667"/>
      <point x="118" y="667" type="curve" smooth="yes"/>
      <point x="104" y="667" type="line"/>
      <point x="104" y="601" type="line"/>
      <point x="123" y="601" type="line" smooth="yes"/>
      <point x="142" y="601"/>
      <point x="151" y="580"/>
      <point x="151" y="539" type="curve" smooth="yes"/>
      <point x="151" y="504"/>
      <point x="149" y="482"/>
      <point x="131" y="482" type="curve" smooth="yes"/>
      <point x="109" y="482"/>
      <point x="88" y="493"/>
      <point x="71" y="515" type="curve"/>
      <point x="71" y="435" type="line"/>
      <point x="90" y="417"/>
      <point x="110" y="407"/>
    </contour>
  </outline>
</glyph>
<glyph name="acute" format="2">
  <advance width="300"/>
  <unicode hex="00B4"/>
  <outline>
    <contour>
      <point x="76" y="606" type="line"/>
      <point x="144" y="606" type="line"/>
      <point x="166" y="646"/>
      <point x="204" y="717"/>
      <point x="215" y="757" type="curve"/>
      <point x="215" y="766" type="line"/>
      <point x="103" y="766" type="line"/>
      <point x="97" y="721"/>
      <point x="90" y="672"/>
      <point x="76" y="618" type="curve"/>
    </contour>
  </outline>
</glyph>
<glyph name="micro" format="2">
  <advance width="300"/>
  <unicode hex="00B5"/>
  <anchor x="141" y="543" name="top"/>
  <anchor x="246" y="10" name="ogonek"/>
  <anchor x="262" y="543" name="topright"/>
  <anchor x="141" y="0" name="bottom"/>
  <outline>
    <contour>
      <point x="11" y="-240" type="line"/>
      <point x="113" y="-240" type="line"/>
      <point x="113" y="227" type="line"/>
      <point x="11" y="227" type="line"/>
    </contour>
    <component base="u" xOffset="6"/>
  </outline>
</glyph>
<glyph name="paragraph" format="2">
  <advance width="300"/>
  <unicode hex="00B6"/>
  <outline>
    <contour>
      <point x="119" y="-127" type="line"/>
      <point x="173" y="-127" type="line"/>
      <point x="173" y="697" type="line"/>
      <point x="185" y="697" type="line"/>
      <point x="185" y="-127" type="line"/>
      <point x="239" y="-127" type="line"/>
      <point x="239" y="760" type="line"/>
      <point x="108" y="760" type="line" smooth="yes"/>
      <point x="49" y="760"/>
      <point x="24" y="675"/>
      <point x="24" y="511" type="curve" smooth="yes"/>
      <point x="24" y="348"/>
      <point x="48" y="268"/>
      <point x="98" y="268" type="curve" smooth="yes"/>
      <point x="107" y="268"/>
      <point x="114" y="271"/>
      <point x="119" y="277" type="curve"/>
    </contour>
  </outline>
</glyph>
<glyph name="cedilla" format="2">
  <advance width="300"/>
  <unicode hex="00B8"/>
  <outline>
    <contour>
      <point x="120" y="-240" type="curve" smooth="yes"/>
      <point x="168" y="-240"/>
      <point x="191" y="-201"/>
      <point x="191" y="-138" type="curve" smooth="yes"/>
      <point x="191" y="-86"/>
      <point x="178" y="-56"/>
      <point x="150" y="-44" type="curve"/>
      <point x="153" y="0" type="line"/>
      <point x="105" y="0" type="line"/>
      <point x="90" y="-81" type="line"/>
      <point x="106" y="-86"/>
      <point x="117" y="-100"/>
      <point x="117" y="-132" type="curve" smooth="yes"/>
      <point x="117" y="-157"/>
      <point x="115" y="-174"/>
      <point x="103" y="-174" type="curve" smooth="yes"/>
      <point x="97" y="-174"/>
      <point x="89" y="-172"/>
      <point x="80" y="-168" type="curve"/>
      <point x="80" y="-233" type="line"/>
      <point x="91" y="-238"/>
      <point x="106" y="-240"/>
    </contour>
  </outline>
</glyph>
<glyph name="onesuperior" format="2">
  <advance width="300"/>
  <unicode hex="00B9"/>
  <outline>
    <contour>
      <point x="117" y="415" type="line"/>
      <point x="185" y="415" type="line"/>
      <point x="185" y="843" type="line"/>
      <point x="125" y="843" type="line"/>
      <point x="50" y="751" type="line"/>
      <point x="86" y="693" type="line"/>
      <point x="102" y="728" type="line" smooth="yes"/>
      <point x="105" y="735"/>
      <point x="114" y="746"/>
      <point x="119" y="755" type="curve"/>
      <point x="117" y="721"/>
      <point x="117" y="681"/>
      <point x="117" y="648" type="curve" smooth="yes"/>
    </contour>
    <contour>
      <point x="69" y="415" type="line"/>
      <point x="228" y="415" type="line"/>
      <point x="228" y="474" type="line"/>
      <point x="164" y="481" type="line"/>
      <point x="137" y="481" type="line"/>
      <point x="69" y="474" type="line"/>
    </contour>
  </outline>
</glyph>
<glyph name="ordmasculine" format="2">
  <advance width="300"/>
  <unicode hex="00BA"/>
  <outline>
    <contour>
      <point x="138" y="373" type="curve" smooth="yes"/>
      <point x="188" y="373"/>
      <point x="219" y="439"/>
      <point x="219" y="548" type="curve" smooth="yes"/>
      <point x="219" y="661"/>
      <point x="184" y="722"/>
      <point x="137" y="722" type="curve" smooth="yes"/>
      <point x="87" y="722"/>
      <point x="55" y="657"/>
      <point x="55" y="548" type="curve" smooth="yes"/>
      <point x="55" y="440"/>
      <point x="88" y="373"/>
    </contour>
    <contour>
      <point x="138" y="441" type="curve" smooth="yes"/>
      <point x="131" y="441"/>
      <point x="126" y="475"/>
      <point x="126" y="548" type="curve" smooth="yes"/>
      <point x="126" y="623"/>
      <point x="128" y="655"/>
      <point x="137" y="655" type="curve" smooth="yes"/>
      <point x="146" y="655"/>
      <point x="149" y="622"/>
      <point x="149" y="548" type="curve" smooth="yes"/>
      <point x="149" y="475"/>
      <point x="148" y="441"/>
    </contour>
  </outline>
</glyph>
<glyph name="AE" format="2">
  <advance width="300"/>
  <unicode hex="00C6"/>
  <anchor x="135" y="0" name="bottom"/>
  <anchor x="145" y="714" name="top"/>
  <outline>
    <contour>
      <point x="8" y="0" type="line"/>
      <point x="102" y="0" type="line"/>
      <point x="128" y="613" type="line"/>
      <point x="133" y="613" type="line"/>
      <point x="133" y="0" type="line"/>
      <point x="258" y="0" type="line"/>
      <point x="258" y="106" type="line"/>
      <point x="219" y="106" type="line"/>
      <point x="219" y="318" type="line"/>
      <point x="248" y="318" type="line"/>
      <point x="248" y="424" type="line"/>
      <point x="219" y="424" type="line"/>
      <point x="219" y="608" type="line"/>
      <point x="258" y="608" type="line"/>
      <point x="258" y="714" type="line"/>
      <point x="58" y="714" type="line"/>
    </contour>
    <contour>
      <point x="86" y="194" type="line"/>
      <point x="152" y="194" type="line"/>
      <point x="154" y="297" type="line"/>
      <point x="101" y="297" type="line"/>
    </contour>
  </outline>
</glyph>
<glyph name="Eth" format="2">
  <advance width="300"/>
  <unicode hex="00D0"/>
  <anchor x="135" y="0" name="bottom"/>
  <anchor x="135" y="714" name="top"/>
  <anchor x="275" y="714" name="topright"/>
  <anchor x="149" y="357" name="center"/>
  <outline>
    <contour>
      <point x="5" y="319" type="line"/>
      <point x="146" y="319" type="line"/>
      <point x="146" y="408" type="line"/>
      <point x="5" y="408" type="line"/>
    </contour>
    <component base="D" xOffset="10"/>
  </outline>
</glyph>
<glyph name="multiply" format="2">
  <advance width="300"/>
  <unicode hex="00D7"/>
  <outline>
    <contour>
      <point x="85" y="159" type="line"/>
      <point x="138" y="291" type="line"/>
      <point x="190" y="160" type="line"/>
      <point x="245" y="220" type="line"/>
      <point x="195" y="353" type="line"/>
      <point x="247" y="488" type="line"/>
      <point x="191" y="548" type="line"/>
      <point x="138" y="416" type="line"/>
      <point x="85" y="547" type="line"/>
      <point x="32" y="485" type="line"/>
      <point x="83" y="353" type="line"/>
      <point x="33" y="221" type="line"/>
    </contour>
  </outline>
</glyph>
<glyph name="Oslash" format="2">
  <advance width="300"/>
  <unicode hex="00D8"/>
  <anchor x="135" y="0" name="bottom"/>
  <anchor x="135" y="714" name="top"/>
  <anchor x="21" y="714" name="topleft"/>
  <anchor x="149" y="10" name="ogonek"/>
  <anchor x="140" y="357" name="center"/>
  <anchor x="270" y="714" name="topright"/>
  <outline>
    <contour>
      <point x="63" y="-42" type="line"/>
      <point x="266" y="722" type="line"/>
      <point x="214" y="755" type="line"/>
      <point x="11" y="-10" type="line"/>
    </contour>
    <component base="O" xOffset="5"/>
  </outline>
</glyph>
<glyph name="Thorn" format="2">
  <advance width="300"/>
  <unicode hex="00DE"/>
  <anchor x="135" y="0" name="bottom"/>
  <anchor x="135" y="714" name="top"/>
  <outline>
    <contour>
      <point x="17" y="0" type="line"/>
      <point x="121" y="0" type="line"/>
      <point x="121" y="144" type="line"/>
      <point x="128" y="144" type="line" smooth="yes"/>
      <point x="223" y="144"/>
      <point x="252" y="241"/>
      <point x="252" y="376" type="curve" smooth="yes"/>
      <point x="252" y="517"/>
      <point x="220" y="594"/>
      <point x="136" y="594" type="curve" smooth="yes"/>
      <point x="121" y="594" type="line"/>
      <point x="121" y="714" type="line"/>
      <point x="17" y="714" type="line"/>
    </contour>
    <contour>
      <point x="121" y="243" type="line"/>
      <point x="121" y="494" type="line"/>
      <point x="136" y="494" type="line" smooth="yes"/>
      <point x="144" y="494"/>
      <point x="152" y="456"/>
      <point x="152" y="370" type="curve" smooth="yes"/>
      <point x="152" y="281"/>
      <point x="145" y="243"/>
      <point x="121" y="243" type="curve" smooth="yes"/>
    </contour>
  </outline>
</glyph>
<glyph name="germandbls" format="2">
  <advance width="300"/>
  <unicode hex="00DF"/>
  <anchor x="135" y="0" name="bottom"/>
  <anchor x="135" y="765" name="top"/>
  <outline>
    <contour>
      <point x="169" y="-10" type="curve" smooth="yes"/>
      <point x="224" y="-10"/>
      <point x="259" y="50"/>
      <point x="259" y="157" type="curve" smooth="yes"/>
      <point x="259" y="235"/>
      <point x="244" y="270"/>
      <point x="228" y="320" type="curve" smooth="yes"/>
      <point x="215" y="360"/>
      <point x="219" y="379"/>
      <point x="219" y="404" type="curve" smooth="yes"/>
      <point x="219" y="471"/>
      <point x="238" y="495"/>
      <point x="238" y="603" type="curve" smooth="yes"/>
      <point x="238" y="707"/>
      <point x="188" y="765"/>
      <point x="125" y="765" type="curve" smooth="yes"/>
      <point x="52" y="765"/>
      <point x="7" y="687"/>
      <point x="7" y="567" type="curve" smooth="yes"/>
      <point x="7" y="0" type="line"/>
      <point x="106" y="0" type="line"/>
      <point x="106" y="547" type="line" smooth="yes"/>
      <point x="106" y="631"/>
      <point x="107" y="673"/>
      <point x="119" y="673" type="curve" smooth="yes"/>
      <point x="134" y="673"/>
      <point x="138" y="644"/>
      <point x="138" y="599" type="curve" smooth="yes"/>
      <point x="138" y="512"/>
      <point x="119" y="496"/>
      <point x="119" y="397" type="curve" smooth="yes"/>
      <point x="119" y="328"/>
      <point x="134" y="292"/>
      <point x="148" y="252" type="curve" smooth="yes"/>
      <point x="163" y="209"/>
      <point x="159" y="189"/>
      <point x="159" y="156" type="curve" smooth="yes"/>
      <point x="159" y="109"/>
      <point x="159" y="86"/>
      <point x="155" y="86" type="curve" smooth="yes"/>
      <point x="141" y="86"/>
      <point x="132" y="99"/>
      <point x="118" y="121" type="curve"/>
      <point x="118" y="18" type="line"/>
      <point x="136" y="-2"/>
      <point x="152" y="-10"/>
    </contour>
  </outline>
</glyph>
<glyph name="ae" format="2">
  <advance width="300"/>
  <unicode hex="00E6"/>
  <anchor x="135" y="0" name="bottom"/>
  <anchor x="135" y="541" name="top"/>
  <outline>
    <contour>
      <point x="77" y="-10" type="curve" smooth="yes"/>
      <point x="100" y="-10"/>
      <point x="117" y="20"/>
      <point x="136" y="95" type="curve"/>
      <point x="155" y="19"/>
      <point x="179" y="-10"/>
      <point x="205" y="-10" type="curve" smooth="yes"/>
      <point x="225" y="-10"/>
      <point x="241" y="1"/>
      <point x="255" y="27" type="curve"/>
      <point x="255" y="120" type="line"/>
      <point x="242" y="91"/>
      <point x="233" y="80"/>
      <point x="217" y="80" type="curve" smooth="yes"/>
      <point x="196" y="80"/>
      <point x="177" y="124"/>
      <point x="176" y="247" type="curve"/>
      <point x="264" y="247" type="line"/>
      <point x="264" y="298" type="line" smooth="yes"/>
      <point x="264" y="454"/>
      <point x="246" y="551"/>
      <point x="190" y="551" type="curve" smooth="yes"/>
      <point x="173" y="551"/>
      <point x="157" y="521"/>
      <point x="141" y="474" type="curve"/>
      <point x="125" y="528"/>
      <point x="104" y="551"/>
      <point x="85" y="551" type="curve" smooth="yes"/>
      <point x="62" y="551"/>
      <point x="36" y="533"/>
      <point x="13" y="506" type="curve"/>
      <point x="41" y="433" type="line"/>
      <point x="50" y="453"/>
      <point x="63" y="464"/>
      <point x="76" y="464" type="curve" smooth="yes"/>
      <point x="89" y="464"/>
      <point x="102" y="438"/>
      <point x="102" y="362" type="curve" smooth="yes"/>
      <point x="102" y="328" type="line"/>
      <point x="74" y="324" type="line" smooth="yes"/>
      <point x="28" y="318"/>
      <point x="7" y="262"/>
      <point x="7" y="152" type="curve" smooth="yes"/>
      <point x="7" y="49"/>
      <point x="32" y="-10"/>
    </contour>
    <contour>
      <point x="89" y="81" type="curve" smooth="yes"/>
      <point x="83" y="81"/>
      <point x="77" y="105"/>
      <point x="77" y="157" type="curve" smooth="yes"/>
      <point x="77" y="220"/>
      <point x="86" y="252"/>
      <point x="93" y="252" type="curve" smooth="yes"/>
      <point x="101" y="252" type="line"/>
      <point x="101" y="210" type="line" smooth="yes"/>
      <point x="101" y="117"/>
      <point x="95" y="81"/>
    </contour>
    <contour>
      <point x="177" y="326" type="line"/>
      <point x="177" y="420"/>
      <point x="178" y="461"/>
      <point x="186" y="461" type="curve" smooth="yes"/>
      <point x="194" y="461"/>
      <point x="196" y="419"/>
      <point x="196" y="326" type="curve"/>
    </contour>
  </outline>
</glyph>
<glyph name="eth" format="2">
  <advance width="300"/>
  <unicode hex="00F0"/>
  <anchor x="135" y="0" name="bottom"/>
  <anchor x="135" y="272" name="center"/>
  <anchor x="135" y="766" name="top"/>
  <anchor x="254" y="760" name="topright"/>
  <outline>
    <contour>
      <point x="136" y="-10" type="curve" smooth="yes"/>
      <point x="215" y="-10"/>
      <point x="262" y="89"/>
      <point x="262" y="273" type="curve" smooth="yes"/>
      <point x="262" y="487"/>
      <point x="198" y="675"/>
      <point x="101" y="765" type="curve"/>
      <point x="60" y="701" type="line"/>
      <point x="81" y="646"/>
      <point x="129" y="549"/>
      <point x="140" y="446" type="curve"/>
      <point x="139" y="444" type="line"/>
      <point x="128" y="470"/>
      <point x="122" y="481"/>
      <point x="114" y="481" type="curve" smooth="yes"/>
      <point x="56" y="481"/>
      <point x="7" y="392"/>
      <point x="7" y="237" type="curve" smooth="yes"/>
      <point x="7" y="92"/>
      <point x="60" y="-10"/>
    </contour>
    <contour>
      <point x="137" y="83" type="curve" smooth="yes"/>
      <point x="112" y="83"/>
      <point x="109" y="143"/>
      <point x="109" y="235" type="curve" smooth="yes"/>
      <point x="109" y="336"/>
      <point x="112" y="389"/>
      <point x="133" y="389" type="curve" smooth="yes"/>
      <point x="153" y="389"/>
      <point x="161" y="328"/>
      <point x="161" y="242" type="curve" smooth="yes"/>
      <point x="161" y="140"/>
      <point x="159" y="83"/>
    </contour>
    <contour>
      <point x="93" y="542" type="line"/>
      <point x="218" y="707" type="line"/>
      <point x="180" y="766" type="line"/>
      <point x="56" y="601" type="line"/>
    </contour>
  </outline>
</glyph>
<glyph name="divide" format="2">
  <advance width="300"/>
  <unicode hex="00F7"/>
  <outline>
    <contour>
      <point x="31" y="309" type="line"/>
      <point x="238" y="309" type="line"/>
      <point x="238" y="397" type="line"/>
      <point x="31" y="397" type="line"/>
    </contour>
    <contour>
      <point x="136" y="97" type="curve" smooth="yes"/>
      <point x="163" y="97"/>
      <point x="183" y="122"/>
      <point x="183" y="167" type="curve" smooth="yes"/>
      <point x="183" y="213"/>
      <point x="165" y="237"/>
      <point x="136" y="237" type="curve" smooth="yes"/>
      <point x="104" y="237"/>
      <point x="86" y="213"/>
      <point x="86" y="167" type="curve" smooth="yes"/>
      <point x="86" y="122"/>
      <point x="107" y="97"/>
    </contour>
    <contour>
      <point x="136" y="468" type="curve" smooth="yes"/>
      <point x="163" y="468"/>
      <point x="183" y="492"/>
      <point x="183" y="538" type="curve" smooth="yes"/>
      <point x="183" y="583"/>
      <point x="165" y="608"/>
      <point x="136" y="608" type="curve" smooth="yes"/>
      <point x="104" y="608"/>
      <point x="86" y="583"/>
      <point x="86" y="538" type="curve" smooth="yes"/>
      <point x="86" y="492"/>
      <point x="107" y="468"/>
    </contour>
  </outline>
</glyph>
<glyph name="oslash" format="2">
  <advance width="300"/>
  <unicode hex="00F8"/>
  <anchor x="135" y="0" name="bottom"/>
  <anchor x="135" y="543" name="top"/>
  <anchor x="142" y="10" name="ogonek"/>
  <anchor x="270" y="543" name="topright"/>
  <anchor x="141" y="272" name="center"/>
  <outline>
    <contour>
      <point x="94" y="-54" type="line"/>
      <point x="235" y="553" type="line"/>
      <point x="185" y="585" type="line"/>
      <point x="44" y="-23" type="line"/>
    </contour>
    <component base="o" xOffset="6"/>
  </outline>
</glyph>
<glyph name="dcaron" format="2">
  <advance width="300"/>
  <unicode hex="010F"/>
  <anchor x="120" y="0" name="bottom"/>
  <anchor x="120" y="272" name="center"/>
  <anchor x="122" y="760" name="top"/>
  <anchor x="240" y="760" name="topright"/>
  <outline>
    <contour>
      <point x="88" y="-10" type="curve" smooth="yes"/>
      <point x="109" y="-10"/>
      <point x="128" y="23"/>
      <point x="140" y="75" type="curve"/>
      <point x="145" y="75" type="line"/>
      <point x="155" y="0" type="line"/>
      <point x="239" y="0" type="line"/>
      <point x="239" y="760" type="line"/>
      <point x="137" y="760" type="line"/>
      <point x="137" y="568" type="line" smooth="yes"/>
      <point x="137" y="534"/>
      <point x="141" y="501"/>
      <point x="143" y="473" type="curve"/>
      <point x="138" y="473" type="line"/>
      <point x="122" y="526"/>
      <point x="104" y="554"/>
      <point x="90" y="554" type="curve" smooth="yes"/>
      <point x="36" y="554"/>
      <point x="2" y="450"/>
      <point x="2" y="269" type="curve" smooth="yes"/>
      <point x="2" y="96"/>
      <point x="34" y="-10"/>
    </contour>
    <contour>
      <point x="121" y="92" type="curve" smooth="yes"/>
      <point x="105" y="92"/>
      <point x="104" y="149"/>
      <point x="104" y="268" type="curve" smooth="yes"/>
      <point x="104" y="389"/>
      <point x="102" y="453"/>
      <point x="122" y="453" type="curve" smooth="yes"/>
      <point x="133" y="453"/>
      <point x="139" y="400"/>
      <point x="139" y="277" type="curve" smooth="yes"/>
      <point x="139" y="258" type="line" smooth="yes"/>
      <point x="139" y="147"/>
      <point x="132" y="92"/>
    </contour>
    <component base="caroncommaaccent" xOffset="158"/>
  </outline>
</glyph>
<glyph name="dcroat" format="2">
  <advance width="300"/>
  <unicode hex="0111"/>
  <anchor x="134" y="0" name="bottom"/>
  <anchor x="134" y="272" name="center"/>
  <anchor x="134" y="760" name="top"/>
  <anchor x="253" y="760" name="topright"/>
  <outline>
    <contour>
      <point x="102" y="-10" type="curve" smooth="yes"/>
      <point x="120" y="-10"/>
      <point x="142" y="23"/>
      <point x="157" y="75" type="curve"/>
      <point x="162" y="75" type="line"/>
      <point x="172" y="0" type="line"/>
      <point x="257" y="0" type="line"/>
      <point x="257" y="760" type="line"/>
      <point x="155" y="760" type="line"/>
      <point x="155" y="564" type="line" smooth="yes"/>
      <point x="155" y="525"/>
      <point x="160" y="487"/>
      <point x="160" y="461" type="curve"/>
      <point x="156" y="461" type="line"/>
      <point x="138" y="512"/>
      <point x="117" y="543"/>
      <point x="102" y="543" type="curve" smooth="yes"/>
      <point x="44" y="543"/>
      <point x="7" y="440"/>
      <point x="7" y="263" type="curve" smooth="yes"/>
      <point x="7" y="93"/>
      <point x="42" y="-10"/>
    </contour>
    <contour>
      <point x="137" y="92" type="curve" smooth="yes"/>
      <point x="118" y="92"/>
      <point x="112" y="148"/>
      <point x="112" y="260" type="curve" smooth="yes"/>
      <point x="112" y="378"/>
      <point x="116" y="441"/>
      <point x="138" y="441" type="curve" smooth="yes"/>
      <point x="156" y="441"/>
      <point x="157" y="384"/>
      <point x="157" y="264" type="curve" smooth="yes"/>
      <point x="157" y="245" type="line" smooth="yes"/>
      <point x="157" y="144"/>
      <point x="149" y="92"/>
    </contour>
    <contour>
      <point x="104" y="596" type="line"/>
      <point x="264" y="596" type="line"/>
      <point x="264" y="676" type="line"/>
      <point x="104" y="676" type="line"/>
    </contour>
  </outline>
</glyph>
<glyph name="eogonek" format="2">
  <advance width="300"/>
  <unicode hex="0119"/>
  <anchor x="133" y="-231" name="bottom"/>
  <anchor x="128" y="543" name="top"/>
  <anchor x="139" y="10" name="ogonek"/>
  <anchor x="262" y="543" name="topright"/>
  <outline>
    <contour>
      <point x="201" y="-231" type="curve" smooth="yes"/>
      <point x="217" y="-231"/>
      <point x="229" y="-227"/>
      <point x="236" y="-220" type="curve"/>
      <point x="236" y="-151" type="line"/>
      <point x="233" y="-154"/>
      <point x="230" y="-157"/>
      <point x="224" y="-157" type="curve" smooth="yes"/>
      <point x="213" y="-157"/>
      <point x="206" y="-137"/>
      <point x="206" y="-103" type="curve" smooth="yes"/>
      <point x="206" y="-64"/>
      <point x="203" y="-21"/>
      <point x="236" y="29" type="curve"/>
      <point x="193" y="42" type="line"/>
      <point x="163" y="4"/>
      <point x="133" y="-44"/>
      <point x="133" y="-121" type="curve" smooth="yes"/>
      <point x="133" y="-186"/>
      <point x="153" y="-231"/>
    </contour>
    <component base="e" xOffset="-2"/>
  </outline>
</glyph>
<glyph name="Hbar" format="2">
  <advance width="300"/>
  <unicode hex="0126"/>
  <anchor x="135" y="0" name="bottom"/>
  <anchor x="135" y="357" name="center"/>
  <anchor x="135" y="714" name="top"/>
  <anchor x="16" y="714" name="topleft"/>
  <outline>
    <contour>
      <point x="5" y="526" type="line"/>
      <point x="264" y="526" type="line"/>
      <point x="264" y="609" type="line"/>
      <point x="5" y="609" type="line"/>
    </contour>
    <contour>
      <point x="15" y="0" type="line"/>
      <point x="119" y="0" type="line"/>
      <point x="119" y="316" type="line"/>
      <point x="149" y="316" type="line"/>
      <point x="149" y="0" type="line"/>
      <point x="254" y="0" type="line"/>
      <point x="254" y="714" type="line"/>
      <point x="149" y="714" type="line"/>
      <point x="149" y="421" type="line"/>
      <point x="119" y="421" type="line"/>
      <point x="119" y="714" type="line"/>
      <point x="15" y="714" type="line"/>
    </contour>
  </outline>
</glyph>
<glyph name="hbar" format="2">
  <advance width="300"/>
  <unicode hex="0127"/>
  <anchor x="135" y="0" name="bottom"/>
  <anchor x="135" y="272" name="center"/>
  <anchor x="66" y="760" name="top"/>
  <outline>
    <contour>
      <point x="5" y="596" type="line"/>
      <point x="165" y="596" type="line"/>
      <point x="165" y="676" type="line"/>
      <point x="5" y="676" type="line"/>
    </contour>
    <contour>
      <point x="13" y="0" type="line"/>
      <point x="117" y="0" type="line"/>
      <point x="117" y="274" type="line" smooth="yes"/>
      <point x="117" y="383"/>
      <point x="112" y="445"/>
      <point x="135" y="445" type="curve" smooth="yes"/>
      <point x="160" y="445"/>
      <point x="155" y="400"/>
      <point x="155" y="318" type="curve" smooth="yes"/>
      <point x="155" y="0" type="line"/>
      <point x="259" y="0" type="line"/>
      <point x="259" y="350" type="line" smooth="yes"/>
      <point x="259" y="483"/>
      <point x="224" y="549"/>
      <point x="173" y="549" type="curve" smooth="yes"/>
      <point x="150" y="549"/>
      <point x="130" y="516"/>
      <point x="116" y="467" type="curve"/>
      <point x="110" y="467" type="line"/>
      <point x="114" y="499"/>
      <point x="117" y="533"/>
      <point x="117" y="567" type="curve" smooth="yes"/>
      <point x="117" y="760" type="line"/>
      <point x="13" y="760" type="line"/>
    </contour>
  </outline>
</glyph>
<glyph name="idotless" format="2">
  <advance width="270"/>
  <unicode hex="0131"/>
  <anchor x="135" y="0" name="bottom"/>
  <anchor x="239" y="10" name="ogonek"/>
  <anchor x="135" y="543" name="top"/>
  <outline>
    <contour>
      <point x="20" y="0" type="line"/>
      <point x="245" y="0" type="line"/>
      <point x="245" y="83" type="line"/>
      <point x="191" y="97" type="line"/>
      <point x="191" y="543" type="line"/>
      <point x="32" y="543" type="line"/>
      <point x="32" y="456" type="line"/>
      <point x="88" y="445" type="line"/>
      <point x="88" y="97" type="line"/>
      <point x="20" y="83" type="line"/>
    </contour>
  </outline>
</glyph>
<glyph name="IJ" format="2">
  <advance width="300"/>
  <unicode hex="0132"/>
  <anchor x="135" y="0" name="bottom"/>
  <anchor x="5" y="0" name="caret_1"/>
  <anchor x="135" y="714" name="top"/>
  <anchor x="16" y="714" name="topleft"/>
  <outline>
    <contour>
      <point x="107" y="-10" type="curve" smooth="yes"/>
      <point x="197" y="-10"/>
      <point x="251" y="82"/>
      <point x="251" y="233" type="curve" smooth="yes"/>
      <point x="251" y="714" type="line"/>
      <point x="148" y="714" type="line"/>
      <point x="148" y="257" type="line" smooth="yes"/>
      <point x="148" y="136"/>
      <point x="118" y="95"/>
      <point x="88" y="95" type="curve" smooth="yes"/>
      <point x="78" y="95"/>
      <point x="53" y="109"/>
      <point x="28" y="120" type="curve"/>
      <point x="28" y="16" type="line"/>
      <point x="57" y="-1"/>
      <point x="86" y="-10"/>
    </contour>
    <contour>
      <point x="27" y="199" type="line"/>
      <point x="130" y="199" type="line"/>
      <point x="130" y="714" type="line"/>
      <point x="27" y="714" type="line"/>
    </contour>
  </outline>
</glyph>
<glyph name="ij" format="2">
  <advance width="300"/>
  <unicode hex="0133"/>
  <anchor x="143" y="-245" name="bottom"/>
  <anchor x="6" y="0" name="caret_1"/>
  <anchor x="138" y="767" name="top"/>
  <outline>
    <contour>
      <point x="132" y="-245" type="curve" smooth="yes"/>
      <point x="218" y="-245"/>
      <point x="247" y="-181"/>
      <point x="247" y="-53" type="curve" smooth="yes"/>
      <point x="247" y="543" type="line"/>
      <point x="144" y="543" type="line"/>
      <point x="144" y="-41" type="line" smooth="yes"/>
      <point x="144" y="-111"/>
      <point x="137" y="-144"/>
      <point x="112" y="-144" type="curve" smooth="yes"/>
      <point x="99" y="-144"/>
      <point x="83" y="-136"/>
      <point x="59" y="-125" type="curve"/>
      <point x="59" y="-225" type="line"/>
      <point x="89" y="-238"/>
      <point x="110" y="-245"/>
    </contour>
    <contour>
      <point x="26" y="0" type="line"/>
      <point x="129" y="0" type="line"/>
      <point x="129" y="543" type="line"/>
      <point x="26" y="543" type="line"/>
    </contour>
    <contour>
      <point x="78" y="622" type="curve" smooth="yes"/>
      <point x="113" y="622"/>
      <point x="134" y="648"/>
      <point x="134" y="695" type="curve" smooth="yes"/>
      <point x="134" y="743"/>
      <point x="113" y="767"/>
      <point x="78" y="767" type="curve" smooth="yes"/>
      <point x="43" y="767"/>
      <point x="21" y="743"/>
      <point x="21" y="695" type="curve" smooth="yes"/>
      <point x="21" y="647"/>
      <point x="43" y="622"/>
    </contour>
    <contour>
      <point x="191" y="622" type="curve" smooth="yes"/>
      <point x="226" y="622"/>
      <point x="250" y="648"/>
      <point x="250" y="695" type="curve" smooth="yes"/>
      <point x="250" y="743"/>
      <point x="227" y="767"/>
      <point x="191" y="767" type="curve" smooth="yes"/>
      <point x="155" y="767"/>
      <point x="133" y="743"/>
      <point x="133" y="695" type="curve" smooth="yes"/>
      <point x="133" y="647"/>
      <point x="155" y="622"/>
    </contour>
  </outline>
</glyph>
<glyph name="Lslash" format="2">
  <advance width="300"/>
  <unicode hex="0141"/>
  <anchor x="158" y="0" name="bottom"/>
  <anchor x="89" y="714" name="top"/>
  <anchor x="201" y="714" name="topright"/>
  <anchor x="135" y="357" name="center"/>
  <outline>
    <contour>
      <point x="0" y="260" type="line"/>
      <point x="208" y="448" type="line"/>
      <point x="208" y="537" type="line"/>
      <point x="0" y="350" type="line"/>
    </contour>
    <component base="L"/>
  </outline>
</glyph>
<glyph name="lslash" format="2">
  <advance width="300"/>
  <unicode hex="0142"/>
  <anchor x="134" y="0" name="bottom"/>
  <anchor x="134" y="760" name="top"/>
  <anchor x="236" y="760" name="topright"/>
  <anchor x="143" y="381" name="center"/>
  <outline>
    <contour>
      <point x="37" y="260" type="line"/>
      <point x="244" y="448" type="line"/>
      <point x="244" y="537" type="line"/>
      <point x="37" y="350" type="line"/>
    </contour>
    <component base="l" xOffset="5"/>
  </outline>
</glyph>
<glyph name="napostrophe" format="2">
  <advance width="300"/>
  <unicode hex="0149"/>
  <anchor x="141" y="0" name="bottom"/>
  <anchor x="148" y="543" name="top"/>
  <outline>
    <contour>
      <point x="18" y="0" type="line"/>
      <point x="123" y="0" type="line"/>
      <point x="123" y="268" type="line" smooth="yes"/>
      <point x="123" y="390"/>
      <point x="119" y="450"/>
      <point x="136" y="450" type="curve" smooth="yes"/>
      <point x="150" y="450"/>
      <point x="155" y="412"/>
      <point x="155" y="329" type="curve" smooth="yes"/>
      <point x="155" y="0" type="line"/>
      <point x="259" y="0" type="line"/>
      <point x="259" y="355" type="line" smooth="yes"/>
      <point x="259" y="493"/>
      <point x="227" y="554"/>
      <point x="178" y="554" type="curve" smooth="yes"/>
      <point x="157" y="554"/>
      <point x="138" y="526"/>
      <point x="123" y="471" type="curve"/>
      <point x="117" y="471" type="line"/>
      <point x="104" y="543" type="line"/>
      <point x="18" y="543" type="line"/>
    </contour>
    <component base="quoteright" xOffset="-150"/>
  </outline>
</glyph>
<glyph name="Eng" format="2">
  <advance width="300"/>
  <unicode hex="014A"/>
  <anchor x="121" y="-203" name="bottom"/>
  <anchor x="132" y="714" name="top"/>
  <anchor x="265" y="714" name="topright"/>
  <outline>
    <contour>
      <point x="142" y="-203" type="curve" smooth="yes"/>
      <point x="218" y="-203"/>
      <point x="253" y="-132"/>
      <point x="253" y="1" type="curve" smooth="yes"/>
      <point x="253" y="93" type="line"/>
      <point x="171" y="80" type="line"/>
      <point x="171" y="3" type="line" smooth="yes"/>
      <point x="171" y="-82"/>
      <point x="154" y="-120"/>
      <point x="126" y="-120" type="curve" smooth="yes"/>
      <point x="116" y="-120"/>
      <point x="108" y="-116"/>
      <point x="100" y="-110" type="curve"/>
      <point x="100" y="-192" type="line"/>
      <point x="115" y="-200"/>
      <point x="126" y="-203"/>
    </contour>
    <component base="N"/>
  </outline>
</glyph>
<glyph name="eng" format="2">
  <advance width="300"/>
  <unicode hex="014B"/>
  <anchor x="129" y="-240" name="bottom"/>
  <anchor x="136" y="543" name="top"/>
  <anchor x="266" y="543" name="topright"/>
  <outline>
    <contour>
      <point x="151" y="-240" type="curve" smooth="yes"/>
      <point x="224" y="-240"/>
      <point x="252" y="-169"/>
      <point x="252" y="-69" type="curve" smooth="yes"/>
      <point x="253" y="305" type="line"/>
      <point x="221" y="258" type="line" smooth="yes"/>
      <point x="127" y="80" type="line" smooth="yes"/>
      <point x="39" y="-86"/>
      <point x="136" y="-144"/>
      <point x="128" y="-144" type="curve" smooth="yes"/>
      <point x="121" y="-144"/>
      <point x="116" y="-141"/>
      <point x="108" y="-135" type="curve"/>
      <point x="108" y="-230" type="line"/>
      <point x="124" y="-237"/>
      <point x="136" y="-240"/>
    </contour>
    <component base="n"/>
  </outline>
</glyph>
<glyph name="OE" format="2">
  <advance width="300"/>
  <unicode hex="0152"/>
  <anchor x="135" y="0" name="bottom"/>
  <anchor x="135" y="714" name="top"/>
  <outline>
    <contour>
      <point x="97" y="-11" type="curve" smooth="yes"/>
      <point x="108" y="-11"/>
      <point x="122" y="-7"/>
      <point x="135" y="0" type="curve"/>
      <point x="258" y="0" type="line"/>
      <point x="258" y="106" type="line"/>
      <point x="223" y="106" type="line"/>
      <point x="223" y="318" type="line"/>
      <point x="248" y="318" type="line"/>
      <point x="248" y="424" type="line"/>
      <point x="223" y="424" type="line"/>
      <point x="223" y="608" type="line"/>
      <point x="258" y="608" type="line"/>
      <point x="258" y="714" type="line"/>
      <point x="131" y="714" type="line"/>
      <point x="112" y="721"/>
      <point x="100" y="725"/>
      <point x="90" y="725" type="curve" smooth="yes"/>
      <point x="24" y="725"/>
      <point x="4" y="578"/>
      <point x="4" y="360" type="curve" smooth="yes"/>
      <point x="4" y="135"/>
      <point x="19" y="-11"/>
    </contour>
    <contour>
      <point x="105" y="93" type="curve" smooth="yes"/>
      <point x="96" y="93"/>
      <point x="98" y="188"/>
      <point x="98" y="356" type="curve" smooth="yes"/>
      <point x="98" y="523"/>
      <point x="102" y="625"/>
      <point x="108" y="625" type="curve" smooth="yes"/>
      <point x="117" y="625"/>
      <point x="125" y="623"/>
      <point x="133" y="613" type="curve"/>
      <point x="133" y="102" type="line"/>
      <point x="124" y="94"/>
      <point x="115" y="93"/>
    </contour>
  </outline>
</glyph>
<glyph name="oe" format="2">
  <advance width="300"/>
  <unicode hex="0153"/>
  <anchor x="136" y="0" name="bottom"/>
  <anchor x="136" y="541" name="top"/>
  <outline>
    <contour>
      <point x="91" y="-10" type="curve" smooth="yes"/>
      <point x="112" y="-10"/>
      <point x="129" y="17"/>
      <point x="146" y="77" type="curve"/>
      <point x="163" y="17"/>
      <point x="187" y="-10"/>
      <point x="207" y="-10" type="curve" smooth="yes"/>
      <point x="225" y="-10"/>
      <point x="244" y="2"/>
      <point x="259" y="26" type="curve"/>
      <point x="259" y="115" type="line"/>
      <point x="246" y="92"/>
      <point x="230" y="79"/>
      <point x="218" y="79" type="curve" smooth="yes"/>
      <point x="196" y="79"/>
      <point x="184" y="135"/>
      <point x="183" y="245" type="curve"/>
      <point x="264" y="245" type="line"/>
      <point x="264" y="294" type="line" smooth="yes"/>
      <point x="264" y="449"/>
      <point x="248" y="551"/>
      <point x="191" y="551" type="curve" smooth="yes"/>
      <point x="171" y="551"/>
      <point x="156" y="521"/>
      <point x="144" y="463" type="curve"/>
      <point x="129" y="525"/>
      <point x="109" y="551"/>
      <point x="88" y="551" type="curve" smooth="yes"/>
      <point x="25" y="551"/>
      <point x="11" y="458"/>
      <point x="11" y="273" type="curve" smooth="yes"/>
      <point x="11" y="88"/>
      <point x="32" y="-10"/>
    </contour>
    <contour>
      <point x="94" y="80" type="curve" smooth="yes"/>
      <point x="84" y="80"/>
      <point x="83" y="150"/>
      <point x="83" y="273" type="curve" smooth="yes"/>
      <point x="83" y="402"/>
      <point x="84" y="462"/>
      <point x="94" y="462" type="curve" smooth="yes"/>
      <point x="105" y="462"/>
      <point x="105" y="399"/>
      <point x="105" y="273" type="curve" smooth="yes"/>
      <point x="105" y="149"/>
      <point x="106" y="80"/>
    </contour>
    <contour>
      <point x="178" y="326" type="line"/>
      <point x="178" y="402"/>
      <point x="182" y="461"/>
      <point x="187" y="461" type="curve" smooth="yes"/>
      <point x="192" y="461"/>
      <point x="198" y="420"/>
      <point x="198" y="326" type="curve"/>
    </contour>
  </outline>
</glyph>
<glyph name="Tbar" format="2">
  <advance width="300"/>
  <unicode hex="0166"/>
  <anchor x="128" y="0" name="bottom"/>
  <anchor x="128" y="714" name="top"/>
  <anchor x="255" y="714" name="topright"/>
  <anchor x="135" y="357" name="center"/>
  <outline>
    <contour>
      <point x="52" y="311" type="line"/>
      <point x="217" y="311" type="line"/>
      <point x="217" y="400" type="line"/>
      <point x="52" y="400" type="line"/>
    </contour>
    <component base="T"/>
  </outline>
</glyph>
<glyph name="tbar" format="2">
  <advance width="300"/>
  <unicode hex="0167"/>
  <anchor x="158" y="0" name="bottom"/>
  <anchor x="129" y="679" name="top"/>
  <anchor x="256" y="679" name="topright"/>
  <anchor x="112" y="289" name="center"/>
  <outline>
    <contour>
      <point x="-3" y="256" type="line"/>
      <point x="265" y="256" type="line"/>
      <point x="265" y="337" type="line"/>
      <point x="-3" y="337" type="line"/>
    </contour>
    <component base="t"/>
  </outline>
</glyph>
<glyph name="Uogonek" format="2">
  <advance width="300"/>
  <unicode hex="0172"/>
  <anchor x="154" y="-231" name="bottom"/>
  <anchor x="129" y="714" name="top"/>
  <anchor x="239" y="10" name="ogonek"/>
  <anchor x="256" y="714" name="topright"/>
  <outline>
    <contour>
      <point x="152" y="-231" type="curve" smooth="yes"/>
      <point x="170" y="-231"/>
      <point x="183" y="-227"/>
      <point x="191" y="-220" type="curve"/>
      <point x="191" y="-151" type="line"/>
      <point x="188" y="-154"/>
      <point x="184" y="-158"/>
      <point x="177" y="-158" type="curve" smooth="yes"/>
      <point x="163" y="-158"/>
      <point x="156" y="-139"/>
      <point x="156" y="-112" type="curve" smooth="yes"/>
      <point x="156" y="-65"/>
      <point x="172" y="-26"/>
      <point x="203" y="16" type="curve"/>
      <point x="154" y="29" type="line"/>
      <point x="111" y="-7"/>
      <point x="83" y="-65"/>
      <point x="83" y="-135" type="curve" smooth="yes"/>
      <point x="83" y="-194"/>
      <point x="105" y="-231"/>
    </contour>
    <component base="U"/>
  </outline>
</glyph>
<glyph name="longs" format="2">
  <advance width="300"/>
  <unicode hex="017F"/>
  <anchor x="135" y="0" name="bottom"/>
  <anchor x="156" y="765" name="top"/>
  <outline>
    <contour>
      <point x="67" y="0" type="line"/>
      <point x="172" y="0" type="line"/>
      <point x="172" y="559" type="line" smooth="yes"/>
      <point x="172" y="644"/>
      <point x="178" y="670"/>
      <point x="186" y="670" type="curve" smooth="yes"/>
      <point x="197" y="670"/>
      <point x="206" y="665"/>
      <point x="217" y="659" type="curve"/>
      <point x="239" y="747" type="line"/>
      <point x="210" y="760"/>
      <point x="191" y="765"/>
      <point x="170" y="765" type="curve" smooth="yes"/>
      <point x="98" y="765"/>
      <point x="67" y="705"/>
      <point x="67" y="568" type="curve" smooth="yes"/>
    </contour>
  </outline>
</glyph>
<glyph name="uni0180" format="2">
  <advance width="300"/>
  <unicode hex="0180"/>
  <anchor x="135" y="0" name="bottom"/>
  <anchor x="154" y="760" name="top"/>
  <anchor x="261" y="760" name="topright"/>
  <outline>
    <contour>
      <point x="3" y="597" type="line"/>
      <point x="167" y="597" type="line"/>
      <point x="167" y="682" type="line"/>
      <point x="3" y="682" type="line"/>
    </contour>
    <component base="b" xOffset="6"/>
  </outline>
</glyph>
<glyph name="uni0181" format="2">
  <advance width="300"/>
  <unicode hex="0181"/>
  <anchor x="154" y="0" name="bottom"/>
  <anchor x="154" y="714" name="top"/>
  <outline>
    <contour>
      <point x="81" y="0" type="line"/>
      <point x="166" y="0" type="line" smooth="yes"/>
      <point x="226" y="0"/>
      <point x="261" y="77"/>
      <point x="261" y="207" type="curve" smooth="yes"/>
      <point x="261" y="310"/>
      <point x="240" y="358"/>
      <point x="212" y="374" type="curve"/>
      <point x="212" y="379" type="line"/>
      <point x="237" y="395"/>
      <point x="256" y="450"/>
      <point x="256" y="539" type="curve" smooth="yes"/>
      <point x="256" y="658"/>
      <point x="225" y="714"/>
      <point x="155" y="714" type="curve" smooth="yes"/>
      <point x="81" y="714" type="line"/>
    </contour>
    <contour>
      <point x="162" y="89" type="line"/>
      <point x="162" y="329" type="line"/>
      <point x="160" y="329" type="line" smooth="yes"/>
      <point x="181" y="329"/>
      <point x="181" y="286"/>
      <point x="181" y="212" type="curve" smooth="yes"/>
      <point x="181" y="136"/>
      <point x="178" y="89"/>
      <point x="161" y="89" type="curve" smooth="yes"/>
    </contour>
    <contour>
      <point x="10" y="504" type="curve"/>
      <point x="68" y="504" type="line"/>
      <point x="67" y="513"/>
      <point x="65" y="536"/>
      <point x="65" y="563" type="curve" smooth="yes"/>
      <point x="65" y="607"/>
      <point x="71" y="627"/>
      <point x="85" y="627" type="curve" smooth="yes"/>
      <point x="99" y="627" type="line"/>
      <point x="99" y="714" type="line"/>
      <point x="87" y="714" type="line"/>
      <point x="30" y="714"/>
      <point x="5" y="659"/>
      <point x="5" y="571" type="curve" smooth="yes"/>
      <point x="5" y="542"/>
      <point x="8" y="516"/>
    </contour>
    <contour>
      <point x="162" y="416" type="line"/>
      <point x="162" y="626" type="line"/>
      <point x="154" y="626" type="line" smooth="yes"/>
      <point x="172" y="626"/>
      <point x="175" y="594"/>
      <point x="175" y="523" type="curve" smooth="yes"/>
      <point x="175" y="455"/>
      <point x="170" y="416"/>
      <point x="155" y="416" type="curve" smooth="yes"/>
    </contour>
  </outline>
</glyph>
<glyph name="uni0184" format="2">
  <advance width="300"/>
  <unicode hex="0184"/>
  <anchor x="135" y="0" name="bottom"/>
  <anchor x="135" y="760" name="top"/>
  <outline>
    <contour>
      <point x="133" y="-9" type="curve"/>
      <point x="212" y="-9"/>
      <point x="252" y="78"/>
      <point x="252" y="217" type="curve" smooth="yes"/>
      <point x="252" y="353"/>
      <point x="221" y="432"/>
      <point x="135" y="432" type="curve" smooth="yes"/>
      <point x="120" y="432" type="line"/>
      <point x="120" y="714" type="line"/>
      <point x="17" y="714" type="line"/>
      <point x="17" y="212" type="line" smooth="yes"/>
      <point x="17" y="59"/>
      <point x="48" y="-9"/>
    </contour>
    <contour>
      <point x="136" y="93" type="curve"/>
      <point x="117" y="93"/>
      <point x="120" y="126"/>
      <point x="120" y="218" type="curve" smooth="yes"/>
      <point x="120" y="333" type="line"/>
      <point x="128" y="333" type="line" smooth="yes"/>
      <point x="140" y="333"/>
      <point x="148" y="302"/>
      <point x="148" y="214" type="curve" smooth="yes"/>
      <point x="148" y="128"/>
      <point x="143" y="93"/>
    </contour>
  </outline>
</glyph>
<glyph name="uni0185" format="2">
  <advance width="300"/>
  <unicode hex="0185"/>
  <anchor x="135" y="0" name="bottom"/>
  <anchor x="135" y="760" name="top"/>
  <outline>
    <contour>
      <point x="135" y="-10" type="curve" smooth="yes"/>
      <point x="206" y="-10"/>
      <point x="263" y="84"/>
      <point x="263" y="272" type="curve" smooth="yes"/>
      <point x="263" y="458"/>
      <point x="230" y="553"/>
      <point x="178" y="553" type="curve" smooth="yes"/>
      <point x="144" y="553"/>
      <point x="131" y="519"/>
      <point x="116" y="474" type="curve"/>
      <point x="110" y="474" type="line"/>
      <point x="113" y="503"/>
      <point x="116" y="538"/>
      <point x="116" y="579" type="curve" smooth="yes"/>
      <point x="116" y="760" type="line"/>
      <point x="14" y="760" type="line"/>
      <point x="14" y="262" type="line" smooth="yes"/>
      <point x="14" y="72"/>
      <point x="55" y="-10"/>
    </contour>
    <contour>
      <point x="139" y="92" type="curve"/>
      <point x="126" y="92"/>
      <point x="116" y="127"/>
      <point x="116" y="263" type="curve" smooth="yes"/>
      <point x="116" y="285" type="line" smooth="yes"/>
      <point x="116" y="399"/>
      <point x="124" y="454"/>
      <point x="136" y="454" type="curve" smooth="yes"/>
      <point x="151" y="454"/>
      <point x="154" y="397"/>
      <point x="154" y="270" type="curve" smooth="yes"/>
      <point x="154" y="142"/>
      <point x="148" y="92"/>
    </contour>
  </outline>
</glyph>
<glyph name="uni0187" format="2">
  <advance width="300"/>
  <unicode hex="0187"/>
  <anchor x="148" y="0" name="bottom"/>
  <anchor x="148" y="875" name="top"/>
  <anchor x="259" y="714" name="topright"/>
  <outline>
    <contour>
      <point x="171" y="681" type="line"/>
      <point x="260" y="681" type="line"/>
      <point x="260" y="717" type="line" smooth="yes"/>
      <point x="260" y="763"/>
      <point x="270" y="776"/>
      <point x="284" y="776" type="curve" smooth="yes"/>
      <point x="291" y="776"/>
      <point x="296" y="771"/>
      <point x="302" y="768" type="curve"/>
      <point x="302" y="864" type="line"/>
      <point x="294" y="869"/>
      <point x="283" y="875"/>
      <point x="260" y="875" type="curve" smooth="yes"/>
      <point x="219" y="875"/>
      <point x="171" y="837"/>
      <point x="171" y="742" type="curve" smooth="yes"/>
    </contour>
    <component base="C" xOffset="5"/>
  </outline>
</glyph>
<glyph name="uni0188" format="2">
  <advance width="300"/>
  <unicode hex="0188"/>
  <anchor x="134" y="0" name="bottom"/>
  <anchor x="134" y="766" name="top"/>
  <anchor x="259" y="543" name="topright"/>
  <outline>
    <contour>
      <point x="169" y="519" type="line"/>
      <point x="256" y="519" type="line"/>
      <point x="256" y="620" type="line" smooth="yes"/>
      <point x="256" y="661"/>
      <point x="264" y="674"/>
      <point x="274" y="674" type="curve" smooth="yes"/>
      <point x="286" y="674"/>
      <point x="297" y="667"/>
      <point x="300" y="663" type="curve"/>
      <point x="300" y="752" type="line"/>
      <point x="295" y="758"/>
      <point x="279" y="766"/>
      <point x="255" y="766" type="curve" smooth="yes"/>
      <point x="208" y="766"/>
      <point x="169" y="723"/>
      <point x="169" y="625" type="curve" smooth="yes"/>
    </contour>
    <component base="c" xOffset="5"/>
  </outline>
</glyph>
<glyph name="uni018A" format="2">
  <advance width="300"/>
  <unicode hex="018A"/>
  <anchor x="135" y="0" name="bottom"/>
  <anchor x="135" y="714" name="top"/>
  <outline>
    <contour>
      <point x="77" y="0" type="line"/>
      <point x="158" y="0" type="line" smooth="yes"/>
      <point x="232" y="0"/>
      <point x="258" y="121"/>
      <point x="258" y="368" type="curve" smooth="yes"/>
      <point x="258" y="599"/>
      <point x="233" y="714"/>
      <point x="161" y="714" type="curve" smooth="yes"/>
      <point x="77" y="714" type="line"/>
    </contour>
    <contour>
      <point x="161" y="95" type="line"/>
      <point x="161" y="620" type="line"/>
      <point x="159" y="620" type="line" smooth="yes"/>
      <point x="174" y="620"/>
      <point x="177" y="543"/>
      <point x="177" y="362" type="curve" smooth="yes"/>
      <point x="177" y="179"/>
      <point x="170" y="95"/>
      <point x="159" y="95" type="curve" smooth="yes"/>
    </contour>
    <contour>
      <point x="10" y="504" type="curve"/>
      <point x="66" y="504" type="line"/>
      <point x="64" y="513"/>
      <point x="62" y="536"/>
      <point x="62" y="563" type="curve" smooth="yes"/>
      <point x="62" y="603"/>
      <point x="69" y="624"/>
      <point x="83" y="624" type="curve" smooth="yes"/>
      <point x="99" y="624" type="line"/>
      <point x="99" y="714" type="line"/>
      <point x="87" y="714" type="line"/>
      <point x="30" y="714"/>
      <point x="5" y="659"/>
      <point x="5" y="571" type="curve" smooth="yes"/>
      <point x="5" y="542"/>
      <point x="8" y="516"/>
    </contour>
  </outline>
</glyph>
<glyph name="uni018B" format="2">
  <advance width="300"/>
  <unicode hex="018B"/>
  <anchor x="135" y="0" name="bottom"/>
  <anchor x="147" y="714" name="top"/>
  <anchor x="0" y="0" name="topright"/>
  <outline>
    <contour>
      <point x="46" y="610" type="line"/>
      <point x="189" y="610" type="line"/>
      <point x="189" y="714" type="line"/>
      <point x="46" y="714" type="line"/>
    </contour>
    <component base="P" xScale="-1" yScale="-1" xOffset="265" yOffset="714"/>
  </outline>
</glyph>
<glyph name="uni018C" format="2">
  <advance width="300"/>
  <unicode hex="018C"/>
  <anchor x="135" y="0" name="bottom"/>
  <anchor x="146" y="760" name="top"/>
  <anchor x="271" y="760" name="topright"/>
  <anchor x="141" y="272" name="center"/>
  <outline>
    <contour>
      <point x="44" y="665" type="line"/>
      <point x="197" y="665" type="line"/>
      <point x="197" y="760" type="line"/>
      <point x="44" y="760" type="line"/>
    </contour>
    <component base="d" xOffset="6"/>
  </outline>
</glyph>
<glyph name="uni0191" format="2">
  <advance width="300"/>
  <unicode hex="0191"/>
  <anchor x="139" y="-213" name="bottom"/>
  <anchor x="146" y="714" name="top"/>
  <outline>
    <contour>
      <point x="-2" y="-221" type="curve" smooth="yes"/>
      <point x="68" y="-221"/>
      <point x="122" y="-175"/>
      <point x="122" y="-24" type="curve" smooth="yes"/>
      <point x="122" y="287" type="line"/>
      <point x="251" y="287" type="line"/>
      <point x="251" y="392" type="line"/>
      <point x="122" y="392" type="line"/>
      <point x="122" y="609" type="line"/>
      <point x="258" y="609" type="line"/>
      <point x="258" y="714" type="line"/>
      <point x="18" y="714" type="line"/>
      <point x="18" y="-6" type="line" smooth="yes"/>
      <point x="18" y="-91"/>
      <point x="10" y="-122"/>
      <point x="-20" y="-122" type="curve" smooth="yes"/>
      <point x="-30" y="-122"/>
      <point x="-42" y="-118"/>
      <point x="-50" y="-112" type="curve"/>
      <point x="-50" y="-210" type="line"/>
      <point x="-34" y="-218"/>
      <point x="-19" y="-221"/>
    </contour>
  </outline>
</glyph>
<glyph name="florin" format="2">
  <advance width="300"/>
  <unicode hex="0192"/>
  <anchor x="130" y="-240" name="bottom"/>
  <anchor x="181" y="724" name="top"/>
  <outline>
    <contour>
      <point x="79" y="-240" type="curve" smooth="yes"/>
      <point x="156" y="-240"/>
      <point x="185" y="-177"/>
      <point x="185" y="-46" type="curve" smooth="yes"/>
      <point x="185" y="393" type="line"/>
      <point x="247" y="393" type="line"/>
      <point x="247" y="483" type="line"/>
      <point x="185" y="483" type="line"/>
      <point x="185" y="537" type="line" smooth="yes"/>
      <point x="185" y="605"/>
      <point x="193" y="632"/>
      <point x="207" y="632" type="curve" smooth="yes"/>
      <point x="215" y="632"/>
      <point x="221" y="627"/>
      <point x="232" y="619" type="curve"/>
      <point x="253" y="702" type="line"/>
      <point x="227" y="718"/>
      <point x="210" y="724"/>
      <point x="185" y="724" type="curve" smooth="yes"/>
      <point x="118" y="724"/>
      <point x="87" y="666"/>
      <point x="87" y="533" type="curve" smooth="yes"/>
      <point x="87" y="485" type="line"/>
      <point x="34" y="453" type="line"/>
      <point x="34" y="393" type="line"/>
      <point x="87" y="393" type="line"/>
      <point x="87" y="-60" type="line" smooth="yes"/>
      <point x="87" y="-120"/>
      <point x="79" y="-148"/>
      <point x="57" y="-148" type="curve" smooth="yes"/>
      <point x="50" y="-148"/>
      <point x="41" y="-145"/>
      <point x="30" y="-138" type="curve"/>
      <point x="30" y="-229" type="line"/>
      <point x="44" y="-236"/>
      <point x="58" y="-240"/>
    </contour>
  </outline>
</glyph>
<glyph name="uni0193" format="2">
  <advance width="300"/>
  <unicode hex="0193"/>
  <anchor x="134" y="0" name="bottom"/>
  <anchor x="134" y="875" name="top"/>
  <anchor x="261" y="714" name="topright"/>
  <outline>
    <contour>
      <point x="175" y="681" type="line"/>
      <point x="265" y="681" type="line"/>
      <point x="265" y="720" type="line" smooth="yes"/>
      <point x="265" y="762"/>
      <point x="271" y="774"/>
      <point x="284" y="774" type="curve" smooth="yes"/>
      <point x="293" y="774"/>
      <point x="303" y="767"/>
      <point x="309" y="763" type="curve"/>
      <point x="309" y="861" type="line"/>
      <point x="303" y="867"/>
      <point x="286" y="875"/>
      <point x="265" y="875" type="curve" smooth="yes"/>
      <point x="225" y="875"/>
      <point x="175" y="837"/>
      <point x="175" y="742" type="curve" smooth="yes"/>
    </contour>
    <component base="G" xOffset="6"/>
  </outline>
</glyph>
<glyph name="uni0194" format="2">
  <advance width="300"/>
  <unicode hex="0194"/>
  <anchor x="135" y="-240" name="bottom"/>
  <anchor x="135" y="714" name="top"/>
  <outline>
    <contour>
      <point x="133" y="-240" type="curve" smooth="yes"/>
      <point x="206" y="-240"/>
      <point x="236" y="-180"/>
      <point x="236" y="-91" type="curve" smooth="yes"/>
      <point x="236" y="-26"/>
      <point x="223" y="43"/>
      <point x="198" y="132" type="curve"/>
      <point x="268" y="714" type="line"/>
      <point x="153" y="714" type="line"/>
      <point x="150" y="387" type="line" smooth="yes"/>
      <point x="149" y="344"/>
      <point x="137" y="271"/>
      <point x="135" y="232" type="curve"/>
      <point x="135" y="271"/>
      <point x="121" y="343"/>
      <point x="121" y="388" type="curve" smooth="yes"/>
      <point x="118" y="714" type="line"/>
      <point x="2" y="714" type="line"/>
      <point x="70" y="133" type="line"/>
      <point x="41" y="50"/>
      <point x="34" y="-23"/>
      <point x="34" y="-90" type="curve" smooth="yes"/>
      <point x="34" y="-182"/>
      <point x="65" y="-240"/>
    </contour>
    <contour>
      <point x="135" y="-161" type="curve" smooth="yes"/>
      <point x="133" y="-161"/>
      <point x="124" y="-139"/>
      <point x="124" y="-92" type="curve" smooth="yes"/>
      <point x="124" y="-57"/>
      <point x="123" y="-8"/>
      <point x="136" y="46" type="curve"/>
      <point x="145" y="-9"/>
      <point x="148" y="-57"/>
      <point x="148" y="-96" type="curve" smooth="yes"/>
      <point x="148" y="-141"/>
      <point x="139" y="-161"/>
    </contour>
  </outline>
</glyph>
<glyph name="uni0195" format="2">
  <advance width="300"/>
  <unicode hex="0195"/>
  <anchor x="139" y="0" name="bottom"/>
  <anchor x="63" y="760" name="top"/>
  <outline>
    <contour>
      <point x="176" y="-12" type="curve" smooth="yes"/>
      <point x="224" y="-12"/>
      <point x="246" y="37"/>
      <point x="246" y="116" type="curve" smooth="yes"/>
      <point x="246" y="541" type="line"/>
      <point x="178" y="541" type="line"/>
      <point x="178" y="123" type="line" smooth="yes"/>
      <point x="178" y="87"/>
      <point x="177" y="71"/>
      <point x="176" y="71" type="curve" smooth="yes"/>
      <point x="173" y="71"/>
      <point x="173" y="86"/>
      <point x="173" y="127" type="curve" smooth="yes"/>
      <point x="173" y="429" type="line" smooth="yes"/>
      <point x="173" y="520"/>
      <point x="157" y="550"/>
      <point x="131" y="550" type="curve" smooth="yes"/>
      <point x="114" y="550"/>
      <point x="103" y="531"/>
      <point x="97" y="498" type="curve"/>
      <point x="92" y="498" type="line"/>
      <point x="96" y="523"/>
      <point x="97" y="547"/>
      <point x="97" y="577" type="curve" smooth="yes"/>
      <point x="97" y="760" type="line"/>
      <point x="28" y="760" type="line"/>
      <point x="28" y="0" type="line"/>
      <point x="97" y="0" type="line"/>
      <point x="97" y="373" type="line" smooth="yes"/>
      <point x="97" y="446"/>
      <point x="95" y="467"/>
      <point x="101" y="467" type="curve" smooth="yes"/>
      <point x="104" y="467"/>
      <point x="105" y="450"/>
      <point x="105" y="406" type="curve" smooth="yes"/>
      <point x="105" y="122" type="line" smooth="yes"/>
      <point x="105" y="27"/>
      <point x="129" y="-12"/>
    </contour>
  </outline>
</glyph>
<glyph name="uni0196" format="2">
  <advance width="300"/>
  <unicode hex="0196"/>
  <anchor x="158" y="0" name="bottom"/>
  <anchor x="130" y="714" name="top"/>
  <outline>
    <contour>
      <point x="163" y="-10" type="curve" smooth="yes"/>
      <point x="189" y="-10"/>
      <point x="215" y="-2"/>
      <point x="231" y="13" type="curve"/>
      <point x="231" y="112" type="line"/>
      <point x="222" y="102"/>
      <point x="205" y="96"/>
      <point x="195" y="96" type="curve" smooth="yes"/>
      <point x="188" y="96"/>
      <point x="176" y="114"/>
      <point x="176" y="171" type="curve" smooth="yes"/>
      <point x="176" y="714" type="line"/>
      <point x="71" y="714" type="line"/>
      <point x="71" y="152" type="line" smooth="yes"/>
      <point x="71" y="36"/>
      <point x="106" y="-10"/>
    </contour>
  </outline>
</glyph>
<glyph name="uni0197" format="2">
  <advance width="300"/>
  <unicode hex="0197"/>
  <anchor x="132" y="0" name="bottom"/>
  <anchor x="132" y="714" name="top"/>
  <anchor x="17" y="714" name="topleft"/>
  <anchor x="198" y="10" name="ogonek"/>
  <anchor x="256" y="714" name="topright"/>
  <outline>
    <contour>
      <point x="20" y="321" type="line"/>
      <point x="241" y="321" type="line"/>
      <point x="241" y="420" type="line"/>
      <point x="20" y="420" type="line"/>
    </contour>
    <component base="I" xOffset="1"/>
  </outline>
</glyph>
<glyph name="uni0198" format="2">
  <advance width="300"/>
  <unicode hex="0198"/>
  <anchor x="136" y="0" name="bottom"/>
  <anchor x="136" y="714" name="top"/>
  <outline>
    <contour>
      <point x="11" y="0" type="line"/>
      <point x="113" y="0" type="line"/>
      <point x="113" y="239" type="line"/>
      <point x="130" y="305" type="line"/>
      <point x="157" y="0" type="line"/>
      <point x="275" y="0" type="line"/>
      <point x="210" y="393" type="line"/>
      <point x="224" y="570" type="line" smooth="yes"/>
      <point x="227" y="608"/>
      <point x="229" y="618"/>
      <point x="238" y="618" type="curve" smooth="yes"/>
      <point x="249" y="618"/>
      <point x="259" y="614"/>
      <point x="266" y="610" type="curve"/>
      <point x="266" y="711" type="line"/>
      <point x="255" y="718"/>
      <point x="239" y="724"/>
      <point x="214" y="724" type="curve" smooth="yes"/>
      <point x="170" y="724"/>
      <point x="146" y="700"/>
      <point x="146" y="611" type="curve" smooth="yes"/>
      <point x="146" y="480" type="line" smooth="yes"/>
      <point x="146" y="449"/>
      <point x="123" y="398"/>
      <point x="113" y="363" type="curve"/>
      <point x="113" y="714" type="line"/>
      <point x="11" y="714" type="line"/>
    </contour>
  </outline>
</glyph>
<glyph name="uni0199" format="2">
  <advance width="300"/>
  <unicode hex="0199"/>
  <anchor x="135" y="0" name="bottom"/>
  <anchor x="135" y="765" name="top"/>
  <outline>
    <contour>
      <point x="2" y="0" type="line"/>
      <point x="103" y="0" type="line"/>
      <point x="103" y="187" type="line"/>
      <point x="107" y="221" type="line"/>
      <point x="148" y="0" type="line"/>
      <point x="270" y="0" type="line"/>
      <point x="180" y="295" type="line"/>
      <point x="271" y="543" type="line"/>
      <point x="154" y="543" type="line"/>
      <point x="122" y="365" type="line" smooth="yes"/>
      <point x="117" y="339"/>
      <point x="106" y="316"/>
      <point x="96" y="290" type="curve"/>
      <point x="97" y="290" type="line"/>
      <point x="99" y="337"/>
      <point x="103" y="383"/>
      <point x="103" y="429" type="curve" smooth="yes"/>
      <point x="103" y="596" type="line" smooth="yes"/>
      <point x="103" y="645"/>
      <point x="109" y="664"/>
      <point x="124" y="664" type="curve" smooth="yes"/>
      <point x="131" y="664"/>
      <point x="139" y="661"/>
      <point x="146" y="656" type="curve"/>
      <point x="146" y="755" type="line"/>
      <point x="136" y="760"/>
      <point x="115" y="765"/>
      <point x="98" y="765" type="curve" smooth="yes"/>
      <point x="31" y="765"/>
      <point x="2" y="705"/>
      <point x="2" y="601" type="curve" smooth="yes"/>
    </contour>
  </outline>
</glyph>
<glyph name="uni019A" format="2">
  <advance width="300"/>
  <unicode hex="019A"/>
  <anchor x="136" y="0" name="bottom"/>
  <anchor x="136" y="760" name="top"/>
  <anchor x="237" y="760" name="topright"/>
  <anchor x="144" y="381" name="center"/>
  <outline>
    <contour>
      <point x="35" y="337" type="line"/>
      <point x="237" y="337" type="line"/>
      <point x="237" y="421" type="line"/>
      <point x="35" y="421" type="line"/>
    </contour>
    <component base="l" xOffset="6"/>
  </outline>
</glyph>
<glyph name="uni019B" format="2">
  <advance width="300"/>
  <unicode hex="019B"/>
  <anchor x="141" y="0" name="bottom"/>
  <anchor x="143" y="766" name="top"/>
  <outline>
    <contour>
      <point x="52" y="515" type="line"/>
      <point x="205" y="608" type="line"/>
      <point x="180" y="681" type="line"/>
      <point x="27" y="589" type="line"/>
    </contour>
    <component base="lambda" xOffset="21"/>
  </outline>
</glyph>
<glyph name="uni019C" format="2">
  <advance width="300"/>
  <unicode hex="019C"/>
  <anchor x="135" y="0" name="bottom"/>
  <anchor x="135" y="357" name="center"/>
  <anchor x="135" y="714" name="top"/>
  <anchor x="17" y="714" name="topleft"/>
  <outline>
    <contour>
      <point x="55" y="-11" type="curve" smooth="yes"/>
      <point x="78" y="-11"/>
      <point x="89" y="16"/>
      <point x="101" y="63" type="curve"/>
      <point x="103" y="63" type="line"/>
      <point x="111" y="15"/>
      <point x="122" y="-11"/>
      <point x="144" y="-11" type="curve" smooth="yes"/>
      <point x="159" y="-11"/>
      <point x="173" y="10"/>
      <point x="183" y="57" type="curve"/>
      <point x="187" y="57" type="line"/>
      <point x="197" y="0" type="line"/>
      <point x="261" y="0" type="line"/>
      <point x="261" y="714" type="line"/>
      <point x="189" y="714" type="line"/>
      <point x="189" y="193" type="line" smooth="yes"/>
      <point x="189" y="132"/>
      <point x="191" y="74"/>
      <point x="179" y="74" type="curve" smooth="yes"/>
      <point x="167" y="74"/>
      <point x="170" y="103"/>
      <point x="170" y="156" type="curve" smooth="yes"/>
      <point x="170" y="714" type="line"/>
      <point x="101" y="714" type="line"/>
      <point x="101" y="187" type="line" smooth="yes"/>
      <point x="101" y="126"/>
      <point x="105" y="74"/>
      <point x="91" y="74" type="curve" smooth="yes"/>
      <point x="79" y="74"/>
      <point x="81" y="104"/>
      <point x="81" y="154" type="curve" smooth="yes"/>
      <point x="81" y="714" type="line"/>
      <point x="10" y="714" type="line"/>
      <point x="10" y="156" type="line" smooth="yes"/>
      <point x="10" y="43"/>
      <point x="13" y="-11"/>
    </contour>
  </outline>
</glyph>
<glyph name="uni019D" format="2">
  <advance width="300"/>
  <unicode hex="019D"/>
  <anchor x="135" y="-214" name="bottom"/>
  <anchor x="135" y="714" name="top"/>
  <anchor x="270" y="714" name="topright"/>
  <outline>
    <contour>
      <point x="-7" y="-214" type="curve" smooth="yes"/>
      <point x="68" y="-214"/>
      <point x="104" y="-157"/>
      <point x="104" y="-7" type="curve" smooth="yes"/>
      <point x="104" y="175" type="line"/>
      <point x="10" y="168" type="line"/>
      <point x="10" y="15" type="line" smooth="yes"/>
      <point x="10" y="-89"/>
      <point x="2" y="-125"/>
      <point x="-25" y="-125" type="curve" smooth="yes"/>
      <point x="-39" y="-125"/>
      <point x="-49" y="-121"/>
      <point x="-59" y="-115" type="curve"/>
      <point x="-59" y="-204" type="line"/>
      <point x="-42" y="-211"/>
      <point x="-25" y="-214"/>
    </contour>
    <component base="N" xOffset="5"/>
  </outline>
</glyph>
<glyph name="uni01A2" format="2">
  <advance width="300"/>
  <unicode hex="01A2"/>
  <anchor x="56" y="0" name="bottom"/>
  <anchor x="65" y="10" name="ogonek"/>
  <anchor x="158" y="714" name="top"/>
  <anchor x="-66" y="714" name="topleft"/>
  <anchor x="385" y="714" name="topright"/>
  <outline>
    <contour>
      <point x="55" y="-10" type="curve" smooth="yes"/>
      <point x="158" y="-10"/>
      <point x="209" y="140"/>
      <point x="209" y="357" type="curve" smooth="yes"/>
      <point x="209" y="549"/>
      <point x="166" y="725"/>
      <point x="56" y="725" type="curve" smooth="yes"/>
      <point x="-39" y="725"/>
      <point x="-97" y="603"/>
      <point x="-97" y="358" type="curve" smooth="yes"/>
      <point x="-97" y="144"/>
      <point x="-47" y="-10"/>
    </contour>
    <contour>
      <point x="55" y="91" type="curve" smooth="yes"/>
      <point x="25" y="91"/>
      <point x="11" y="183"/>
      <point x="11" y="357" type="curve" smooth="yes"/>
      <point x="11" y="533"/>
      <point x="25" y="625"/>
      <point x="56" y="625" type="curve" smooth="yes"/>
      <point x="87" y="625"/>
      <point x="102" y="538"/>
      <point x="102" y="360" type="curve" smooth="yes"/>
      <point x="102" y="179"/>
      <point x="84" y="91"/>
    </contour>
    <contour>
      <point x="265" y="0" type="line"/>
      <point x="368" y="0" type="line"/>
      <point x="368" y="502" type="line" smooth="yes"/>
      <point x="368" y="663"/>
      <point x="321" y="724"/>
      <point x="257" y="724" type="curve" smooth="yes"/>
      <point x="220" y="724"/>
      <point x="180" y="688"/>
      <point x="140" y="619" type="curve"/>
      <point x="171" y="552" type="line"/>
      <point x="188" y="596"/>
      <point x="206" y="625"/>
      <point x="220" y="625" type="curve" smooth="yes"/>
      <point x="253" y="625"/>
      <point x="265" y="582"/>
      <point x="265" y="480" type="curve" smooth="yes"/>
    </contour>
  </outline>
</glyph>
<glyph name="uni01A3" format="2">
  <advance width="300"/>
  <unicode hex="01A3"/>
  <anchor x="91" y="0" name="bottom"/>
  <anchor x="91" y="277" name="center"/>
  <anchor x="92" y="10" name="ogonek"/>
  <anchor x="147" y="541" name="top"/>
  <outline>
    <contour>
      <point x="180" y="-240" type="line"/>
      <point x="255" y="-240" type="line"/>
      <point x="255" y="403" type="line" smooth="yes"/>
      <point x="255" y="511"/>
      <point x="236" y="553"/>
      <point x="198" y="553" type="curve" smooth="yes"/>
      <point x="169" y="553"/>
      <point x="156" y="521"/>
      <point x="149" y="488" type="curve"/>
      <point x="138" y="532"/>
      <point x="124" y="553"/>
      <point x="91" y="553" type="curve" smooth="yes"/>
      <point x="30" y="553"/>
      <point x="12" y="470"/>
      <point x="12" y="272" type="curve" smooth="yes"/>
      <point x="12" y="89"/>
      <point x="34" y="-10"/>
      <point x="90" y="-10" type="curve" smooth="yes"/>
      <point x="154" y="-10"/>
      <point x="167" y="89"/>
      <point x="167" y="272" type="curve" smooth="yes"/>
      <point x="167" y="332"/>
      <point x="164" y="400"/>
      <point x="163" y="434" type="curve"/>
      <point x="165" y="447"/>
      <point x="168" y="466"/>
      <point x="171" y="466" type="curve" smooth="yes"/>
      <point x="176" y="466"/>
      <point x="180" y="450"/>
      <point x="180" y="409" type="curve" smooth="yes"/>
    </contour>
    <contour>
      <point x="90" y="75" type="curve" smooth="yes"/>
      <point x="88" y="75"/>
      <point x="88" y="116"/>
      <point x="88" y="272" type="curve" smooth="yes"/>
      <point x="88" y="429"/>
      <point x="88" y="468"/>
      <point x="90" y="468" type="curve" smooth="yes"/>
      <point x="91" y="468"/>
      <point x="93" y="428"/>
      <point x="93" y="272" type="curve" smooth="yes"/>
      <point x="93" y="115"/>
      <point x="95" y="75"/>
    </contour>
  </outline>
</glyph>
<glyph name="uni01A4" format="2">
  <advance width="300"/>
  <unicode hex="01A4"/>
  <anchor x="155" y="0" name="bottom"/>
  <anchor x="155" y="714" name="top"/>
  <outline>
    <contour>
      <point x="75" y="0" type="line"/>
      <point x="163" y="0" type="line"/>
      <point x="163" y="269" type="line"/>
      <point x="156" y="269" type="line" smooth="yes"/>
      <point x="230" y="269"/>
      <point x="259" y="365"/>
      <point x="259" y="499" type="curve" smooth="yes"/>
      <point x="259" y="638"/>
      <point x="229" y="714"/>
      <point x="163" y="714" type="curve" smooth="yes"/>
      <point x="86" y="714" type="line" smooth="yes"/>
      <point x="24" y="714"/>
      <point x="5" y="656"/>
      <point x="5" y="571" type="curve" smooth="yes"/>
      <point x="5" y="542"/>
      <point x="8" y="516"/>
      <point x="9" y="504" type="curve"/>
      <point x="67" y="504" type="line"/>
      <point x="67" y="513"/>
      <point x="65" y="536"/>
      <point x="65" y="563" type="curve" smooth="yes"/>
      <point x="65" y="600"/>
      <point x="67" y="624"/>
      <point x="75" y="626" type="curve"/>
    </contour>
    <contour>
      <point x="163" y="361" type="line"/>
      <point x="163" y="626" type="line"/>
      <point x="160" y="626" type="line" smooth="yes"/>
      <point x="169" y="626"/>
      <point x="175" y="587"/>
      <point x="175" y="494" type="curve" smooth="yes"/>
      <point x="175" y="397"/>
      <point x="169" y="361"/>
      <point x="155" y="361" type="curve" smooth="yes"/>
    </contour>
  </outline>
</glyph>
<glyph name="uni01A5" format="2">
  <advance width="300"/>
  <unicode hex="01A5"/>
  <anchor x="146" y="-240" name="bottom"/>
  <anchor x="146" y="765" name="top"/>
  <outline>
    <contour>
      <point x="14" y="-240" type="line"/>
      <point x="116" y="-240" type="line"/>
      <point x="116" y="-33" type="line" smooth="yes"/>
      <point x="116" y="-3"/>
      <point x="112" y="43"/>
      <point x="109" y="64" type="curve"/>
      <point x="116" y="64" type="line"/>
      <point x="136" y="21"/>
      <point x="155" y="-10"/>
      <point x="175" y="-10" type="curve" smooth="yes"/>
      <point x="220" y="-10"/>
      <point x="263" y="93"/>
      <point x="263" y="273" type="curve" smooth="yes"/>
      <point x="263" y="442"/>
      <point x="233" y="554"/>
      <point x="176" y="554" type="curve" smooth="yes"/>
      <point x="150" y="554"/>
      <point x="129" y="520"/>
      <point x="115" y="468" type="curve"/>
      <point x="110" y="468" type="line"/>
      <point x="114" y="501"/>
      <point x="116" y="524"/>
      <point x="116" y="558" type="curve" smooth="yes"/>
      <point x="116" y="604" type="line" smooth="yes"/>
      <point x="116" y="649"/>
      <point x="119" y="666"/>
      <point x="135" y="666" type="curve" smooth="yes"/>
      <point x="140" y="666"/>
      <point x="147" y="663"/>
      <point x="156" y="658" type="curve"/>
      <point x="156" y="755" type="line"/>
      <point x="146" y="760"/>
      <point x="122" y="765"/>
      <point x="109" y="765" type="curve" smooth="yes"/>
      <point x="40" y="765"/>
      <point x="14" y="705"/>
      <point x="14" y="601" type="curve" smooth="yes"/>
    </contour>
    <contour>
      <point x="141" y="92" type="curve" smooth="yes"/>
      <point x="119" y="92"/>
      <point x="116" y="148"/>
      <point x="116" y="272" type="curve" smooth="yes"/>
      <point x="116" y="290" type="line" smooth="yes"/>
      <point x="116" y="399"/>
      <point x="123" y="453"/>
      <point x="137" y="453" type="curve" smooth="yes"/>
      <point x="152" y="453"/>
      <point x="155" y="394"/>
      <point x="155" y="273" type="curve" smooth="yes"/>
      <point x="155" y="155"/>
      <point x="156" y="92"/>
    </contour>
  </outline>
</glyph>
<glyph name="uni01A6" format="2">
  <advance width="300"/>
  <unicode hex="01A6"/>
  <anchor x="143" y="-98" name="bottom"/>
  <anchor x="143" y="714" name="top"/>
  <outline>
    <contour>
      <point x="166" y="-98" type="line"/>
      <point x="258" y="-98" type="line"/>
      <point x="200" y="213" type="line"/>
      <point x="235" y="250"/>
      <point x="247" y="318"/>
      <point x="247" y="413" type="curve" smooth="yes"/>
      <point x="247" y="548"/>
      <point x="208" y="616"/>
      <point x="121" y="616" type="curve" smooth="yes"/>
      <point x="113" y="616" type="line"/>
      <point x="113" y="714" type="line"/>
      <point x="24" y="714" type="line"/>
      <point x="24" y="0" type="line"/>
      <point x="113" y="0" type="line"/>
      <point x="113" y="189" type="line"/>
      <point x="124" y="189" type="line"/>
    </contour>
    <contour>
      <point x="113" y="281" type="line"/>
      <point x="113" y="523" type="line"/>
      <point x="121" y="523" type="line" smooth="yes"/>
      <point x="150" y="523"/>
      <point x="160" y="489"/>
      <point x="160" y="406" type="curve" smooth="yes"/>
      <point x="160" y="321"/>
      <point x="146" y="281"/>
      <point x="117" y="281" type="curve" smooth="yes"/>
    </contour>
  </outline>
</glyph>
<glyph name="uni01AA" format="2">
  <advance width="300"/>
  <unicode hex="01AA"/>
  <anchor x="138" y="-240" name="bottom"/>
  <anchor x="138" y="770" name="top"/>
  <outline>
    <contour>
      <point x="179" y="-240" type="curve" smooth="yes"/>
      <point x="206" y="-240"/>
      <point x="232" y="-232"/>
      <point x="254" y="-215" type="curve"/>
      <point x="254" y="-120" type="line"/>
      <point x="237" y="-132"/>
      <point x="225" y="-139"/>
      <point x="210" y="-139" type="curve" smooth="yes"/>
      <point x="194" y="-139"/>
      <point x="186" y="-114"/>
      <point x="186" y="-54" type="curve" smooth="yes"/>
      <point x="186" y="598" type="line" smooth="yes"/>
      <point x="186" y="707"/>
      <point x="167" y="768"/>
      <point x="100" y="768" type="curve" smooth="yes"/>
      <point x="38" y="768"/>
      <point x="16" y="712"/>
      <point x="16" y="650" type="curve" smooth="yes"/>
      <point x="16" y="582"/>
      <point x="33" y="531"/>
      <point x="95" y="531" type="curve" smooth="yes"/>
      <point x="83" y="531" type="line"/>
      <point x="83" y="-65" type="line" smooth="yes"/>
      <point x="83" y="-190"/>
      <point x="116" y="-240"/>
    </contour>
    <contour>
      <point x="93" y="607" type="line" smooth="yes"/>
      <point x="91" y="607"/>
      <point x="85" y="621"/>
      <point x="85" y="651" type="curve" smooth="yes"/>
      <point x="85" y="674"/>
      <point x="84" y="689"/>
      <point x="83" y="689" type="curve" smooth="yes"/>
      <point x="85" y="689"/>
      <point x="83" y="667"/>
      <point x="83" y="630" type="curve" smooth="yes"/>
      <point x="83" y="607" type="line"/>
    </contour>
  </outline>
</glyph>
<glyph name="uni01AB" format="2">
  <advance width="300"/>
  <unicode hex="01AB"/>
  <anchor x="165" y="-240" name="bottom"/>
  <anchor x="135" y="679" name="top"/>
  <anchor x="262" y="679" name="topright"/>
  <anchor x="118" y="289" name="center"/>
  <outline>
    <contour>
      <point x="166" y="-240" type="curve" smooth="yes"/>
      <point x="229" y="-240"/>
      <point x="264" y="-180"/>
      <point x="264" y="-76" type="curve" smooth="yes"/>
      <point x="264" y="63" type="line"/>
      <point x="166" y="27" type="line"/>
      <point x="166" y="-73" type="line" smooth="yes"/>
      <point x="166" y="-122"/>
      <point x="151" y="-141"/>
      <point x="139" y="-141" type="curve" smooth="yes"/>
      <point x="136" y="-141"/>
      <point x="128" y="-138"/>
      <point x="120" y="-132" type="curve"/>
      <point x="120" y="-230" type="line"/>
      <point x="130" y="-235"/>
      <point x="155" y="-240"/>
    </contour>
    <component base="t" xOffset="6"/>
  </outline>
</glyph>
